<svg width="1460" height="620" viewBox="0 0 1460 620" fill="none" xmlns="http://www.w3.org/2000/svg">
<g clip-path="url(#clip0_63_6177)">
<path d="M1124.5 304.936C1047.02 401.338 893.825 660.79 948.401 813.075C952.702 825.087 964.722 839.472 975.186 852.607L1686.04 860.723L1697.5 41.0507C1601.86 50.3096 1527 119.212 1413.99 168.965C1298.25 219.918 1171.14 246.898 1124.5 304.936Z" fill="#C26D32"/>
<path d="M1527.75 293.799C1516.89 292.725 1505.81 292.127 1494.53 291.998C1440.89 291.386 1382.64 301.424 1320.87 321.954C1252.91 344.545 1181.93 379.892 1115.62 424.175C1051.48 467.011 992.874 517.32 946.128 569.663C898.07 623.474 863.722 678.265 846.792 728.105C831.547 772.982 830.239 813.327 842.912 848.014C843.288 849.055 843.688 850.086 844.088 851.111L851.804 851.199C851.089 849.47 850.393 847.731 849.751 845.97C837.564 812.591 838.884 773.581 853.678 730.018C870.344 680.963 904.25 626.926 951.734 573.749C998.102 521.836 1056.25 471.924 1119.91 429.413C1185.67 385.493 1256.03 350.447 1323.36 328.066C1397.07 303.565 1465.57 294.213 1526.97 300.277C1575.46 305.058 1638.56 330.695 1693.08 357.307L1693.18 349.944C1671.53 339.445 1651.01 330.304 1631.83 322.641C1590.87 306.276 1555.85 296.573 1527.75 293.799Z" fill="#DD993F"/>
</g>
<defs>
<clipPath id="clip0_63_6177">
<rect width="1460" height="620" fill="white"/>
</clipPath>
</defs>
</svg>
