<svg width="248" height="36" viewBox="0 0 248 36" fill="none" xmlns="http://www.w3.org/2000/svg">
<path d="M22.9093 34.3276C22.9191 34.3234 25.9687 32.924 26.5716 29.504C26.8919 27.6895 27.2316 25.7957 27.9725 24.2194C28.7328 22.5999 29.9025 21.3369 31.8673 20.8676C32.2461 20.7785 32.6109 20.6977 32.9577 20.6225C35.8276 19.9945 37.3747 19.6561 40.7306 14.1543C41.9825 12.099 42.9197 10.9209 43.7009 10.1856C44.5002 9.4309 45.131 9.13986 45.7632 8.85301L46.0347 9.45319C45.4513 9.71637 44.872 9.98373 44.1507 10.6647C43.4099 11.3637 42.5103 12.4972 41.2918 14.4955C37.7897 20.2382 36.1465 20.5988 33.0969 21.2659C32.7599 21.3397 32.4062 21.4162 32.0191 21.5095C30.2841 21.9217 29.2466 23.0497 28.5671 24.4979C27.8666 25.9893 27.5324 27.8413 27.2205 29.6168C26.5577 33.3765 23.1976 34.918 23.1878 34.9222L22.9093 34.3276ZM47.8436 10.9752L47.7615 11.1507C47.4147 11.8817 46.8299 13.1197 46.2506 13.9566C45.9944 14.3284 45.6796 14.7211 45.3301 15.1569C43.7761 17.0981 41.5216 19.9151 41.1414 25.0382L40.4856 24.9922C40.8797 19.6645 43.2121 16.7513 44.8191 14.7447C45.1602 14.3186 45.468 13.9343 45.7103 13.5834C46.2575 12.7924 46.8285 11.5837 47.1669 10.8708L47.249 10.6953L47.8436 10.9752Z" fill="#3B3A64"/>
<path d="M47.7727 7.87124C48.1347 8.09822 48.274 8.61764 48.2559 9.21642C48.2364 9.81938 48.0637 10.5295 47.8075 11.0531C47.7462 11.1785 47.6794 11.2996 47.6056 11.4138L47.6069 11.4152C47.366 11.7926 47.0736 12.085 46.7617 12.2507C46.408 12.4387 46.0334 12.4707 45.6797 12.298C45.6393 12.2785 45.5989 12.2563 45.5614 12.2312V12.2298C45.1687 11.9805 44.9333 11.5447 44.8832 11.0322C44.8373 10.5685 44.9445 10.0366 45.2257 9.52973C45.2661 9.46011 45.3023 9.39604 45.3371 9.34034H45.3386C45.6212 8.89056 46.0139 8.44218 46.4066 8.14418C46.8689 7.79327 47.3535 7.63591 47.7379 7.85036L47.7448 7.85454L47.7643 7.86568L47.7727 7.87124ZM47.5986 9.19832C47.6111 8.82652 47.5624 8.52574 47.4301 8.43244L47.4106 8.42129V8.4199C47.2881 8.36141 47.0583 8.47282 46.8035 8.66638C46.472 8.91703 46.1379 9.29997 45.8956 9.68708V9.68847C45.858 9.74835 45.8259 9.80266 45.8009 9.84861C45.585 10.2343 45.5029 10.6298 45.5363 10.9682C45.5669 11.2815 45.6978 11.5391 45.9137 11.677V11.6756C45.9318 11.6881 45.9499 11.6979 45.968 11.7062C46.117 11.78 46.2855 11.7605 46.4526 11.6714C46.6628 11.56 46.8703 11.347 47.0499 11.0615H47.0513C47.1084 10.9724 47.1641 10.8735 47.2157 10.7663V10.7649C47.4343 10.3165 47.5833 9.71076 47.5986 9.19832Z" fill="#3B3A64"/>
<path d="M42.0898 19.262C42.0954 19.262 44.2649 19.1381 45.1547 18.2274C45.514 17.8584 45.8663 17.3515 46.2464 16.8042C46.8759 15.8963 47.5805 14.8812 48.5761 14.1042C49.7403 13.1962 49.5007 10.6493 49.3517 9.06884C49.3211 8.74299 49.2933 8.45613 49.2821 8.22915C49.2487 7.52176 49.2167 5.87582 49.5439 4.37051C49.8907 2.77469 50.6412 1.33065 52.2036 1.18583L52.5503 1.15381L52.5615 1.50194C52.5629 1.53536 52.9249 13.3132 52.9472 13.7352C52.9486 13.7783 52.9556 13.8271 52.9625 13.8814C53.0336 14.4258 53.17 15.4633 51.5714 17.1649C50.9058 17.8737 50.2221 18.6396 49.6177 19.4444C49.0204 20.2424 48.4967 21.0848 48.143 21.9593C47.93 22.4829 47.827 22.8672 47.7448 23.175C47.6209 23.6359 47.5373 23.9492 47.2337 24.3266C46.5319 25.1955 45.4555 25.7163 44.2301 26.3095C43.435 26.6953 42.5744 27.1116 41.7305 27.67L41.6748 27.7076C38.479 29.8214 35.1133 32.0467 33.3337 34.8623L32.7767 34.5114C34.6343 31.5746 38.0585 29.3104 41.3114 27.159L41.3685 27.1214C42.2485 26.5393 43.13 26.1132 43.9446 25.7177C45.099 25.1593 46.1128 24.6678 46.7213 23.9144C46.9372 23.647 47.0067 23.3867 47.1084 23.0051C47.1961 22.6793 47.3047 22.274 47.5331 21.7115C47.9077 20.7854 48.4619 19.8928 49.0927 19.0518C49.7193 18.2162 50.417 17.4337 51.0924 16.7151C52.4779 15.2391 52.3693 14.4049 52.3122 13.9663V13.9649C52.3025 13.8911 52.2928 13.8257 52.2914 13.77C52.2705 13.3828 51.9794 3.94022 51.9167 1.90715C50.9573 2.19958 50.4504 3.30106 50.1872 4.50976C49.8753 5.94266 49.906 7.52037 49.9394 8.19713C49.9505 8.41854 49.9756 8.69425 50.0048 9.00617C50.1677 10.7245 50.4281 13.4928 48.9813 14.6208C48.0636 15.3365 47.3897 16.3085 46.7867 17.1774C46.3899 17.7484 46.0222 18.2789 45.6254 18.6855C44.5559 19.78 42.1316 19.9179 42.126 19.9179L42.0898 19.262Z" fill="#3B3A64"/>
<path d="M49.5216 10.6089C49.516 10.6006 47.3297 7.63869 46.8062 6.44949C46.6279 6.04566 46.3063 5.67943 45.9554 5.37586C45.3984 4.89406 44.7884 4.57655 44.542 4.49439H44.5406C44.1423 4.36211 42.1079 2.8749 41.342 2.30815C41.1345 2.75097 40.9131 3.67142 41.9115 4.68935C42.3724 5.15723 42.8055 5.53182 43.2052 5.87577C44.2175 6.74887 45.0238 7.44513 45.578 9.00753L45.6351 9.16767L45.6365 9.16627C45.6546 9.2164 45.674 9.26932 45.6949 9.32223L45.0822 9.56175C45.0613 9.50744 45.0391 9.45175 45.0182 9.39326V9.39186L44.9583 9.22893L44.9569 9.22616C44.4612 7.82808 43.7134 7.18334 42.7748 6.3729C42.3654 6.0192 41.9213 5.63626 41.4436 5.15028C39.6389 3.31077 40.9855 1.6314 40.9882 1.62722L41.1874 1.37239L41.445 1.56735C41.4534 1.57292 44.3484 3.73827 44.748 3.87195C45.0446 3.97082 45.759 4.33704 46.3856 4.88012C46.8006 5.23939 47.1863 5.68083 47.4077 6.18352C47.9035 7.30867 50.0466 10.212 50.0521 10.2204L49.5216 10.6089ZM47.0707 12.2911C47.2768 12.7576 47.4676 13.2435 47.6236 13.7616C47.7795 14.2824 47.9007 14.838 47.9661 15.4437L47.3131 15.5133C47.2518 14.9536 47.139 14.4369 46.9928 13.9495C46.8466 13.4622 46.6655 13.0012 46.4678 12.557L47.0707 12.2911Z" fill="#3B3A64"/>
<path d="M44.9236 8.84464C44.9124 8.84046 41.1304 7.54821 38.4038 5.65718C38.1741 6.06658 37.9986 7.08311 40.2642 8.6469C40.6819 8.93376 41.0816 9.19416 41.4632 9.44063C42.2068 9.92244 42.8794 10.3583 43.4656 10.8652L43.0353 11.3609C42.4825 10.8833 41.828 10.46 41.1053 9.99068C40.7182 9.74142 40.313 9.47684 39.891 9.18719C36.1842 6.62915 38.1142 4.97206 38.1197 4.96788L38.3175 4.78547L38.5333 4.94282C41.1944 6.87424 45.1241 8.21801 45.1352 8.2208L44.9236 8.84464ZM45.5697 14.6779C45.6602 15.1834 45.7201 15.7459 45.7451 16.3767C45.7702 17.0048 45.7619 17.6996 45.7187 18.4739L45.0614 18.4377C45.1046 17.6815 45.1129 17.0062 45.0892 16.4018C45.0642 15.8002 45.0085 15.2669 44.9236 14.7935L45.5697 14.6779Z" fill="#3B3A64"/>
<path d="M42.2611 12.5599C42.2513 12.5571 39.0374 11.4431 37.2118 9.99486C37.1631 10.2344 37.1603 10.5602 37.2981 10.946C37.514 11.5517 38.0654 12.2925 39.2769 13.0876C39.7726 13.4121 40.3783 13.7449 41.1136 14.0805L40.8407 14.6793C40.0762 14.3311 39.4412 13.9816 38.9176 13.6377C37.5627 12.7493 36.9347 11.8859 36.6784 11.1674C36.4069 10.4057 36.5462 9.79156 36.6993 9.45597H36.698C36.73 9.38495 36.7662 9.32089 36.801 9.26798L37.0141 8.94491L37.2981 9.20809C38.912 10.7023 42.4727 11.936 42.4824 11.9402L42.2611 12.5599Z" fill="#3B3A64"/>
<path d="M52.0365 1.69133C52.0365 1.69411 51.7914 2.78028 52.4515 3.14512L52.1325 3.72022C51.0352 3.11169 51.3889 1.56739 51.3903 1.56321L52.0365 1.69133Z" fill="#3B3A64"/>
<path d="M41.1791 2.0854C41.1805 2.08679 42.0369 2.73988 42.6162 2.57974L42.7902 3.21333C41.906 3.45841 40.7725 2.59924 40.7697 2.59785L41.1791 2.0854Z" fill="#3B3A64"/>
<path d="M38.227 5.45108L38.2562 5.47337L38.2576 5.47476C38.4052 5.59173 39.0847 6.12785 39.437 5.81871L39.8687 6.31305C39.1084 6.98146 38.0779 6.16962 37.8524 5.99137L37.8217 5.96771L38.227 5.45108Z" fill="#3B3A64"/>
<path d="M37.0879 9.76649C37.2049 9.88624 37.4931 10.1299 37.8023 10.2163C37.9555 10.258 38.1128 10.258 38.2437 10.1661L38.6224 10.7036C38.3022 10.9292 37.9527 10.9404 37.6282 10.8499C37.177 10.7245 36.776 10.3889 36.6172 10.2246L37.0879 9.76649Z" fill="#3B3A64"/>
<path d="M26.3181 30.6987C26.2569 30.5232 26.2026 30.345 26.1567 30.1654C26.1093 29.9816 26.0689 29.7991 26.0369 29.6167C25.7236 27.8413 25.3908 25.9892 24.6903 24.4978C24.0108 23.0496 22.972 21.9217 21.2369 21.5095C20.8512 21.4162 20.4961 21.3396 20.1605 21.2658C17.1109 20.5988 15.4677 20.2381 11.9655 14.4954C10.7471 12.4972 9.84756 11.3637 9.10535 10.6646C8.38403 9.9837 7.80475 9.71634 7.22268 9.45315L7.49281 8.85297C8.1264 9.13983 8.7558 9.43087 9.5565 10.1856C10.3363 10.9209 11.2735 12.0989 12.5267 14.1543C15.8827 19.6561 17.4284 19.9945 20.2997 20.6225C20.6465 20.6977 21.0113 20.7785 21.3887 20.8676C23.3535 21.3368 24.5232 22.5999 25.2849 24.2193C26.0243 25.7957 26.3655 27.6895 26.6844 29.5039C26.7164 29.6794 26.7512 29.8451 26.7916 29.9997C26.8362 30.1709 26.8849 30.3325 26.9378 30.4856L26.3181 30.6987ZM6.00701 10.6953L6.09056 10.8707C6.42755 11.5837 6.99984 12.791 7.54709 13.5833C7.79496 13.9426 8.09992 14.3228 8.4383 14.7447C10.0453 16.7513 12.3764 19.6644 12.7718 24.9922L12.1145 25.0381C11.7358 19.9151 9.47994 17.098 7.9259 15.1569V15.1555C7.57499 14.7155 7.25608 14.3186 7.00543 13.9565C6.42754 13.1196 5.84131 11.8817 5.49597 11.1506L5.41242 10.9752L6.00701 10.6953Z" fill="#3B3A64"/>
<path d="M5.8274 8.43244C5.69372 8.52574 5.64639 8.82652 5.65753 9.19832C5.67424 9.71076 5.82184 10.3165 6.04047 10.7649C6.09478 10.8763 6.1491 10.9752 6.2048 11.0615H6.20621C6.38724 11.347 6.5947 11.56 6.80358 11.6714C6.97068 11.7605 7.13918 11.7786 7.28818 11.7062H7.29096C7.3021 11.7007 7.32019 11.6909 7.34247 11.6756L7.34388 11.677C7.55833 11.5391 7.68922 11.2815 7.71986 10.9682C7.75328 10.6298 7.67109 10.2343 7.45664 9.84861C7.43018 9.80266 7.39818 9.74835 7.36058 9.68847L7.362 9.68708C7.11831 9.29997 6.78406 8.91703 6.45403 8.66638C6.19781 8.47282 5.96806 8.36141 5.84552 8.4199V8.42129L5.8274 8.43244ZM5.00169 9.21642C4.98359 8.61764 5.12283 8.09822 5.48488 7.87124L5.49184 7.86568L5.51131 7.85454L5.51969 7.85036C5.90402 7.63591 6.38862 7.79327 6.84954 8.14418C7.24223 8.44218 7.6363 8.89056 7.91758 9.34034H7.919C7.95381 9.39604 7.99141 9.46011 8.0304 9.52973C8.31308 10.0366 8.42029 10.5685 8.37434 11.0322C8.32421 11.5447 8.08889 11.9805 7.6962 12.2298V12.2312C7.66278 12.2521 7.62377 12.2744 7.57642 12.2967L7.57783 12.298C7.22274 12.4707 6.84815 12.4387 6.49445 12.2507C6.18253 12.0836 5.89011 11.7926 5.64921 11.4152L5.65057 11.4138C5.57537 11.2954 5.50714 11.1757 5.44865 11.0531C5.19382 10.5295 5.01979 9.81938 5.00169 9.21642Z" fill="#3B3A64"/>
<path d="M11.1315 19.9179C11.1245 19.9179 8.70014 19.78 7.63069 18.6855C7.23383 18.2789 6.86764 17.7498 6.47078 17.1774C5.86782 16.3085 5.19243 15.3365 4.27616 14.6208C2.82934 13.4928 3.08971 10.7273 3.25125 9.01036C3.28049 8.69705 3.3056 8.42132 3.31674 8.19713C3.35016 7.52037 3.38217 5.94266 3.06886 4.50976C2.80568 3.30106 2.29881 2.19958 1.33937 1.90715C1.27671 3.94022 0.985662 13.3828 0.966167 13.77C0.963382 13.8257 0.953613 13.8911 0.943865 13.9663V13.9677C0.888165 14.405 0.779571 15.2391 2.16373 16.7151C2.8391 17.4337 3.53671 18.2162 4.16334 19.0518C4.79554 19.8928 5.34839 20.7854 5.72437 21.7115C5.95274 22.274 6.06133 22.6793 6.14767 23.0065C6.25072 23.3866 6.32035 23.647 6.5348 23.9144C7.14333 24.6678 8.15707 25.1593 9.31286 25.7177C10.1261 26.1132 11.0089 26.5393 11.889 27.1214L11.9447 27.159C15.1976 29.3104 18.6218 31.5746 20.4794 34.5114L19.9238 34.8623C18.1428 32.0467 14.7785 29.8214 11.5827 27.7076L11.5256 27.67C10.6831 27.1116 9.82116 26.6953 9.02603 26.3095C7.80062 25.7163 6.72419 25.1955 6.02376 24.3266C5.7188 23.9492 5.63526 23.6359 5.51272 23.1764C5.42917 22.8672 5.3261 22.4829 5.11444 21.9593C4.75935 21.0848 4.23576 20.2424 3.63838 19.4444C3.03542 18.6396 2.35029 17.8737 1.68467 17.1649C0.0874598 15.4633 0.222555 14.4258 0.293573 13.8828C0.300536 13.8271 0.30752 13.7783 0.308913 13.7352C0.331193 13.3132 0.694628 1.53536 0.694628 1.50194L0.707138 1.15381L1.05249 1.18583C2.61489 1.33065 3.36545 2.77469 3.71219 4.37051C4.04082 5.87582 4.00741 7.52176 3.97399 8.22915C3.96285 8.45335 3.935 8.7416 3.90437 9.06884C3.75537 10.6493 3.51585 13.1962 4.67998 14.1042C5.67702 14.8812 6.38161 15.8963 7.01103 16.8042C7.39118 17.3515 7.74213 17.8584 8.10279 18.2274C8.9926 19.1381 11.1607 19.262 11.1663 19.262L11.1315 19.9179Z" fill="#3B3A64"/>
<path d="M3.20534 10.2204C3.21091 10.212 5.35394 7.30867 5.84828 6.18352C6.07108 5.68083 6.45541 5.2394 6.87178 4.87874C7.49841 4.33705 8.21137 3.97082 8.50798 3.87195C8.90763 3.73827 11.8027 1.57292 11.8111 1.56735L12.0687 1.37239L12.2678 1.62722C12.2719 1.6314 13.6185 3.31077 11.8124 5.15028C11.3362 5.63626 10.8906 6.0192 10.4812 6.3729C9.54266 7.18334 8.79623 7.82807 8.2991 9.22755L8.29774 9.23033L8.23785 9.39186L8.23644 9.39744L8.17519 9.55896L7.56107 9.32364L7.62237 9.1635L7.67943 9.00892C8.23365 7.44513 9.03995 6.75027 10.0523 5.87577C10.4506 5.53182 10.885 5.15723 11.3446 4.68935C12.3444 3.67142 12.123 2.75097 11.9155 2.30815C11.1482 2.8749 9.11511 4.36211 8.71685 4.49439H8.71549C8.46763 4.57655 7.85908 4.89406 7.30068 5.37586C6.95116 5.67943 6.62949 6.04427 6.45125 6.44949C5.92627 7.63869 3.74145 10.6006 3.73449 10.6089L3.20534 10.2204ZM6.78823 12.557C6.59188 13.0012 6.40947 13.4622 6.26326 13.9495C6.11705 14.4369 6.00427 14.9536 5.9444 15.5133L5.28992 15.4437C5.35536 14.838 5.47648 14.2824 5.63244 13.7616C5.7884 13.2435 5.97919 12.7576 6.18667 12.2911L6.78823 12.557Z" fill="#3B3A64"/>
<path d="M8.12226 8.22219C8.1334 8.21801 12.0631 6.87424 14.7228 4.94282L14.9386 4.78547L15.1377 4.96788C15.1419 4.97206 17.0733 6.62915 13.3651 9.18719C12.9445 9.47823 12.5379 9.74142 12.1508 9.99208C11.4281 10.46 10.7736 10.8847 10.2208 11.3609L9.7905 10.8638C10.3781 10.3583 11.0493 9.92244 11.7929 9.44063C12.1745 9.19416 12.5741 8.93376 12.9919 8.6469C15.2589 7.08311 15.0821 6.06658 14.8537 5.65718C12.1258 7.54682 8.34505 8.84046 8.33391 8.84464L8.12226 8.22219ZM8.33391 14.7935C8.24757 15.2683 8.19189 15.8002 8.16822 16.4018C8.14315 17.0062 8.15149 17.6815 8.19466 18.4377L7.53882 18.4739C7.49426 17.6996 7.4859 17.0048 7.51096 16.3767C7.53603 15.7473 7.5959 15.1848 7.6878 14.6779L8.33391 14.7935Z" fill="#3B3A64"/>
<path d="M10.775 11.9402C10.7847 11.936 14.344 10.7023 15.9593 9.20809L16.2448 8.94351L16.4578 9.26798C16.4871 9.31532 16.5219 9.37798 16.5567 9.45457H16.5581C16.7113 9.79016 16.8505 10.4043 16.5776 11.1688C16.3213 11.8873 15.6919 12.7506 14.3356 13.6405C13.812 13.983 13.1785 14.3325 12.4154 14.6793L12.1424 14.0791C12.8763 13.7463 13.4806 13.4135 13.975 13.089C15.1892 12.2939 15.7421 11.5517 15.9579 10.9473C16.0958 10.5616 16.0944 10.2358 16.0456 9.99626C14.2187 11.4445 11.0048 12.5571 10.9964 12.5599L10.775 11.9402Z" fill="#3B3A64"/>
<path d="M1.8657 1.56321C1.86709 1.56739 2.22221 3.11309 1.12212 3.72022L0.806032 3.14372C1.46469 2.77888 1.22101 1.69411 1.22101 1.69133L1.8657 1.56321Z" fill="#3B3A64"/>
<path d="M12.4864 2.59785C12.4836 2.59924 11.3515 3.45841 10.4658 3.21333L10.6413 2.57974C11.2192 2.74127 12.0756 2.08679 12.0784 2.0854L12.4864 2.59785Z" fill="#3B3A64"/>
<path d="M15.4344 5.96772L15.4051 5.99138V5.98999C15.1809 6.16824 14.1491 6.98146 13.3874 6.31306L13.8204 5.81872C14.1727 6.12925 14.8537 5.59034 14.9999 5.47476L15.0013 5.47338L15.0306 5.45109L15.4344 5.96772Z" fill="#3B3A64"/>
<path d="M16.6402 10.2246C16.4801 10.3889 16.0805 10.7245 15.6293 10.8499C15.3048 10.9404 14.9553 10.9292 14.6336 10.7036L15.0124 10.1661C15.1433 10.258 15.302 10.258 15.4538 10.2163C15.7643 10.1299 16.0526 9.88624 16.1682 9.76649L16.6402 10.2246Z" fill="#3B3A64"/>
<path d="M24.0484 8.55083C24.267 7.82115 24.5873 7.15135 24.9897 6.56789C25.3963 5.97607 25.8879 5.47337 26.4407 5.08765L26.6287 4.95675L26.8167 5.08765C27.3695 5.47337 27.8597 5.97607 28.2663 6.5665C28.6687 7.15135 28.9904 7.82115 29.2076 8.55083L28.5768 8.73882C28.3791 8.07459 28.0881 7.46606 27.726 6.93969C27.4099 6.48155 27.0395 6.08329 26.6287 5.7644C26.2165 6.08329 25.8461 6.48155 25.53 6.94108C25.168 7.46605 24.8783 8.0732 24.6792 8.73882L24.0484 8.55083Z" fill="#3B3A64"/>
<path d="M26.6176 16.6176C25.6066 16.5828 24.5665 16.2528 23.6154 15.6624C22.7019 15.0984 21.8677 14.2949 21.2146 13.2881C20.5588 12.28 20.1647 11.1896 20.0199 10.1271C19.8695 9.01731 19.9893 7.93394 20.3694 6.99678L20.4544 6.78511L20.6841 6.79208C21.6965 6.82689 22.7353 7.15691 23.6878 7.74595C24.5999 8.31131 25.434 9.1134 26.0884 10.1216C26.2681 10.3973 26.4282 10.68 26.5689 10.9682C26.7109 11.2593 26.8348 11.5545 26.9379 11.8539L26.3182 12.0683C26.2249 11.7968 26.1107 11.5252 25.9785 11.2565C25.8503 10.9947 25.7041 10.7343 25.5384 10.4795C24.9368 9.55483 24.1737 8.81958 23.3424 8.30435C22.5612 7.82115 21.7202 7.53151 20.8972 7.46188C20.6257 8.24308 20.5476 9.13011 20.6716 10.0408C20.8025 11.01 21.1645 12.0057 21.7647 12.9303C22.3649 13.8549 23.128 14.5901 23.9593 15.104C24.8143 15.6331 25.7417 15.9297 26.6385 15.9604L26.6176 16.6176Z" fill="#3B3A64"/>
<path d="M24.0484 8.55083C24.267 7.82115 24.5873 7.15135 24.9897 6.56789C25.3963 5.97607 25.8879 5.47337 26.4407 5.08765L26.6287 4.95675L26.8167 5.08765C27.3695 5.47337 27.8597 5.97607 28.2663 6.5665C28.6687 7.15135 28.9904 7.82115 29.2076 8.55083L28.5768 8.73882C28.3791 8.07459 28.0881 7.46606 27.726 6.93969C27.4099 6.48155 27.0395 6.08329 26.6287 5.7644C26.2165 6.08329 25.8461 6.48155 25.53 6.94108C25.168 7.46605 24.8783 8.0732 24.6792 8.73882L24.0484 8.55083Z" fill="#3B3A64"/>
<path d="M32.3603 7.46193C31.536 7.53155 30.6949 7.8212 29.9151 8.3044C29.0823 8.81963 28.3192 9.55488 27.7191 10.4795C27.1189 11.4041 26.7582 12.3998 26.6259 13.369C26.502 14.2797 26.58 15.1653 26.8515 15.9465C27.6745 15.8783 28.5156 15.5886 29.2968 15.1054C30.1281 14.5902 30.8912 13.855 31.4928 12.9303C32.093 12.0057 32.4536 11.01 32.5859 10.0395C32.7098 9.13015 32.6319 8.24452 32.3603 7.46193ZM29.5697 7.74599C30.5222 7.15696 31.561 6.82693 32.572 6.79212L32.8017 6.78516L32.8881 6.99682C33.2668 7.93398 33.388 9.01736 33.2376 10.1272C33.0928 11.1897 32.6973 12.28 32.0428 13.2882C31.3883 14.2964 30.5542 15.0999 29.6422 15.6638C28.6897 16.2529 27.6508 16.5829 26.6385 16.6177L26.4087 16.6247L26.3238 16.413C25.9436 15.4758 25.8239 14.3911 25.9742 13.2826C26.1191 12.2187 26.5132 11.1298 27.169 10.1216C27.8235 9.11345 28.6576 8.31135 29.5697 7.74599Z" fill="#3B3A64"/>
<path d="M22.9093 34.3276C22.9191 34.3234 25.9687 32.924 26.5716 29.504C26.8919 27.6895 27.2316 25.7957 27.9725 24.2194C28.7328 22.5999 29.9025 21.3369 31.8673 20.8676C32.2461 20.7785 32.6109 20.6977 32.9577 20.6225C35.8276 19.9945 37.3747 19.6561 40.7306 14.1543C41.9825 12.099 42.9197 10.9209 43.7009 10.1856C44.5002 9.4309 45.131 9.13986 45.7632 8.85301L46.0347 9.45319C45.4513 9.71637 44.872 9.98373 44.1507 10.6647C43.4099 11.3637 42.5103 12.4972 41.2918 14.4955C37.7897 20.2382 36.1465 20.5988 33.0969 21.2659C32.7599 21.3397 32.4062 21.4162 32.0191 21.5095C30.2841 21.9217 29.2466 23.0497 28.5671 24.4979C27.8666 25.9893 27.5324 27.8413 27.2205 29.6168C26.5577 33.3765 23.1976 34.918 23.1878 34.9222L22.9093 34.3276ZM47.8436 10.9752L47.7615 11.1507C47.4147 11.8817 46.8299 13.1197 46.2506 13.9566C45.9944 14.3284 45.6796 14.7211 45.3301 15.1569C43.7761 17.0981 41.5216 19.9151 41.1414 25.0382L40.4856 24.9922C40.8797 19.6645 43.2121 16.7513 44.8191 14.7447C45.1602 14.3186 45.468 13.9343 45.7103 13.5834C46.2575 12.7924 46.8285 11.5837 47.1669 10.8708L47.249 10.6953L47.8436 10.9752Z" stroke="#3B3A64" stroke-width="0.287391"/>
<path d="M47.7727 7.87124C48.1347 8.09822 48.274 8.61764 48.2559 9.21642C48.2364 9.81938 48.0637 10.5295 47.8075 11.0531C47.7462 11.1785 47.6794 11.2996 47.6056 11.4138L47.6069 11.4152C47.366 11.7926 47.0736 12.085 46.7617 12.2507C46.408 12.4387 46.0334 12.4707 45.6797 12.298C45.6393 12.2785 45.5989 12.2563 45.5614 12.2312V12.2298C45.1687 11.9805 44.9333 11.5447 44.8832 11.0322C44.8373 10.5685 44.9445 10.0366 45.2257 9.52973C45.2661 9.46011 45.3023 9.39604 45.3371 9.34034H45.3386C45.6212 8.89056 46.0139 8.44218 46.4066 8.14418C46.8689 7.79327 47.3535 7.63591 47.7379 7.85036L47.7448 7.85454L47.7643 7.86568L47.7727 7.87124ZM47.5986 9.19832C47.6111 8.82652 47.5624 8.52574 47.4301 8.43244L47.4106 8.42129V8.4199C47.2881 8.36141 47.0583 8.47282 46.8035 8.66638C46.472 8.91703 46.1379 9.29997 45.8956 9.68708V9.68847C45.858 9.74835 45.8259 9.80266 45.8009 9.84861C45.585 10.2343 45.5029 10.6298 45.5363 10.9682C45.5669 11.2815 45.6978 11.5391 45.9137 11.677V11.6756C45.9318 11.6881 45.9499 11.6979 45.968 11.7062C46.117 11.78 46.2855 11.7605 46.4526 11.6714C46.6628 11.56 46.8703 11.347 47.0499 11.0615H47.0513C47.1084 10.9724 47.1641 10.8735 47.2157 10.7663V10.7649C47.4343 10.3165 47.5833 9.71076 47.5986 9.19832Z" stroke="#3B3A64" stroke-width="0.287391"/>
<path d="M42.0898 19.262C42.0954 19.262 44.2649 19.1381 45.1547 18.2274C45.514 17.8584 45.8663 17.3515 46.2464 16.8042C46.8759 15.8963 47.5805 14.8812 48.5761 14.1042C49.7403 13.1962 49.5007 10.6493 49.3517 9.06884C49.3211 8.74299 49.2933 8.45613 49.2821 8.22915C49.2487 7.52176 49.2167 5.87582 49.5439 4.37051C49.8907 2.77469 50.6412 1.33065 52.2036 1.18583L52.5503 1.15381L52.5615 1.50194C52.5629 1.53536 52.9249 13.3132 52.9472 13.7352C52.9486 13.7783 52.9556 13.8271 52.9625 13.8814C53.0336 14.4258 53.17 15.4633 51.5714 17.1649C50.9058 17.8737 50.2221 18.6396 49.6177 19.4444C49.0204 20.2424 48.4967 21.0848 48.143 21.9593C47.93 22.4829 47.827 22.8672 47.7448 23.175C47.6209 23.6359 47.5373 23.9492 47.2337 24.3266C46.5319 25.1955 45.4555 25.7163 44.2301 26.3095C43.435 26.6953 42.5744 27.1116 41.7305 27.67L41.6748 27.7076C38.479 29.8214 35.1133 32.0467 33.3337 34.8623L32.7767 34.5114C34.6343 31.5746 38.0585 29.3104 41.3114 27.159L41.3685 27.1214C42.2485 26.5393 43.13 26.1132 43.9446 25.7177C45.099 25.1593 46.1128 24.6678 46.7213 23.9144C46.9372 23.647 47.0067 23.3867 47.1084 23.0051C47.1961 22.6793 47.3047 22.274 47.5331 21.7115C47.9077 20.7854 48.4619 19.8928 49.0927 19.0518C49.7193 18.2162 50.417 17.4337 51.0924 16.7151C52.4779 15.2391 52.3693 14.4049 52.3122 13.9663V13.9649C52.3025 13.8911 52.2928 13.8257 52.2914 13.77C52.2705 13.3828 51.9794 3.94022 51.9167 1.90715C50.9573 2.19958 50.4504 3.30106 50.1872 4.50976C49.8753 5.94266 49.906 7.52037 49.9394 8.19713C49.9505 8.41854 49.9756 8.69425 50.0048 9.00617C50.1677 10.7245 50.4281 13.4928 48.9813 14.6208C48.0636 15.3365 47.3897 16.3085 46.7867 17.1774C46.3899 17.7484 46.0222 18.2789 45.6254 18.6855C44.5559 19.78 42.1316 19.9179 42.126 19.9179L42.0898 19.262Z" stroke="#3B3A64" stroke-width="0.287391"/>
<path d="M49.5216 10.6089C49.516 10.6006 47.3297 7.63869 46.8062 6.44949C46.6279 6.04566 46.3063 5.67943 45.9554 5.37586C45.3984 4.89406 44.7884 4.57655 44.542 4.49439H44.5406C44.1423 4.36211 42.1079 2.8749 41.342 2.30815C41.1345 2.75097 40.9131 3.67142 41.9115 4.68935C42.3724 5.15723 42.8055 5.53182 43.2052 5.87577C44.2175 6.74887 45.0238 7.44513 45.578 9.00753L45.6351 9.16767L45.6365 9.16627C45.6546 9.2164 45.674 9.26932 45.6949 9.32223L45.0822 9.56175C45.0613 9.50744 45.0391 9.45175 45.0182 9.39326V9.39186L44.9583 9.22893L44.9569 9.22616C44.4612 7.82808 43.7134 7.18334 42.7748 6.3729C42.3654 6.0192 41.9213 5.63626 41.4436 5.15028C39.6389 3.31077 40.9855 1.6314 40.9882 1.62722L41.1874 1.37239L41.445 1.56735C41.4534 1.57292 44.3484 3.73827 44.748 3.87195C45.0446 3.97082 45.759 4.33704 46.3856 4.88012C46.8006 5.23939 47.1863 5.68083 47.4077 6.18352C47.9035 7.30867 50.0466 10.212 50.0521 10.2204L49.5216 10.6089ZM47.0707 12.2911C47.2768 12.7576 47.4676 13.2435 47.6236 13.7616C47.7795 14.2824 47.9007 14.838 47.9661 15.4437L47.3131 15.5133C47.2518 14.9536 47.139 14.4369 46.9928 13.9495C46.8466 13.4622 46.6655 13.0012 46.4678 12.557L47.0707 12.2911Z" stroke="#3B3A64" stroke-width="0.287391"/>
<path d="M44.9236 8.84464C44.9124 8.84046 41.1304 7.54821 38.4038 5.65718C38.1741 6.06658 37.9986 7.08311 40.2642 8.6469C40.6819 8.93376 41.0816 9.19416 41.4632 9.44063C42.2068 9.92244 42.8794 10.3583 43.4656 10.8652L43.0353 11.3609C42.4825 10.8833 41.828 10.46 41.1053 9.99068C40.7182 9.74142 40.313 9.47684 39.891 9.18719C36.1842 6.62915 38.1142 4.97206 38.1197 4.96788L38.3175 4.78547L38.5333 4.94282C41.1944 6.87424 45.1241 8.21801 45.1352 8.2208L44.9236 8.84464ZM45.5697 14.6779C45.6602 15.1834 45.7201 15.7459 45.7451 16.3767C45.7702 17.0048 45.7619 17.6996 45.7187 18.4739L45.0614 18.4377C45.1046 17.6815 45.1129 17.0062 45.0892 16.4018C45.0642 15.8002 45.0085 15.2669 44.9236 14.7935L45.5697 14.6779Z" stroke="#3B3A64" stroke-width="0.287391"/>
<path d="M42.2611 12.5599C42.2513 12.5571 39.0374 11.4431 37.2118 9.99486C37.1631 10.2344 37.1603 10.5602 37.2981 10.946C37.514 11.5517 38.0654 12.2925 39.2769 13.0876C39.7726 13.4121 40.3783 13.7449 41.1136 14.0805L40.8407 14.6793C40.0762 14.3311 39.4412 13.9816 38.9176 13.6377C37.5627 12.7493 36.9347 11.8859 36.6784 11.1674C36.4069 10.4057 36.5462 9.79156 36.6993 9.45597H36.698C36.73 9.38495 36.7662 9.32089 36.801 9.26798L37.0141 8.94491L37.2981 9.20809C38.912 10.7023 42.4727 11.936 42.4824 11.9402L42.2611 12.5599Z" stroke="#3B3A64" stroke-width="0.287391"/>
<path d="M52.0365 1.69133C52.0365 1.69411 51.7914 2.78028 52.4515 3.14512L52.1325 3.72022C51.0352 3.11169 51.3889 1.56739 51.3903 1.56321L52.0365 1.69133Z" stroke="#3B3A64" stroke-width="0.287391"/>
<path d="M41.1791 2.0854C41.1805 2.08679 42.0369 2.73988 42.6162 2.57974L42.7902 3.21333C41.906 3.45841 40.7725 2.59924 40.7697 2.59785L41.1791 2.0854Z" stroke="#3B3A64" stroke-width="0.287391"/>
<path d="M38.227 5.45108L38.2562 5.47337L38.2576 5.47476C38.4052 5.59173 39.0847 6.12785 39.437 5.81871L39.8687 6.31305C39.1084 6.98146 38.0779 6.16962 37.8524 5.99137L37.8217 5.96771L38.227 5.45108Z" stroke="#3B3A64" stroke-width="0.287391"/>
<path d="M37.0879 9.76649C37.2049 9.88624 37.4931 10.1299 37.8023 10.2163C37.9555 10.258 38.1128 10.258 38.2437 10.1661L38.6224 10.7036C38.3022 10.9292 37.9527 10.9404 37.6282 10.8499C37.177 10.7245 36.776 10.3889 36.6172 10.2246L37.0879 9.76649Z" stroke="#3B3A64" stroke-width="0.287391"/>
<path d="M26.3181 30.6987C26.2569 30.5232 26.2026 30.345 26.1567 30.1654C26.1093 29.9816 26.0689 29.7991 26.0369 29.6167C25.7236 27.8413 25.3908 25.9892 24.6903 24.4978C24.0108 23.0496 22.972 21.9217 21.2369 21.5095C20.8512 21.4162 20.4961 21.3396 20.1605 21.2658C17.1109 20.5988 15.4677 20.2381 11.9655 14.4954C10.7471 12.4972 9.84756 11.3637 9.10535 10.6646C8.38403 9.9837 7.80475 9.71634 7.22268 9.45315L7.49281 8.85297C8.1264 9.13983 8.7558 9.43087 9.5565 10.1856C10.3363 10.9209 11.2735 12.0989 12.5267 14.1543C15.8827 19.6561 17.4284 19.9945 20.2997 20.6225C20.6465 20.6977 21.0113 20.7785 21.3887 20.8676C23.3535 21.3368 24.5232 22.5999 25.2849 24.2193C26.0243 25.7957 26.3655 27.6895 26.6844 29.5039C26.7164 29.6794 26.7512 29.8451 26.7916 29.9997C26.8362 30.1709 26.8849 30.3325 26.9378 30.4856L26.3181 30.6987ZM6.00701 10.6953L6.09056 10.8707C6.42755 11.5837 6.99984 12.791 7.54709 13.5833C7.79496 13.9426 8.09992 14.3228 8.4383 14.7447C10.0453 16.7513 12.3764 19.6644 12.7718 24.9922L12.1145 25.0381C11.7358 19.9151 9.47994 17.098 7.9259 15.1569V15.1555C7.57499 14.7155 7.25608 14.3186 7.00543 13.9565C6.42754 13.1196 5.84131 11.8817 5.49597 11.1506L5.41242 10.9752L6.00701 10.6953Z" stroke="#3B3A64" stroke-width="0.287391"/>
<path d="M5.8274 8.43244C5.69372 8.52574 5.64639 8.82652 5.65753 9.19832C5.67424 9.71076 5.82184 10.3165 6.04047 10.7649C6.09478 10.8763 6.1491 10.9752 6.2048 11.0615H6.20621C6.38724 11.347 6.5947 11.56 6.80358 11.6714C6.97068 11.7605 7.13918 11.7786 7.28818 11.7062H7.29096C7.3021 11.7007 7.32019 11.6909 7.34247 11.6756L7.34388 11.677C7.55833 11.5391 7.68922 11.2815 7.71986 10.9682C7.75328 10.6298 7.67109 10.2343 7.45664 9.84861C7.43018 9.80266 7.39818 9.74835 7.36058 9.68847L7.362 9.68708C7.11831 9.29997 6.78406 8.91703 6.45403 8.66638C6.19781 8.47282 5.96806 8.36141 5.84552 8.4199V8.42129L5.8274 8.43244ZM5.00169 9.21642C4.98359 8.61764 5.12283 8.09822 5.48488 7.87124L5.49184 7.86568L5.51131 7.85454L5.51969 7.85036C5.90402 7.63591 6.38862 7.79327 6.84954 8.14418C7.24223 8.44218 7.6363 8.89056 7.91758 9.34034H7.919C7.95381 9.39604 7.99141 9.46011 8.0304 9.52973C8.31308 10.0366 8.42029 10.5685 8.37434 11.0322C8.32421 11.5447 8.08889 11.9805 7.6962 12.2298V12.2312C7.66278 12.2521 7.62377 12.2744 7.57642 12.2967L7.57783 12.298C7.22274 12.4707 6.84815 12.4387 6.49445 12.2507C6.18253 12.0836 5.89011 11.7926 5.64921 11.4152L5.65057 11.4138C5.57537 11.2954 5.50714 11.1757 5.44865 11.0531C5.19382 10.5295 5.01979 9.81938 5.00169 9.21642Z" stroke="#3B3A64" stroke-width="0.287391"/>
<path d="M11.1315 19.9179C11.1245 19.9179 8.70014 19.78 7.63069 18.6855C7.23383 18.2789 6.86764 17.7498 6.47078 17.1774C5.86782 16.3085 5.19243 15.3365 4.27616 14.6208C2.82934 13.4928 3.08971 10.7273 3.25125 9.01036C3.28049 8.69705 3.3056 8.42132 3.31674 8.19713C3.35016 7.52037 3.38217 5.94266 3.06886 4.50976C2.80568 3.30106 2.29881 2.19958 1.33937 1.90715C1.27671 3.94022 0.985662 13.3828 0.966167 13.77C0.963382 13.8257 0.953613 13.8911 0.943865 13.9663V13.9677C0.888165 14.405 0.779571 15.2391 2.16373 16.7151C2.8391 17.4337 3.53671 18.2162 4.16334 19.0518C4.79554 19.8928 5.34839 20.7854 5.72437 21.7115C5.95274 22.274 6.06133 22.6793 6.14767 23.0065C6.25072 23.3866 6.32035 23.647 6.5348 23.9144C7.14333 24.6678 8.15707 25.1593 9.31286 25.7177C10.1261 26.1132 11.0089 26.5393 11.889 27.1214L11.9447 27.159C15.1976 29.3104 18.6218 31.5746 20.4794 34.5114L19.9238 34.8623C18.1428 32.0467 14.7785 29.8214 11.5827 27.7076L11.5256 27.67C10.6831 27.1116 9.82116 26.6953 9.02603 26.3095C7.80062 25.7163 6.72419 25.1955 6.02376 24.3266C5.7188 23.9492 5.63526 23.6359 5.51272 23.1764C5.42917 22.8672 5.3261 22.4829 5.11444 21.9593C4.75935 21.0848 4.23576 20.2424 3.63838 19.4444C3.03542 18.6396 2.35029 17.8737 1.68467 17.1649C0.0874598 15.4633 0.222555 14.4258 0.293573 13.8828C0.300536 13.8271 0.30752 13.7783 0.308913 13.7352C0.331193 13.3132 0.694628 1.53536 0.694628 1.50194L0.707138 1.15381L1.05249 1.18583C2.61489 1.33065 3.36545 2.77469 3.71219 4.37051C4.04082 5.87582 4.00741 7.52176 3.97399 8.22915C3.96285 8.45335 3.935 8.7416 3.90437 9.06884C3.75537 10.6493 3.51585 13.1962 4.67998 14.1042C5.67702 14.8812 6.38161 15.8963 7.01103 16.8042C7.39118 17.3515 7.74213 17.8584 8.10279 18.2274C8.9926 19.1381 11.1607 19.262 11.1663 19.262L11.1315 19.9179Z" stroke="#3B3A64" stroke-width="0.287391"/>
<path d="M3.20534 10.2204C3.21091 10.212 5.35394 7.30867 5.84828 6.18352C6.07108 5.68083 6.45541 5.2394 6.87178 4.87874C7.49841 4.33705 8.21137 3.97082 8.50798 3.87195C8.90763 3.73827 11.8027 1.57292 11.8111 1.56735L12.0687 1.37239L12.2678 1.62722C12.2719 1.6314 13.6185 3.31077 11.8124 5.15028C11.3362 5.63626 10.8906 6.0192 10.4812 6.3729C9.54266 7.18334 8.79623 7.82807 8.2991 9.22755L8.29774 9.23033L8.23785 9.39186L8.23644 9.39744L8.17519 9.55896L7.56107 9.32364L7.62237 9.1635L7.67943 9.00892C8.23365 7.44513 9.03995 6.75027 10.0523 5.87577C10.4506 5.53182 10.885 5.15723 11.3446 4.68935C12.3444 3.67142 12.123 2.75097 11.9155 2.30815C11.1482 2.8749 9.11511 4.36211 8.71685 4.49439H8.71549C8.46763 4.57655 7.85908 4.89406 7.30068 5.37586C6.95116 5.67943 6.62949 6.04427 6.45125 6.44949C5.92627 7.63869 3.74145 10.6006 3.73449 10.6089L3.20534 10.2204ZM6.78823 12.557C6.59188 13.0012 6.40947 13.4622 6.26326 13.9495C6.11705 14.4369 6.00427 14.9536 5.9444 15.5133L5.28992 15.4437C5.35536 14.838 5.47648 14.2824 5.63244 13.7616C5.7884 13.2435 5.97919 12.7576 6.18667 12.2911L6.78823 12.557Z" stroke="#3B3A64" stroke-width="0.287391"/>
<path d="M8.12226 8.22219C8.1334 8.21801 12.0631 6.87424 14.7228 4.94282L14.9386 4.78547L15.1377 4.96788C15.1419 4.97206 17.0733 6.62915 13.3651 9.18719C12.9445 9.47823 12.5379 9.74142 12.1508 9.99208C11.4281 10.46 10.7736 10.8847 10.2208 11.3609L9.7905 10.8638C10.3781 10.3583 11.0493 9.92244 11.7929 9.44063C12.1745 9.19416 12.5741 8.93376 12.9919 8.6469C15.2589 7.08311 15.0821 6.06658 14.8537 5.65718C12.1258 7.54682 8.34505 8.84046 8.33391 8.84464L8.12226 8.22219ZM8.33391 14.7935C8.24757 15.2683 8.19189 15.8002 8.16822 16.4018C8.14315 17.0062 8.15149 17.6815 8.19466 18.4377L7.53882 18.4739C7.49426 17.6996 7.4859 17.0048 7.51096 16.3767C7.53603 15.7473 7.5959 15.1848 7.6878 14.6779L8.33391 14.7935Z" stroke="#3B3A64" stroke-width="0.287391"/>
<path d="M10.775 11.9402C10.7847 11.936 14.344 10.7023 15.9593 9.20809L16.2448 8.94351L16.4578 9.26798C16.4871 9.31532 16.5219 9.37798 16.5567 9.45457H16.5581C16.7113 9.79016 16.8505 10.4043 16.5776 11.1688C16.3213 11.8873 15.6919 12.7506 14.3356 13.6405C13.812 13.983 13.1785 14.3325 12.4154 14.6793L12.1424 14.0791C12.8763 13.7463 13.4806 13.4135 13.975 13.089C15.1892 12.2939 15.7421 11.5517 15.9579 10.9473C16.0958 10.5616 16.0944 10.2358 16.0456 9.99626C14.2187 11.4445 11.0048 12.5571 10.9964 12.5599L10.775 11.9402Z" stroke="#3B3A64" stroke-width="0.287391"/>
<path d="M1.8657 1.56321C1.86709 1.56739 2.22221 3.11309 1.12212 3.72022L0.806032 3.14372C1.46469 2.77888 1.22101 1.69411 1.22101 1.69133L1.8657 1.56321Z" stroke="#3B3A64" stroke-width="0.287391"/>
<path d="M12.4864 2.59785C12.4836 2.59924 11.3515 3.45841 10.4658 3.21333L10.6413 2.57974C11.2192 2.74127 12.0756 2.08679 12.0784 2.0854L12.4864 2.59785Z" stroke="#3B3A64" stroke-width="0.287391"/>
<path d="M15.4344 5.96772L15.4051 5.99138V5.98999C15.1809 6.16824 14.1491 6.98146 13.3874 6.31306L13.8204 5.81872C14.1727 6.12925 14.8537 5.59034 14.9999 5.47476L15.0013 5.47338L15.0306 5.45109L15.4344 5.96772Z" stroke="#3B3A64" stroke-width="0.287391"/>
<path d="M16.6402 10.2246C16.4801 10.3889 16.0805 10.7245 15.6293 10.8499C15.3048 10.9404 14.9553 10.9292 14.6336 10.7036L15.0124 10.1661C15.1433 10.258 15.302 10.258 15.4538 10.2163C15.7643 10.1299 16.0526 9.88624 16.1682 9.76649L16.6402 10.2246Z" stroke="#3B3A64" stroke-width="0.287391"/>
<path d="M24.0484 8.55083C24.267 7.82115 24.5873 7.15135 24.9897 6.56789C25.3963 5.97607 25.8879 5.47337 26.4407 5.08765L26.6287 4.95675L26.8167 5.08765C27.3695 5.47337 27.8597 5.97607 28.2663 6.5665C28.6687 7.15135 28.9904 7.82115 29.2076 8.55083L28.5768 8.73882C28.3791 8.07459 28.0881 7.46606 27.726 6.93969C27.4099 6.48155 27.0395 6.08329 26.6287 5.7644C26.2165 6.08329 25.8461 6.48155 25.53 6.94108C25.168 7.46605 24.8783 8.0732 24.6792 8.73882L24.0484 8.55083Z" stroke="#3B3A64" stroke-width="0.287391"/>
<path d="M26.6176 16.6176C25.6066 16.5828 24.5665 16.2528 23.6154 15.6624C22.7019 15.0984 21.8677 14.2949 21.2146 13.2881C20.5588 12.28 20.1647 11.1896 20.0199 10.1271C19.8695 9.01731 19.9893 7.93394 20.3694 6.99678L20.4544 6.78511L20.6841 6.79208C21.6965 6.82689 22.7353 7.15691 23.6878 7.74595C24.5999 8.31131 25.434 9.1134 26.0884 10.1216C26.2681 10.3973 26.4282 10.68 26.5689 10.9682C26.7109 11.2593 26.8348 11.5545 26.9379 11.8539L26.3182 12.0683C26.2249 11.7968 26.1107 11.5252 25.9785 11.2565C25.8503 10.9947 25.7041 10.7343 25.5384 10.4795C24.9368 9.55483 24.1737 8.81958 23.3424 8.30435C22.5612 7.82115 21.7202 7.53151 20.8972 7.46188C20.6257 8.24308 20.5476 9.13011 20.6716 10.0408C20.8025 11.01 21.1645 12.0057 21.7647 12.9303C22.3649 13.8549 23.128 14.5901 23.9593 15.104C24.8143 15.6331 25.7417 15.9297 26.6385 15.9604L26.6176 16.6176Z" stroke="#3B3A64" stroke-width="0.287391"/>
<path d="M24.0484 8.55083C24.267 7.82115 24.5873 7.15135 24.9897 6.56789C25.3963 5.97607 25.8879 5.47337 26.4407 5.08765L26.6287 4.95675L26.8167 5.08765C27.3695 5.47337 27.8597 5.97607 28.2663 6.5665C28.6687 7.15135 28.9904 7.82115 29.2076 8.55083L28.5768 8.73882C28.3791 8.07459 28.0881 7.46606 27.726 6.93969C27.4099 6.48155 27.0395 6.08329 26.6287 5.7644C26.2165 6.08329 25.8461 6.48155 25.53 6.94108C25.168 7.46605 24.8783 8.0732 24.6792 8.73882L24.0484 8.55083Z" stroke="#3B3A64" stroke-width="0.287391"/>
<path d="M32.3603 7.46193C31.536 7.53155 30.6949 7.8212 29.9151 8.3044C29.0823 8.81963 28.3192 9.55488 27.7191 10.4795C27.1189 11.4041 26.7582 12.3998 26.6259 13.369C26.502 14.2797 26.58 15.1653 26.8515 15.9465C27.6745 15.8783 28.5156 15.5886 29.2968 15.1054C30.1281 14.5902 30.8912 13.855 31.4928 12.9303C32.093 12.0057 32.4536 11.01 32.5859 10.0395C32.7098 9.13015 32.6319 8.24452 32.3603 7.46193ZM29.5697 7.74599C30.5222 7.15696 31.561 6.82693 32.572 6.79212L32.8017 6.78516L32.8881 6.99682C33.2668 7.93398 33.388 9.01736 33.2376 10.1272C33.0928 11.1897 32.6973 12.28 32.0428 13.2882C31.3883 14.2964 30.5542 15.0999 29.6422 15.6638C28.6897 16.2529 27.6508 16.5829 26.6385 16.6177L26.4087 16.6247L26.3238 16.413C25.9436 15.4758 25.8239 14.3911 25.9742 13.2826C26.1191 12.2187 26.5132 11.1298 27.169 10.1216C27.8235 9.11345 28.6576 8.31135 29.5697 7.74599Z" stroke="#3B3A64" stroke-width="0.287391"/>
<path d="M72.7459 18.5341L70.8592 13.2841L69.1834 18.5341H72.7459ZM68.6795 20.0575L67.6131 23.2684C67.535 23.5106 67.6248 23.6864 67.8827 23.7958C68.1483 23.9052 68.6014 23.995 69.242 24.0653V25.038H64.0389V24.0653C64.5702 23.9716 64.9725 23.8739 65.2459 23.7723C65.5194 23.6708 65.6952 23.5028 65.7733 23.2684L69.7811 11.0106C69.992 10.8309 70.2225 10.6708 70.4725 10.5302C70.7303 10.3817 70.992 10.2489 71.2577 10.1317C71.5233 10.0145 71.785 9.91296 72.0428 9.82703C72.3084 9.74109 72.5584 9.66687 72.7928 9.60437L77.7147 23.2684C77.7538 23.3778 77.8006 23.4755 77.8553 23.5614C77.9178 23.6473 77.9998 23.7216 78.1014 23.7841C78.2108 23.8466 78.3475 23.9012 78.5116 23.9481C78.6756 23.995 78.8827 24.0341 79.1327 24.0653V25.038H73.0155V24.0653C73.617 24.0341 74.0233 23.9598 74.2342 23.8427C74.453 23.7177 74.5194 23.5262 74.4334 23.2684L73.285 20.0575H68.6795ZM91.5663 15.1122C91.3319 15.1669 91.1483 15.2177 91.0155 15.2645C90.8827 15.3114 90.7772 15.3661 90.6991 15.4286C90.6209 15.4833 90.5623 15.5497 90.5233 15.6278C90.4842 15.7059 90.4413 15.7997 90.3944 15.9091L87.078 23.995C87.0077 24.1669 86.8944 24.327 86.7381 24.4755C86.5897 24.6239 86.4139 24.7567 86.2108 24.8739C86.0155 24.9911 85.8045 25.0927 85.578 25.1786C85.3514 25.2645 85.1288 25.3348 84.91 25.3895L80.6913 15.9091C80.6444 15.8075 80.5897 15.7177 80.5272 15.6395C80.4725 15.5536 80.4022 15.4794 80.3163 15.4169C80.2303 15.3544 80.1209 15.2997 79.9881 15.2528C79.8631 15.2059 79.703 15.1591 79.5077 15.1122V14.1395H85.0858V15.1122C84.7811 15.1512 84.5428 15.1942 84.3709 15.2411C84.1991 15.2802 84.0741 15.3309 83.9959 15.3934C83.9256 15.4481 83.8944 15.5184 83.9022 15.6044C83.91 15.6825 83.9413 15.7841 83.9959 15.9091L86.3866 21.2645L88.6483 15.9091C88.6952 15.7919 88.7264 15.6942 88.742 15.6161C88.7577 15.5302 88.7342 15.4598 88.6717 15.4052C88.617 15.3427 88.5194 15.2919 88.3788 15.2528C88.2381 15.2059 88.0389 15.1591 87.7811 15.1122V14.1395H91.5663V15.1122ZM96.7577 23.163C96.8748 23.163 97.0038 23.1512 97.1444 23.1278C97.285 23.1044 97.4413 23.0536 97.6131 22.9755C97.7928 22.8895 97.9959 22.7723 98.2225 22.6239C98.4491 22.4755 98.7069 22.2762 98.9959 22.0262V19.577C98.5819 19.6473 98.2303 19.7137 97.9413 19.7762C97.66 19.8387 97.4217 19.9052 97.2264 19.9755C97.0311 20.038 96.867 20.1083 96.7342 20.1864C96.6092 20.2645 96.4998 20.3505 96.4061 20.4442C96.203 20.6473 96.0389 20.8583 95.9139 21.077C95.7889 21.2958 95.7264 21.5653 95.7264 21.8856C95.7264 22.1356 95.7616 22.3427 95.8319 22.5067C95.9022 22.6708 95.9881 22.8036 96.0897 22.9052C96.1913 22.9989 96.3006 23.0653 96.4178 23.1044C96.5428 23.1434 96.6561 23.163 96.7577 23.163ZM103.953 23.6083C103.625 23.8348 103.269 24.0575 102.887 24.2762C102.512 24.4872 102.144 24.6747 101.785 24.8387C101.433 25.0028 101.113 25.1356 100.824 25.2372C100.535 25.3387 100.312 25.3895 100.156 25.3895C99.8592 25.3895 99.6053 25.2294 99.3944 24.9091C99.1834 24.5809 99.0545 24.1356 99.0077 23.5731C98.6561 23.9247 98.3006 24.2177 97.9413 24.452C97.5897 24.6864 97.2459 24.8739 96.91 25.0145C96.5819 25.1552 96.2655 25.2528 95.9608 25.3075C95.6561 25.3622 95.3788 25.3895 95.1288 25.3895C94.785 25.3895 94.4491 25.3309 94.1209 25.2137C93.8006 25.0966 93.5116 24.9208 93.2538 24.6864C92.9959 24.452 92.7889 24.163 92.6327 23.8192C92.4764 23.4755 92.3983 23.077 92.3983 22.6239C92.3983 22.1161 92.492 21.6825 92.6795 21.3231C92.867 20.9559 93.1053 20.6278 93.3944 20.3387C93.5819 20.1512 93.7967 19.9716 94.0389 19.7997C94.2889 19.62 94.6209 19.4481 95.035 19.2841C95.4491 19.12 95.9725 18.9598 96.6053 18.8036C97.2381 18.6473 98.035 18.495 98.9959 18.3466V17.0458C98.9959 16.8114 98.9725 16.5966 98.9256 16.4012C98.8866 16.1981 98.8123 16.0262 98.703 15.8856C98.6014 15.745 98.4608 15.6356 98.2811 15.5575C98.1014 15.4716 97.8788 15.4286 97.6131 15.4286C97.4491 15.4286 97.2811 15.4637 97.1092 15.5341C96.9452 15.5966 96.7967 15.6903 96.6639 15.8153C96.5389 15.9403 96.4373 16.0966 96.3592 16.2841C96.2889 16.4637 96.2655 16.6708 96.2889 16.9052C96.2967 16.952 96.2264 17.0145 96.078 17.0927C95.9295 17.163 95.7381 17.2411 95.5038 17.327C95.2772 17.4052 95.0233 17.4833 94.742 17.5614C94.4686 17.6395 94.203 17.7098 93.9452 17.7723C93.6952 17.827 93.4725 17.87 93.2772 17.9012C93.0819 17.9325 92.953 17.9403 92.8905 17.9247L92.6092 17.2333C92.8045 16.7411 93.1092 16.288 93.5233 15.8739C93.9373 15.452 94.4256 15.0887 94.9881 14.7841C95.5506 14.4716 96.1639 14.2294 96.828 14.0575C97.4998 13.8778 98.1873 13.788 98.8905 13.788C99.4608 13.788 99.953 13.8661 100.367 14.0223C100.781 14.1708 101.121 14.3778 101.387 14.6434C101.652 14.9012 101.848 15.2098 101.973 15.5692C102.098 15.9208 102.16 16.2958 102.16 16.6942V22.0145C102.16 22.3427 102.203 22.577 102.289 22.7177C102.375 22.8583 102.488 22.9286 102.629 22.9286C102.683 22.9286 102.738 22.9247 102.793 22.9169C102.848 22.9091 102.914 22.8934 102.992 22.87C103.07 22.8466 103.16 22.8153 103.262 22.7762C103.371 22.7294 103.504 22.6747 103.66 22.6122L103.953 23.6083ZM117.723 23.5848C117.363 23.827 116.984 24.0575 116.586 24.2762C116.187 24.495 115.808 24.6864 115.449 24.8505C115.098 25.0145 114.785 25.1434 114.512 25.2372C114.246 25.3387 114.058 25.3895 113.949 25.3895C113.652 25.3895 113.414 25.2255 113.234 24.8973C113.055 24.5614 112.922 24.077 112.836 23.4442C112.453 23.8114 112.109 24.12 111.805 24.37C111.5 24.62 111.207 24.8231 110.926 24.9794C110.644 25.1278 110.359 25.2333 110.07 25.2958C109.781 25.3583 109.461 25.3895 109.109 25.3895C108.555 25.3895 108.012 25.2645 107.48 25.0145C106.957 24.7567 106.488 24.3895 106.074 23.913C105.668 23.4364 105.336 22.8544 105.078 22.1669C104.828 21.4794 104.703 20.702 104.703 19.8348C104.703 19.0145 104.844 18.2411 105.125 17.5145C105.406 16.7802 105.801 16.1395 106.308 15.5927C106.816 15.038 107.422 14.6005 108.125 14.2802C108.836 13.952 109.613 13.788 110.457 13.788C110.824 13.788 111.187 13.8309 111.547 13.9169C111.914 14.0028 112.308 14.1864 112.73 14.4677V10.577C112.73 10.1473 112.723 9.8075 112.707 9.5575C112.699 9.29968 112.648 9.10437 112.555 8.97156C112.461 8.83093 112.305 8.73718 112.086 8.69031C111.875 8.63562 111.562 8.59265 111.148 8.5614V7.63562C111.617 7.59656 112.062 7.54578 112.484 7.48328C112.914 7.42078 113.312 7.35828 113.68 7.29578C114.047 7.22546 114.375 7.15515 114.664 7.08484C114.961 7.00671 115.211 6.9364 115.414 6.8739L115.894 7.34265V21.3583C115.894 21.6317 115.898 21.8622 115.906 22.0497C115.922 22.2294 115.937 22.3778 115.953 22.495C115.976 22.6044 116.004 22.6864 116.035 22.7411C116.074 22.7958 116.117 22.8348 116.164 22.8583C116.211 22.8817 116.258 22.9012 116.305 22.9169C116.359 22.9247 116.426 22.9208 116.504 22.9052C116.59 22.8895 116.699 22.8622 116.832 22.8231C116.965 22.7762 117.133 22.7059 117.336 22.6122L117.723 23.5848ZM112.73 21.8505V16.8583C112.433 16.4052 112.086 16.0536 111.687 15.8036C111.297 15.5536 110.844 15.4286 110.328 15.4286C109.976 15.4286 109.648 15.4989 109.344 15.6395C109.047 15.7723 108.789 15.9872 108.57 16.2841C108.351 16.5809 108.18 16.9637 108.055 17.4325C107.93 17.9012 107.867 18.4637 107.867 19.12C107.867 19.7216 107.937 20.2606 108.078 20.7372C108.226 21.2059 108.418 21.6044 108.652 21.9325C108.894 22.2528 109.168 22.4989 109.473 22.6708C109.777 22.8427 110.09 22.9286 110.41 22.9286C110.605 22.9286 110.793 22.913 110.973 22.8817C111.152 22.8427 111.332 22.7841 111.512 22.7059C111.699 22.62 111.89 22.5067 112.086 22.3661C112.289 22.2255 112.504 22.0536 112.73 21.8505ZM122.844 23.163C122.961 23.163 123.09 23.1512 123.23 23.1278C123.371 23.1044 123.527 23.0536 123.699 22.9755C123.879 22.8895 124.082 22.7723 124.308 22.6239C124.535 22.4755 124.793 22.2762 125.082 22.0262V19.577C124.668 19.6473 124.316 19.7137 124.027 19.7762C123.746 19.8387 123.508 19.9052 123.312 19.9755C123.117 20.038 122.953 20.1083 122.82 20.1864C122.695 20.2645 122.586 20.3505 122.492 20.4442C122.289 20.6473 122.125 20.8583 122 21.077C121.875 21.2958 121.812 21.5653 121.812 21.8856C121.812 22.1356 121.848 22.3427 121.918 22.5067C121.988 22.6708 122.074 22.8036 122.176 22.9052C122.277 22.9989 122.387 23.0653 122.504 23.1044C122.629 23.1434 122.742 23.163 122.844 23.163ZM130.039 23.6083C129.711 23.8348 129.355 24.0575 128.973 24.2762C128.598 24.4872 128.23 24.6747 127.871 24.8387C127.519 25.0028 127.199 25.1356 126.91 25.2372C126.621 25.3387 126.398 25.3895 126.242 25.3895C125.945 25.3895 125.691 25.2294 125.48 24.9091C125.269 24.5809 125.14 24.1356 125.094 23.5731C124.742 23.9247 124.387 24.2177 124.027 24.452C123.676 24.6864 123.332 24.8739 122.996 25.0145C122.668 25.1552 122.351 25.2528 122.047 25.3075C121.742 25.3622 121.465 25.3895 121.215 25.3895C120.871 25.3895 120.535 25.3309 120.207 25.2137C119.887 25.0966 119.598 24.9208 119.34 24.6864C119.082 24.452 118.875 24.163 118.719 23.8192C118.562 23.4755 118.484 23.077 118.484 22.6239C118.484 22.1161 118.578 21.6825 118.765 21.3231C118.953 20.9559 119.191 20.6278 119.48 20.3387C119.668 20.1512 119.883 19.9716 120.125 19.7997C120.375 19.62 120.707 19.4481 121.121 19.2841C121.535 19.12 122.058 18.9598 122.691 18.8036C123.324 18.6473 124.121 18.495 125.082 18.3466V17.0458C125.082 16.8114 125.058 16.5966 125.012 16.4012C124.973 16.1981 124.898 16.0262 124.789 15.8856C124.687 15.745 124.547 15.6356 124.367 15.5575C124.187 15.4716 123.965 15.4286 123.699 15.4286C123.535 15.4286 123.367 15.4637 123.195 15.5341C123.031 15.5966 122.883 15.6903 122.75 15.8153C122.625 15.9403 122.523 16.0966 122.445 16.2841C122.375 16.4637 122.351 16.6708 122.375 16.9052C122.383 16.952 122.312 17.0145 122.164 17.0927C122.015 17.163 121.824 17.2411 121.59 17.327C121.363 17.4052 121.109 17.4833 120.828 17.5614C120.555 17.6395 120.289 17.7098 120.031 17.7723C119.781 17.827 119.558 17.87 119.363 17.9012C119.168 17.9325 119.039 17.9403 118.976 17.9247L118.695 17.2333C118.89 16.7411 119.195 16.288 119.609 15.8739C120.023 15.452 120.512 15.0887 121.074 14.7841C121.637 14.4716 122.25 14.2294 122.914 14.0575C123.586 13.8778 124.273 13.788 124.976 13.788C125.547 13.788 126.039 13.8661 126.453 14.0223C126.867 14.1708 127.207 14.3778 127.473 14.6434C127.738 14.9012 127.933 15.2098 128.058 15.5692C128.183 15.9208 128.246 16.2958 128.246 16.6942V22.0145C128.246 22.3427 128.289 22.577 128.375 22.7177C128.461 22.8583 128.574 22.9286 128.715 22.9286C128.769 22.9286 128.824 22.9247 128.879 22.9169C128.933 22.9091 129 22.8934 129.078 22.87C129.156 22.8466 129.246 22.8153 129.348 22.7762C129.457 22.7294 129.59 22.6747 129.746 22.6122L130.039 23.6083ZM148.531 21.2411C148.5 21.577 148.461 21.9442 148.414 22.3427C148.375 22.7333 148.332 23.1122 148.285 23.4794C148.246 23.8387 148.203 24.1591 148.156 24.4403C148.117 24.7216 148.082 24.9208 148.051 25.038H136.765V24.0653C137.297 23.9559 137.691 23.8387 137.949 23.7137C138.215 23.5809 138.348 23.4598 138.348 23.3505V11.9716C138.348 11.8778 138.223 11.7606 137.973 11.62C137.73 11.4794 137.328 11.3544 136.765 11.245V10.2723H143.211V11.245C142.68 11.3544 142.281 11.4755 142.015 11.6083C141.758 11.7411 141.629 11.8622 141.629 11.9716V22.6473C141.629 22.788 141.66 22.913 141.723 23.0223C141.793 23.1239 141.91 23.2137 142.074 23.2919C142.238 23.3622 142.461 23.4169 142.742 23.4559C143.023 23.495 143.379 23.5145 143.808 23.5145H145.015C145.375 23.5145 145.676 23.4677 145.918 23.3739C146.168 23.2723 146.387 23.1161 146.574 22.9052C146.762 22.6942 146.93 22.4247 147.078 22.0966C147.234 21.7684 147.394 21.3739 147.558 20.913L148.531 21.2411ZM149.492 25.038V24.0653C150.023 23.9559 150.41 23.8387 150.652 23.7137C150.894 23.5809 151.015 23.4598 151.015 23.3505V17.538C151.015 17.1395 151.012 16.8192 151.004 16.577C151.004 16.327 150.961 16.1356 150.875 16.0028C150.789 15.8622 150.64 15.7606 150.43 15.6981C150.219 15.6356 149.906 15.5848 149.492 15.5458V14.6083C150.226 14.5145 150.902 14.4052 151.519 14.2802C152.137 14.1473 152.734 13.9833 153.312 13.788H154.18V23.3505C154.18 23.4442 154.289 23.5614 154.508 23.702C154.734 23.8348 155.133 23.9559 155.703 24.0653V25.038H149.492ZM154.648 10.2606C154.648 10.5419 154.594 10.7958 154.484 11.0223C154.375 11.2489 154.223 11.4442 154.027 11.6083C153.832 11.7645 153.601 11.8856 153.336 11.9716C153.078 12.0575 152.793 12.1005 152.48 12.1005C152.246 12.1005 152.019 12.077 151.801 12.0302C151.59 11.9755 151.398 11.8934 151.226 11.7841C151.055 11.6669 150.918 11.5223 150.816 11.3505C150.715 11.1786 150.664 10.9755 150.664 10.7411C150.664 10.4598 150.719 10.2059 150.828 9.97937C150.945 9.75281 151.101 9.5614 151.297 9.40515C151.492 9.2489 151.719 9.12781 151.976 9.04187C152.242 8.95593 152.527 8.91296 152.832 8.91296C153.058 8.91296 153.281 8.94031 153.5 8.995C153.719 9.04187 153.91 9.12 154.074 9.22937C154.246 9.33875 154.383 9.47937 154.484 9.65125C154.594 9.81531 154.648 10.0184 154.648 10.2606ZM166.965 7.9989C166.965 8.10046 166.922 8.22156 166.836 8.36218C166.758 8.50281 166.652 8.65125 166.519 8.8075C166.394 8.95593 166.254 9.10828 166.098 9.26453C165.941 9.42078 165.785 9.56531 165.629 9.69812C165.48 9.82312 165.34 9.9364 165.207 10.038C165.074 10.1317 164.969 10.1981 164.89 10.2372C164.515 9.72937 164.156 9.36609 163.812 9.14734C163.469 8.92078 163.164 8.8075 162.898 8.8075C162.695 8.8075 162.508 8.87 162.336 8.995C162.172 9.11218 162.027 9.33093 161.902 9.65125C161.777 9.97156 161.68 10.413 161.609 10.9755C161.547 11.538 161.515 12.2567 161.515 13.1317V14.1395H164.398L164.855 14.5966C164.785 14.7372 164.695 14.8856 164.586 15.0419C164.484 15.1903 164.379 15.3348 164.269 15.4755C164.168 15.6161 164.066 15.745 163.965 15.8622C163.863 15.9794 163.777 16.0692 163.707 16.1317C163.527 16.038 163.273 15.9481 162.945 15.8622C162.617 15.7684 162.14 15.7216 161.515 15.7216V23.3739C161.515 23.4208 161.551 23.4677 161.621 23.5145C161.691 23.5614 161.816 23.6122 161.996 23.6669C162.176 23.7137 162.414 23.7723 162.711 23.8427C163.008 23.9052 163.387 23.9794 163.848 24.0653V25.038H156.828V24.0653C157.367 23.9716 157.754 23.8583 157.988 23.7255C158.23 23.5848 158.351 23.4677 158.351 23.3739V15.7216H157.015L156.652 15.2762L157.566 14.1395H158.351V13.7762C158.351 12.6669 158.504 11.6942 158.808 10.8583C159.113 10.0223 159.582 9.28796 160.215 8.65515C160.527 8.34265 160.848 8.07312 161.176 7.84656C161.504 7.62 161.828 7.4364 162.148 7.29578C162.469 7.14734 162.781 7.04187 163.086 6.97937C163.39 6.90906 163.676 6.8739 163.941 6.8739C164.324 6.8739 164.695 6.92078 165.055 7.01453C165.422 7.10828 165.746 7.21765 166.027 7.34265C166.308 7.45984 166.535 7.58093 166.707 7.70593C166.879 7.83093 166.965 7.92859 166.965 7.9989ZM170.68 15.2528C170.328 15.2528 170.031 15.3231 169.789 15.4637C169.547 15.5966 169.344 15.7919 169.18 16.0497C169.023 16.3075 168.902 16.62 168.816 16.9872C168.73 17.3544 168.672 17.7723 168.64 18.2411H172.18C172.359 18.2411 172.476 18.2137 172.531 18.1591C172.594 18.0966 172.625 17.9833 172.625 17.8192C172.625 17.577 172.59 17.3075 172.519 17.0106C172.457 16.7137 172.348 16.4364 172.191 16.1786C172.043 15.913 171.844 15.6942 171.594 15.5223C171.344 15.3427 171.039 15.2528 170.68 15.2528ZM175.719 18.6278C175.648 18.7059 175.539 18.7958 175.39 18.8973C175.25 18.9911 175.094 19.0848 174.922 19.1786C174.75 19.2723 174.578 19.3622 174.406 19.4481C174.234 19.5341 174.086 19.6005 173.961 19.6473H168.617C168.64 20.1864 168.715 20.6825 168.84 21.1356C168.973 21.5809 169.152 21.9637 169.379 22.2841C169.613 22.5966 169.898 22.8427 170.234 23.0223C170.57 23.1942 170.953 23.2802 171.383 23.2802C171.625 23.2802 171.863 23.2684 172.098 23.245C172.332 23.2137 172.582 23.1512 172.848 23.0575C173.121 22.9637 173.426 22.827 173.762 22.6473C174.105 22.4677 174.512 22.2255 174.98 21.9208C175.027 21.9442 175.086 21.9989 175.156 22.0848C175.226 22.163 175.293 22.2489 175.355 22.3427C175.426 22.4286 175.488 22.5106 175.543 22.5887C175.598 22.6669 175.633 22.7216 175.648 22.7528C175.094 23.2919 174.598 23.7333 174.16 24.077C173.723 24.4208 173.301 24.6903 172.894 24.8856C172.488 25.0809 172.078 25.2137 171.664 25.2841C171.258 25.3544 170.808 25.3895 170.316 25.3895C169.629 25.3895 168.98 25.2567 168.371 24.9911C167.769 24.7177 167.242 24.3387 166.789 23.8544C166.344 23.3622 165.988 22.7762 165.723 22.0966C165.465 21.4169 165.336 20.663 165.336 19.8348C165.336 18.7723 165.527 17.8427 165.91 17.0458C166.301 16.2411 166.894 15.5419 167.691 14.9481C168.129 14.62 168.644 14.3466 169.238 14.1278C169.84 13.9012 170.469 13.788 171.125 13.788C171.89 13.788 172.558 13.913 173.129 14.163C173.707 14.413 174.187 14.7567 174.57 15.1942C174.953 15.6317 175.238 16.1473 175.426 16.7411C175.621 17.327 175.719 17.9559 175.719 18.6278ZM195.383 22.5653C194.383 23.5731 193.39 24.2958 192.406 24.7333C191.43 25.1708 190.48 25.3895 189.558 25.3895C188.746 25.3895 187.957 25.2255 187.191 24.8973C186.433 24.5692 185.758 24.0966 185.164 23.4794C184.578 22.8622 184.105 22.1083 183.746 21.2177C183.394 20.3192 183.219 19.3036 183.219 18.1708C183.219 16.9208 183.41 15.788 183.793 14.7723C184.183 13.7567 184.715 12.8895 185.387 12.1708C186.066 11.4442 186.867 10.8856 187.789 10.495C188.711 10.1044 189.711 9.91296 190.789 9.92078C191.211 9.92078 191.637 9.95203 192.066 10.0145C192.496 10.077 192.906 10.163 193.297 10.2723C193.687 10.3739 194.043 10.495 194.363 10.6356C194.691 10.7762 194.957 10.9286 195.16 11.0927C195.191 11.1161 195.187 11.1942 195.148 11.327C195.117 11.4598 195.062 11.6239 194.984 11.8192C194.906 12.0067 194.816 12.2137 194.715 12.4403C194.613 12.6591 194.508 12.87 194.398 13.0731C194.297 13.2762 194.199 13.4559 194.105 13.6122C194.012 13.7684 193.933 13.8778 193.871 13.9403L192.992 13.7528C192.601 12.9637 192.152 12.4012 191.644 12.0653C191.144 11.7216 190.609 11.5536 190.039 11.5614C189.64 11.5614 189.234 11.6552 188.82 11.8427C188.406 12.0302 188.031 12.3583 187.695 12.827C187.359 13.2958 187.086 13.9286 186.875 14.7255C186.664 15.5145 186.558 16.5184 186.558 17.7372C186.558 18.7216 186.683 19.5653 186.933 20.2684C187.183 20.9637 187.508 21.5341 187.906 21.9794C188.305 22.4247 188.754 22.7528 189.254 22.9637C189.754 23.1747 190.254 23.2802 190.754 23.2802C190.965 23.2802 191.215 23.2606 191.504 23.2216C191.793 23.1747 192.105 23.0927 192.441 22.9755C192.785 22.8583 193.148 22.6981 193.531 22.495C193.922 22.2841 194.316 22.0145 194.715 21.6864C194.754 21.7177 194.805 21.7762 194.867 21.8622C194.937 21.9481 195.004 22.0419 195.066 22.1434C195.137 22.2372 195.199 22.327 195.254 22.413C195.316 22.4911 195.359 22.5419 195.383 22.5653ZM204.933 19.9403C204.933 19.3231 204.879 18.7372 204.769 18.1825C204.668 17.62 204.515 17.1278 204.312 16.7059C204.109 16.2762 203.851 15.9364 203.539 15.6864C203.234 15.4364 202.883 15.3114 202.484 15.3114C202.039 15.3114 201.672 15.4169 201.383 15.6278C201.094 15.8387 200.863 16.1317 200.691 16.5067C200.527 16.8817 200.41 17.327 200.34 17.8427C200.277 18.3505 200.246 18.9012 200.246 19.495C200.246 20.1122 200.305 20.6864 200.422 21.2177C200.547 21.7489 200.715 22.2137 200.926 22.6122C201.144 23.0028 201.402 23.3114 201.699 23.538C202.004 23.7567 202.336 23.8661 202.695 23.8661C203.133 23.8661 203.496 23.7841 203.785 23.62C204.074 23.4481 204.301 23.1981 204.465 22.87C204.637 22.5341 204.758 22.1239 204.828 21.6395C204.898 21.1473 204.933 20.5809 204.933 19.9403ZM208.273 19.3544C208.273 19.8778 208.199 20.3895 208.051 20.8895C207.91 21.3895 207.711 21.8622 207.453 22.3075C207.195 22.7528 206.883 23.1669 206.515 23.5497C206.156 23.9247 205.758 24.2489 205.32 24.5223C204.883 24.7958 204.414 25.0067 203.914 25.1552C203.414 25.3114 202.898 25.3895 202.367 25.3895C201.539 25.3895 200.789 25.2489 200.117 24.9677C199.445 24.6864 198.871 24.2997 198.394 23.8075C197.918 23.3153 197.551 22.7294 197.293 22.0497C197.035 21.37 196.906 20.6317 196.906 19.8348C196.906 19.3192 196.969 18.8114 197.094 18.3114C197.226 17.8114 197.414 17.3387 197.656 16.8934C197.898 16.4403 198.195 16.0262 198.547 15.6512C198.898 15.2684 199.293 14.9403 199.73 14.6669C200.168 14.3934 200.644 14.1786 201.16 14.0223C201.683 13.8661 202.238 13.788 202.824 13.788C203.644 13.788 204.39 13.9286 205.062 14.2098C205.734 14.4911 206.308 14.8817 206.785 15.3817C207.262 15.8739 207.629 16.4598 207.887 17.1395C208.144 17.8192 208.273 18.5575 208.273 19.3544ZM214.039 23.163C214.156 23.163 214.285 23.1512 214.426 23.1278C214.566 23.1044 214.723 23.0536 214.894 22.9755C215.074 22.8895 215.277 22.7723 215.504 22.6239C215.73 22.4755 215.988 22.2762 216.277 22.0262V19.577C215.863 19.6473 215.512 19.7137 215.223 19.7762C214.941 19.8387 214.703 19.9052 214.508 19.9755C214.312 20.038 214.148 20.1083 214.015 20.1864C213.89 20.2645 213.781 20.3505 213.687 20.4442C213.484 20.6473 213.32 20.8583 213.195 21.077C213.07 21.2958 213.008 21.5653 213.008 21.8856C213.008 22.1356 213.043 22.3427 213.113 22.5067C213.183 22.6708 213.269 22.8036 213.371 22.9052C213.473 22.9989 213.582 23.0653 213.699 23.1044C213.824 23.1434 213.937 23.163 214.039 23.163ZM221.234 23.6083C220.906 23.8348 220.551 24.0575 220.168 24.2762C219.793 24.4872 219.426 24.6747 219.066 24.8387C218.715 25.0028 218.394 25.1356 218.105 25.2372C217.816 25.3387 217.594 25.3895 217.437 25.3895C217.14 25.3895 216.887 25.2294 216.676 24.9091C216.465 24.5809 216.336 24.1356 216.289 23.5731C215.937 23.9247 215.582 24.2177 215.223 24.452C214.871 24.6864 214.527 24.8739 214.191 25.0145C213.863 25.1552 213.547 25.2528 213.242 25.3075C212.937 25.3622 212.66 25.3895 212.41 25.3895C212.066 25.3895 211.73 25.3309 211.402 25.2137C211.082 25.0966 210.793 24.9208 210.535 24.6864C210.277 24.452 210.07 24.163 209.914 23.8192C209.758 23.4755 209.68 23.077 209.68 22.6239C209.68 22.1161 209.773 21.6825 209.961 21.3231C210.148 20.9559 210.387 20.6278 210.676 20.3387C210.863 20.1512 211.078 19.9716 211.32 19.7997C211.57 19.62 211.902 19.4481 212.316 19.2841C212.73 19.12 213.254 18.9598 213.887 18.8036C214.519 18.6473 215.316 18.495 216.277 18.3466V17.0458C216.277 16.8114 216.254 16.5966 216.207 16.4012C216.168 16.1981 216.094 16.0262 215.984 15.8856C215.883 15.745 215.742 15.6356 215.562 15.5575C215.383 15.4716 215.16 15.4286 214.894 15.4286C214.73 15.4286 214.562 15.4637 214.39 15.5341C214.226 15.5966 214.078 15.6903 213.945 15.8153C213.82 15.9403 213.719 16.0966 213.64 16.2841C213.57 16.4637 213.547 16.6708 213.57 16.9052C213.578 16.952 213.508 17.0145 213.359 17.0927C213.211 17.163 213.019 17.2411 212.785 17.327C212.558 17.4052 212.305 17.4833 212.023 17.5614C211.75 17.6395 211.484 17.7098 211.226 17.7723C210.976 17.827 210.754 17.87 210.558 17.9012C210.363 17.9325 210.234 17.9403 210.172 17.9247L209.89 17.2333C210.086 16.7411 210.39 16.288 210.805 15.8739C211.219 15.452 211.707 15.0887 212.269 14.7841C212.832 14.4716 213.445 14.2294 214.109 14.0575C214.781 13.8778 215.469 13.788 216.172 13.788C216.742 13.788 217.234 13.8661 217.648 14.0223C218.062 14.1708 218.402 14.3778 218.668 14.6434C218.933 14.9012 219.129 15.2098 219.254 15.5692C219.379 15.9208 219.441 16.2958 219.441 16.6942V22.0145C219.441 22.3427 219.484 22.577 219.57 22.7177C219.656 22.8583 219.769 22.9286 219.91 22.9286C219.965 22.9286 220.019 22.9247 220.074 22.9169C220.129 22.9091 220.195 22.8934 220.273 22.87C220.351 22.8466 220.441 22.8153 220.543 22.7762C220.652 22.7294 220.785 22.6747 220.941 22.6122L221.234 23.6083ZM231.945 22.8114C231.437 23.3817 230.961 23.8387 230.515 24.1825C230.07 24.5184 229.644 24.7762 229.238 24.9559C228.832 25.1356 228.441 25.2528 228.066 25.3075C227.699 25.3622 227.332 25.3895 226.965 25.3895C226.308 25.3895 225.68 25.2645 225.078 25.0145C224.476 24.7567 223.945 24.3895 223.484 23.913C223.031 23.4364 222.668 22.8544 222.394 22.1669C222.121 21.4794 221.984 20.702 221.984 19.8348C221.984 18.9911 222.14 18.202 222.453 17.4677C222.765 16.7333 223.203 16.0966 223.765 15.5575C224.336 15.0106 225.015 14.5809 225.805 14.2684C226.594 13.9481 227.469 13.788 228.43 13.788C228.687 13.788 228.988 13.8114 229.332 13.8583C229.676 13.8973 230.012 13.9598 230.34 14.0458C230.676 14.1239 230.984 14.2216 231.265 14.3387C231.547 14.4481 231.754 14.5731 231.887 14.7137C231.894 14.7762 231.883 14.8973 231.851 15.077C231.82 15.2489 231.773 15.452 231.711 15.6864C231.656 15.913 231.59 16.1591 231.512 16.4247C231.433 16.6825 231.355 16.9286 231.277 17.163C231.199 17.3973 231.121 17.6044 231.043 17.7841C230.973 17.9637 230.914 18.0887 230.867 18.1591L229.965 18.0419C229.816 17.5731 229.664 17.1708 229.508 16.8348C229.351 16.4911 229.18 16.2059 228.992 15.9794C228.805 15.7528 228.598 15.5848 228.371 15.4755C228.144 15.3661 227.89 15.3114 227.609 15.3114C227.289 15.3114 226.98 15.3856 226.683 15.5341C226.387 15.6825 226.125 15.9208 225.898 16.2489C225.672 16.577 225.488 17.0067 225.348 17.538C225.215 18.0614 225.148 18.7059 225.148 19.4716C225.148 20.0809 225.219 20.6239 225.359 21.1005C225.508 21.5692 225.711 21.9677 225.969 22.2958C226.234 22.6161 226.543 22.8622 226.894 23.0341C227.246 23.1981 227.629 23.2802 228.043 23.2802C228.262 23.2802 228.476 23.2684 228.687 23.245C228.898 23.2137 229.125 23.1512 229.367 23.0575C229.617 22.9637 229.89 22.8309 230.187 22.6591C230.492 22.4872 230.848 22.2606 231.254 21.9794L231.945 22.8114ZM240.101 25.038V24.0653C240.664 23.9169 241.058 23.788 241.285 23.6786C241.512 23.5692 241.625 23.4598 241.625 23.3505V18.5575C241.625 18.0809 241.601 17.6864 241.555 17.3739C241.508 17.0614 241.433 16.8153 241.332 16.6356C241.23 16.4481 241.098 16.3192 240.933 16.2489C240.777 16.1708 240.586 16.1317 240.359 16.1317C240.148 16.1317 239.941 16.1591 239.738 16.2137C239.543 16.2606 239.336 16.3309 239.117 16.4247C238.898 16.5106 238.664 16.62 238.414 16.7528C238.164 16.8856 237.887 17.0341 237.582 17.1981V23.3505C237.582 23.4677 237.707 23.5887 237.957 23.7137C238.215 23.8387 238.598 23.9559 239.105 24.0653V25.038H232.894V24.0653C233.41 23.9325 233.793 23.8153 234.043 23.7137C234.293 23.6044 234.418 23.4833 234.418 23.3505V10.2958C234.418 9.96765 234.41 9.71375 234.394 9.53406C234.379 9.34656 234.32 9.20203 234.219 9.10046C234.125 8.9989 233.973 8.92859 233.762 8.88953C233.558 8.84265 233.269 8.79578 232.894 8.7489V7.8114C233.371 7.7489 233.797 7.6864 234.172 7.6239C234.547 7.5614 234.894 7.495 235.215 7.42468C235.535 7.34656 235.84 7.26453 236.129 7.17859C236.418 7.09265 236.719 6.99109 237.031 6.8739L237.582 7.38953V15.4989C238.066 15.1786 238.519 14.9091 238.941 14.6903C239.371 14.4716 239.777 14.2958 240.16 14.163C240.543 14.0302 240.902 13.9364 241.238 13.8817C241.574 13.8192 241.894 13.788 242.199 13.788C242.535 13.788 242.859 13.8427 243.172 13.952C243.484 14.0614 243.758 14.2411 243.992 14.4911C244.234 14.7333 244.426 15.0575 244.566 15.4637C244.715 15.8622 244.789 16.3544 244.789 16.9403V23.3505C244.789 23.4052 244.808 23.4598 244.848 23.5145C244.894 23.5614 244.973 23.6122 245.082 23.6669C245.199 23.7216 245.355 23.7841 245.551 23.8544C245.754 23.9169 246.008 23.9872 246.312 24.0653V25.038H240.101Z" fill="#3B3A64"/>
</svg>
