<svg width="307" height="202" viewBox="0 0 307 202" fill="none" xmlns="http://www.w3.org/2000/svg">
<path d="M169.27 152.617C178.915 148.227 186.118 143.043 193.596 138.307C198.991 134.889 204.084 127.74 211.039 136.428C212.242 137.929 214.199 136.237 215.544 135.208C220.093 131.715 224.626 131.926 228.614 135.84C232.457 139.608 236.014 138.32 239.768 136.074C244.501 133.234 249.207 130.343 253.96 127.547C255.19 126.823 256.668 126.507 257.67 127.863C258.591 129.106 258.224 130.543 257.262 131.613C252.149 137.294 246.067 141.813 239.663 145.893C236.051 148.197 233.089 145.778 230.089 144.188C221.857 139.825 221.863 139.812 215.194 146.335C213.465 148.023 211.766 149.739 210.023 151.421C202.447 158.719 201.648 158.471 198.869 148.006C198.699 147.381 198.302 146.821 197.751 145.699C188.411 151.424 178.708 156.432 170.048 163.18C167.028 165.531 164.123 167.912 162.251 171.354C161.452 172.829 160.586 174.64 158.411 174.021C156.21 173.393 155.058 171.704 154.97 169.428C154.851 166.248 156.04 163.37 157.042 160.414C161.653 146.794 167.35 133.598 173.687 119.549C164.347 120.585 156.189 121.662 148.001 122.342C144.047 122.664 143.024 125.362 141.726 128.246C135.801 141.456 129.577 154.547 124.824 168.252C124.48 169.227 124.29 170.26 123.933 171.228C122.829 174.215 121.525 177.833 117.577 175.999C114.274 174.466 112.919 171.256 114.777 167.294C117.838 160.733 120.679 154.068 123.519 147.408C126.747 139.842 129.879 132.232 133.521 123.507C125.493 121.917 118.497 121.118 111.73 124.108C107.846 125.827 103.888 126.653 99.7941 127.224C98.0546 127.468 95.4182 127.322 95.3978 125.678C95.34 122.202 94.9731 120.103 90.7942 120.055C84.3083 119.98 77.7613 117.194 71.3739 119.868C68.4113 121.108 67.4091 124.543 66.2471 127.4C57.3049 149.454 47.0952 171.021 40.6909 194.05C40.5041 194.715 40.4871 195.483 40.1303 196.034C38.6422 198.293 39.23 203.338 34.6876 201.667C31.0148 200.315 30.7838 196.839 31.9288 192.908C34.1474 185.291 36.3184 177.707 39.4815 170.386C45.6344 156.143 51.5494 141.803 57.4611 127.455C58.3615 125.284 58.7012 122.885 59.4929 119.872C55.5347 118.305 51.7907 118.74 48.2131 119.053C34.4736 120.245 20.6117 119.766 6.95708 122.138C5.94802 122.314 4.86081 122.556 3.89932 122.342C1.62298 121.832 0.413468 120.072 0.263978 117.898C0.107692 115.689 2.0511 115.085 3.72267 114.918C13.3376 113.933 22.956 112.937 32.5913 112.217C41.2006 111.571 49.8337 111.157 58.4634 110.895C61.9594 110.787 64.3139 109.72 65.7001 106.329C68.8326 98.6745 73.5586 91.3495 74.9685 83.4163C76.015 77.5216 78.8791 73.6213 81.3831 68.7628C90.536 51.0074 99.0637 32.8647 104.221 13.3969C104.636 11.8205 104.676 9.67327 106.912 9.66308C108.753 9.66308 109.963 11.1546 110.775 12.7276C112.113 15.3233 111.699 18.0889 111.458 20.8511C110.856 27.7175 110.313 34.5906 109.762 41.457C108.454 57.8228 101.462 71.0527 88.1407 80.8138C87.0467 81.619 85.5144 82.3019 85.0354 83.4027C81.2302 92.1581 75.8043 100.302 74.0274 111.031C86.7851 112.19 98.9957 113.321 111.217 114.398C116.163 114.83 119.625 111.66 123.22 109.047C136.069 99.7379 144.393 86.6133 153.414 73.91C167.065 54.6835 175.96 32.7763 188.938 13.2339C190.606 10.7163 191.208 5.49431 196.141 8.45354C200 10.774 198.679 14.2293 196.807 17.5147C191.017 27.6665 185.568 38.0153 179.585 48.0448C167.343 68.5386 158.605 90.6496 148.355 113.28C159.077 114.887 168.122 112.047 176.904 108.711C180.111 107.498 181.134 103.445 182.564 100.295C194.435 74.1785 208.171 49.0844 224.187 25.2747C228.217 19.278 232.871 13.6959 237.285 7.95072C239.656 4.86238 242.959 2.84766 246.302 1.11153C250.494 -1.06627 253.963 0.639271 254.761 5.18175C255.108 7.13532 254.982 9.41845 254.299 11.2633C246.275 32.8885 239.276 54.9213 229.182 75.7447C220.392 93.867 207.115 107.236 188.055 114.425C186.02 115.193 184.209 116.206 183.237 118.088C177.77 128.702 173.068 139.625 169.27 152.617ZM245.011 12.2588C222.06 40.5736 205.083 70.3529 191.816 102.425C203.643 97.6145 212.157 89.3348 218.558 78.952C228.754 62.4027 234.326 43.7707 241.678 25.9439C243.196 22.2678 245.602 18.6869 245.011 12.2588ZM131.34 114.001C139.314 114.531 139.314 114.531 141.862 102.799C138.206 107.134 133.409 109.04 131.34 114.001Z" fill="#F1642B"/>
<path d="M282.87 133.226C270.354 136.457 268.645 135.421 266.786 123.295C271.808 128.273 277.675 130.005 282.87 133.226Z" fill="#F1642B"/>
<path d="M290.956 133.797C296.063 131.853 299.688 134.925 303.721 134.884C305.613 134.86 306.418 136.61 306.69 138.411C306.969 140.293 306.17 141.716 304.648 142.664C302.96 143.714 301.101 143.191 300.126 141.839C297.795 138.608 293.888 137.001 290.956 133.797Z" fill="#F1642B"/>
</svg>
