<svg width="239" height="62" viewBox="0 0 239 62" fill="none" xmlns="http://www.w3.org/2000/svg">
<path d="M67.9501 31.241C67.8946 31.3759 67.8311 31.5134 67.7676 31.6484C67.7041 31.7833 67.6433 31.905 67.593 32.0135C67.5427 32.1272 67.5057 32.2304 67.466 32.3177C66.9395 33.2807 66.3813 34.1326 65.7861 34.8786C64.5003 36.6934 63.0824 38.3866 61.5347 39.9501C61.2384 40.2358 60.9315 40.5321 60.6194 40.8311C60.3046 41.1353 60.0029 41.4131 59.704 41.6644C59.9976 41.0956 60.3124 40.5321 60.6431 39.9765C60.8072 39.7067 60.9818 39.421 61.1511 39.1432C61.3204 38.8681 61.4977 38.5823 61.6776 38.2966C62.3443 37.3363 63.0003 36.4024 63.6591 35.495C64.3178 34.5876 65.0268 33.7198 65.7861 32.8997C66.0506 32.6166 66.3893 32.2648 66.802 31.8362C67.2173 31.4103 67.6485 31.0717 68.1142 30.8203C68.0639 30.9632 68.0057 31.1061 67.9501 31.241ZM70.019 29.7303C70.0137 29.6827 70.0004 29.6351 69.9819 29.5822C69.9687 29.5346 69.9502 29.4817 69.9369 29.4341C69.8946 29.3044 69.8443 29.1827 69.7887 29.0875C69.5745 28.7356 69.2676 28.5928 68.8523 28.6616C68.3258 28.7489 67.8814 28.897 67.5163 29.114C66.7596 29.5743 66.093 30.1722 65.5163 30.9023C65.085 31.45 64.6697 31.9923 64.2861 32.5293C64.1564 32.7039 64.0294 32.8865 63.9104 33.0637C63.3151 33.8812 62.7384 34.7093 62.1802 35.5479C61.6167 36.3812 61.0585 37.2146 60.5003 38.0347C60.2305 38.4739 59.9659 38.9289 59.6907 39.3813C59.4209 39.8363 59.1432 40.2887 58.8627 40.757C58.3045 41.6776 57.7886 42.6379 57.3309 43.6406C56.3733 44.3523 55.4182 45.0083 54.4605 45.6115C53.0399 46.5031 51.569 47.3523 50.0134 47.929C48.6351 48.4396 46.7938 48.9713 45.4657 48.0375C45.3916 47.9846 45.3175 47.9264 45.2461 47.8655C45.1403 47.7782 45.0451 47.6909 44.9631 47.6036C44.9525 47.6354 44.9339 47.6645 44.9128 47.6962L44.2567 48.6459C44.4948 48.8761 44.7699 49.0587 45.0715 49.1936C45.5424 49.3973 46.0292 49.5322 46.5451 49.5931C47.8758 49.7518 49.2038 49.4105 50.471 48.9555C52.0134 48.4026 53.5002 47.6301 54.8865 46.7279C55.1272 46.5718 55.368 46.4131 55.6061 46.2517C55.7198 46.1724 55.8362 46.093 55.95 46.0136C56.0241 45.9634 56.2542 45.8576 56.2912 45.7729C55.9261 46.6274 55.6325 47.4819 55.3997 48.3338C55.3071 48.728 55.2383 49.146 55.2066 49.5931C55.188 49.8444 55.188 50.0825 55.2198 50.3047C55.2383 50.482 55.2753 50.6566 55.3256 50.8206C55.4129 51.0984 55.5505 51.3418 55.7384 51.5375C55.8018 51.6037 55.8706 51.6671 55.9473 51.728C56.241 51.9582 56.6352 52.0376 57.1325 51.9714C57.696 51.9291 58.2357 51.8021 58.7622 51.5719C59.2939 51.3339 59.8336 51.1169 60.3998 50.9L66.13 48.6063C66.1803 48.5851 66.2252 48.5587 66.2755 48.5296C66.3125 48.5111 66.3575 48.4819 66.3946 48.4555C66.4448 48.4211 66.4951 48.3894 66.5506 48.347C66.22 48.429 65.9607 48.3285 65.7623 48.0428C65.548 47.7386 65.6353 47.4819 66.0321 47.2703L66.0797 47.2438C65.9871 47.2703 65.8866 47.3126 65.7861 47.3734C65.4236 47.5904 65.1088 47.7306 64.8443 47.8047C63.9236 48.2333 62.9818 48.6248 62.0294 48.9766C61.0691 49.3364 60.0982 49.6195 59.114 49.8312C59.0453 49.8708 58.8945 49.892 58.6669 49.9132C58.4368 49.9317 58.1855 49.9581 57.9209 49.9925C57.6273 50.0269 57.2939 50.0825 56.9315 50.1566C56.9183 50.0825 56.905 50.0137 56.8918 49.9449C56.8812 49.8788 56.8733 49.81 56.868 49.7359C56.8309 49.3973 56.8362 49.0507 56.8865 48.6856C56.9182 48.429 56.9605 48.1724 57.0188 47.9079C57.0743 47.6433 57.1431 47.3734 57.2304 47.1089C57.3124 46.8443 57.4024 46.5798 57.4949 46.3285C57.5902 46.0718 57.6881 45.8285 57.7966 45.5851C57.8521 45.4634 57.9077 45.3417 57.9579 45.2253C58.0082 45.1115 58.0584 44.9951 58.1034 44.8814C58.1987 44.6565 58.286 44.4343 58.368 44.2226C60.249 42.7279 62.0056 41.1009 63.6353 39.3416C64.2438 38.6776 64.839 38.0003 65.4025 37.3019C65.7861 36.8363 66.1512 36.3601 66.5136 35.8812C66.8707 35.3997 67.2173 34.913 67.5612 34.4103C67.7305 34.159 67.8999 33.9103 68.0639 33.6511C68.1829 33.4632 68.3337 33.2516 68.5136 33.0161C68.5718 32.9421 68.6327 32.8521 68.7015 32.7727C68.7227 32.7515 68.7332 32.7251 68.7597 32.7039C68.7703 32.6775 68.7914 32.6511 68.8099 32.6299C68.9978 32.3786 69.1803 32.1219 69.3496 31.8521C69.3602 31.823 69.3787 31.7965 69.3999 31.7754C69.4105 31.7489 69.429 31.7277 69.4422 31.7013C69.5613 31.5134 69.6618 31.3283 69.7491 31.1404C69.794 31.0505 69.8311 30.9579 69.8681 30.8626C69.8866 30.815 69.9079 30.7674 69.9184 30.7198C69.937 30.6722 69.9502 30.6245 69.9634 30.5769C69.9766 30.5425 69.9872 30.5108 69.9951 30.4685C70.0004 30.4341 70.0136 30.4023 70.0136 30.368C70.0268 30.3468 70.0268 30.3203 70.0268 30.2939C70.0559 30.1113 70.0507 29.9208 70.019 29.7303Z" fill="#3B3A64"/>
<path d="M139.636 12.5979C139.536 12.7804 139.435 12.9577 139.327 13.1402C138.938 13.8043 138.52 14.4656 138.091 15.1111C137.12 16.553 136.068 17.9075 135.012 19.0371C134.983 18.9842 134.956 18.9234 134.925 18.8678C134.8 18.6376 134.668 18.4075 134.523 18.1773C134.493 18.1297 134.462 18.0821 134.435 18.0345C134.279 17.799 134.115 17.5609 133.946 17.3255C133.946 17.3176 133.935 17.3123 133.935 17.3123C133.79 17.1086 133.639 16.8969 133.483 16.6958C133.395 16.5874 133.306 16.4709 133.218 16.3572C133.157 16.2805 133.099 16.2011 133.038 16.127C132.938 15.9974 132.829 15.8546 132.724 15.7117C132.7 15.68 132.673 15.6456 132.649 15.6112C132.417 15.299 132.192 14.9604 131.983 14.6085C131.946 14.5556 131.914 14.5 131.882 14.4471C131.753 14.209 131.626 13.9657 131.52 13.7143C131.488 13.6482 131.456 13.5794 131.433 13.5132C131.356 13.3228 131.287 13.1402 131.237 12.9498C131.187 12.7937 131.149 12.6323 131.123 12.4682C131.086 12.2857 131.062 12.0979 131.054 11.9127C131.044 11.6428 131.054 11.3651 131.105 11.0952L131.155 11.082L131.324 11.0476L131.813 10.9392V10.9259L131.803 10.8651L131.758 10.6058C131.753 10.5873 131.753 10.5741 131.753 10.5529C131.753 10.5529 131.753 10.5529 131.753 10.545C131.731 10.4497 131.721 10.3571 131.708 10.2539C131.382 7.57931 132.649 4.70097 134.792 3.30677C134.906 3.2327 135.02 3.16388 135.139 3.08981C135.697 2.74324 136.316 2.35966 136.668 1.76177C137.509 2.9602 138.343 4.20626 138.964 5.56871C139.623 7.03169 139.948 8.48143 139.904 9.80684C139.904 9.99732 139.893 10.1878 139.867 10.3704V10.3968L139.853 10.5132L139.835 10.709L140.544 10.8651C140.269 11.4338 139.967 12.0079 139.647 12.5847C139.642 12.5899 139.636 12.5979 139.636 12.5979ZM141.197 10.3571C141.139 10.2751 140.639 10.037 140.538 10.119C140.525 10.1323 140.52 10.1402 140.52 10.1587C140.52 10.119 140.525 10.0926 140.525 10.0503V10.0449C140.607 8.5555 140.269 6.90998 139.523 5.26974C138.8 3.67977 137.803 2.25648 136.845 0.88874L136.443 0.319949L136.292 1.01838C136.142 1.6877 135.47 2.10041 134.824 2.49988C134.705 2.57396 134.586 2.65068 134.467 2.72475C133.268 3.51048 132.321 4.70889 131.731 6.07663C131.104 7.52639 131.086 8.86505 131.081 10.41C130.975 10.4312 130.692 10.418 130.61 10.5053C130.485 10.627 130.496 11.082 130.491 11.2566C130.448 11.9127 130.522 12.5767 130.705 13.2064C131.062 14.4656 131.784 15.5715 132.56 16.5583C133.708 18.0213 134.761 19.471 135.038 21.0081C135.057 21.143 135.075 21.2726 135.094 21.4075C135.094 21.4208 135.094 21.4419 135.102 21.4552C135.12 21.5848 135.139 21.7118 135.157 21.8414L135.739 21.8494C135.739 21.5584 135.721 21.2673 135.671 20.9816C135.665 20.934 135.66 20.8811 135.647 20.8335C135.57 20.434 135.451 20.0478 135.3 19.6668C135.258 19.5583 136.993 17.717 137.171 17.5001C137.761 16.7435 138.319 15.9578 138.845 15.1429C139.385 14.3175 139.893 13.4657 140.361 12.59C140.581 12.1852 140.75 11.7434 140.941 11.3254C141.06 11.0529 141.404 10.6481 141.197 10.3571Z" fill="#3B3A64"/>
<path d="M131.224 11.1401L130.737 10.7116C131.16 10.1534 131.919 10.2354 132.327 10.283C135.052 10.5899 137.779 10.3862 140.438 9.67186L140.589 10.328C137.859 11.0608 135.057 11.2724 132.261 10.9549C131.861 10.9126 131.417 10.8835 131.224 11.1401Z" fill="#3B3A64"/>
<path d="M131.658 10.8915C131.935 9.79094 132.488 8.77506 132.938 7.72743C133.155 7.22477 133.332 6.69829 133.446 6.1586C133.496 5.91521 133.517 5.64537 133.533 5.39139C133.546 5.13742 133.52 4.83848 133.594 4.59773C133.758 4.62948 133.8 4.94431 133.853 5.08452C133.927 5.275 133.986 5.47344 134.033 5.6745C134.128 6.08456 134.179 6.50521 134.184 6.92849C134.192 7.783 134.015 8.6375 133.671 9.40471C133.472 9.84651 133.221 10.2592 132.925 10.6296L131.658 10.8915Z" fill="#3B3A64"/>
<path d="M138.758 12.455L138.205 13.254C137.991 13.4233 137.779 13.5874 137.573 13.7435L138.933 11.881C139.002 11.7857 139.078 11.6826 139.152 11.59C139.359 11.4392 139.573 11.291 139.779 11.1429C139.385 11.5476 139.057 12.0212 138.758 12.455ZM137.771 14.7382L138.544 13.6138C138.658 13.5186 138.777 13.4233 138.888 13.3228C138.539 13.8096 138.16 14.2831 137.771 14.7382ZM136.261 14.717C135.816 15.0635 135.382 15.4286 134.994 15.8413L136.388 13.9048C136.824 13.4842 137.277 13.0847 137.734 12.6931L136.261 14.717ZM136.856 12.4418C136.832 12.4762 136.806 12.5106 136.782 12.5424C136.737 12.5768 136.695 12.6191 136.644 12.6588C136.718 12.5847 136.787 12.5159 136.856 12.4418ZM133.369 15.7064C133.263 15.8202 133.181 15.8625 133.176 15.8678C133.168 15.8546 133.168 15.8149 133.187 15.7884C133.232 15.7117 133.337 15.6456 133.438 15.59C133.456 15.5715 133.483 15.5583 133.507 15.5424C133.464 15.598 133.419 15.6509 133.369 15.7064ZM140.375 10.6482C140.369 10.6535 140.356 10.6614 140.343 10.6667L140.263 10.4101L140.224 10.2804C140.099 10.2963 139.98 10.3228 139.867 10.3704C139.716 10.4233 139.578 10.5053 139.446 10.6005C139.446 10.6058 139.441 10.6059 139.441 10.6059C139.377 10.6535 139.316 10.7011 139.258 10.7566L139.189 10.6614L139.015 10.3968C138.8 10.5132 138.599 10.6482 138.412 10.7963C138.16 10.9868 137.922 11.2037 137.703 11.4339C137.848 11.2434 137.98 11.0477 138.11 10.844C138.142 10.8043 138.168 10.7619 138.192 10.7222L137.861 10.3757C137.623 10.5582 137.404 10.7566 137.184 10.9656L137.176 10.9735C136.486 11.6296 135.89 12.3942 135.322 13.1667C134.737 13.6138 134.105 14.0001 133.446 14.2964C133.533 14.1615 133.621 14.0265 133.716 13.8836C134.774 13.2011 135.689 12.2593 136.375 11.1429L136.292 11.0476L136.06 10.7831C135.909 10.8783 135.758 10.9736 135.615 11.082C134.933 11.5821 134.348 12.2117 133.827 12.8969C134.041 12.5291 134.285 12.1508 134.581 11.8387L135.396 11.2222L135.327 11.0873L135.171 10.7831C134.988 10.8651 134.819 10.9736 134.663 11.1005C134.523 11.2037 134.398 11.3175 134.274 11.4471L133.959 11.6905C134.004 11.5344 134.041 11.373 134.073 11.217L133.909 11.0873L133.904 11.082L133.721 10.9444C133.665 10.9868 133.602 11.0265 133.539 11.0661C133.195 11.3042 132.83 11.5477 132.48 11.8122C132.605 11.5556 132.729 11.2831 132.829 11.0132C132.856 10.9524 132.88 10.8916 132.898 10.8307L132.724 10.6667L132.568 10.5185C132.43 10.6005 132.303 10.6878 132.171 10.7831C132.11 10.8307 132.046 10.8836 131.983 10.9312C131.639 11.2169 131.324 11.5476 131.054 11.9127C130.975 12.0212 130.898 12.1376 130.824 12.2514L131.123 12.4683L131.213 12.5371C131.464 12.1376 131.771 11.7725 132.123 11.4657C131.872 11.9895 131.576 12.4895 131.237 12.9498C131.218 12.9842 131.195 13.0185 131.168 13.0503C131.094 13.1455 131.017 13.2408 130.943 13.344L131.314 13.6614C131.351 13.6138 131.388 13.5582 131.433 13.5133C131.464 13.4656 131.493 13.4233 131.533 13.3757C132.073 12.7196 132.755 12.2038 133.446 11.7302C133.388 11.8995 133.319 12.0688 133.237 12.2249L132.152 13.0503C132.009 13.1588 131.702 13.389 131.52 13.7144C131.425 13.8969 131.364 14.1085 131.401 14.3519L131.74 14.5345C131.79 14.508 131.84 14.4815 131.882 14.4472C132.229 14.2434 132.541 13.9868 132.824 13.6826C132.769 13.7752 132.71 13.8652 132.655 13.9525C132.39 14.1218 132.147 14.3307 131.983 14.6085C131.927 14.7117 131.877 14.8122 131.845 14.9286L132.221 15.2038C132.242 15.1852 132.261 15.172 132.279 15.1509C132.197 15.2937 132.147 15.4498 132.128 15.6032L132.56 15.7673C132.591 15.7117 132.623 15.6667 132.65 15.6112C132.75 15.4551 132.843 15.2937 132.938 15.1297C133.099 15.0027 133.3 14.9128 133.507 14.8255L133.602 14.7778C133.877 14.6562 134.147 14.5133 134.412 14.3652C134.015 14.635 133.615 14.8943 133.208 15.143C133.068 15.225 132.898 15.3334 132.792 15.516C132.761 15.5715 132.737 15.6377 132.724 15.7117C132.679 15.9154 132.724 16.1456 132.898 16.2752C132.993 16.3493 133.107 16.3757 133.218 16.3572C133.377 16.336 133.546 16.2355 133.708 16.0503C134.091 15.6244 134.449 15.172 134.787 14.7117C134.906 14.6218 135.025 14.5424 135.144 14.4524C134.774 14.8466 134.412 15.2514 134.06 15.6667C133.835 15.9366 133.565 16.2964 133.483 16.6959C133.438 16.8837 133.433 17.0742 133.496 17.2779L133.904 17.3572L133.935 17.3123L133.972 17.2567C133.959 17.2779 133.954 17.3044 133.946 17.3255C133.835 17.5901 133.766 17.8864 133.803 18.2038L134.224 18.3281L134.435 18.0345L136.576 15.1033L136.586 15.09C136.832 14.8996 137.07 14.725 137.314 14.5477L135.859 16.6614C135.779 16.7276 135.697 16.8043 135.615 16.8705L135.533 16.9392C135.282 17.1482 135.025 17.3652 134.814 17.6509C134.687 17.8202 134.586 17.9948 134.523 18.1774C134.435 18.4022 134.404 18.6324 134.422 18.8546L134.843 18.9843L134.925 18.8678L136.205 17.0133C136.869 16.4234 137.504 15.7884 138.091 15.1112C138.594 14.5344 139.07 13.926 139.509 13.2884L139.327 13.1402L139.203 13.0371C139.353 12.8968 139.496 12.754 139.636 12.5979C139.636 12.5979 139.642 12.59 139.647 12.5847C140.076 12.1164 140.443 11.582 140.713 10.9735L140.375 10.6482Z" fill="#3B3A64"/>
<path d="M153.481 60.8393C153.47 60.8684 153.446 60.8896 153.425 60.9107C153.277 61.0483 153.113 61.2414 152.92 61.3049C152.809 61.3393 152.698 61.3076 152.587 61.2811C152.465 61.2547 152.417 61.1726 152.335 61.0747C152.192 60.9001 152.052 60.7255 151.909 60.5483C151.626 60.1964 151.346 59.8419 151.068 59.4822C150.515 58.7652 149.973 58.035 149.441 57.2969C148.912 56.5561 148.393 55.8048 147.888 55.0429C147.38 54.281 146.888 53.5085 146.406 52.7254C145.925 51.9424 145.459 51.1513 145.004 50.3497C144.549 49.5481 144.107 48.7386 143.679 47.9185C143.248 47.101 142.832 46.273 142.433 45.437C142.031 44.601 141.642 43.7597 141.266 42.9079C140.893 42.0586 140.533 41.2015 140.187 40.3364C139.84 39.4713 139.507 38.6009 139.189 37.7252C138.872 36.8496 138.57 35.9686 138.282 35.0797C137.994 34.1934 137.719 33.3019 137.462 32.4024C137.203 31.5082 136.959 30.6061 136.732 29.7013C136.504 28.7965 136.29 27.8865 136.092 26.9738C135.896 26.0637 135.713 25.1484 135.549 24.2304C135.406 23.4367 135.274 22.6404 135.155 21.844C135.136 21.7144 135.118 21.5848 135.1 21.4578C135.092 21.4446 135.092 21.4234 135.092 21.4102C135.073 21.2752 135.054 21.1456 135.036 21.0107C135.031 20.971 135.023 20.9287 135.017 20.889C135.017 20.889 135.644 20.8335 135.65 20.8335C135.658 20.8811 135.663 20.9366 135.668 20.9842C135.798 21.9075 135.943 22.8282 136.102 23.7462C136.264 24.6642 136.441 25.5796 136.634 26.4923C136.827 27.405 137.036 28.3151 137.258 29.2198C137.483 30.1272 137.724 31.0293 137.978 31.9262C138.234 32.823 138.504 33.7172 138.787 34.6035C139.073 35.4924 139.375 36.3734 139.69 37.2517C140.002 38.1273 140.332 38.9977 140.676 39.8628C141.02 40.7279 141.377 41.5851 141.75 42.4369C142.121 43.2861 142.507 44.1301 142.906 44.9661C143.306 45.802 143.721 46.6301 144.147 47.4502C144.576 48.2677 145.015 49.0799 145.47 49.8815C145.922 50.6804 146.391 51.4741 146.869 52.2571C147.348 53.0402 147.843 53.8128 148.348 54.5747C148.854 55.3366 149.37 56.0879 149.901 56.8287C150.43 57.5668 150.973 58.2969 151.528 59.0139C151.888 59.5324 152.301 60.0059 152.692 60.4954C152.716 60.5298 152.751 60.5642 152.79 60.5615C152.817 60.5589 152.838 60.5377 152.859 60.5192C152.922 60.4583 152.986 60.4001 153.049 60.3393C153.065 60.3234 153.084 60.3076 153.105 60.3049C153.142 60.2996 153.174 60.334 153.198 60.3684C153.277 60.4795 153.359 60.5933 153.441 60.7044C153.465 60.7388 153.491 60.7784 153.481 60.8393Z" fill="#3B3A64"/>
<path d="M143.806 36.577C143.692 36.7887 143.581 36.9977 143.467 37.2146C143.105 37.8839 142.721 38.5956 142.414 39.3337C142.232 39.7728 142.075 40.2199 141.962 40.675C141.906 40.458 141.848 40.2411 141.798 40.0321C141.792 40.0242 141.792 40.0242 141.798 40.0189C141.71 39.6723 141.628 39.3337 141.56 39.0083C140.864 35.6987 140.901 32.6696 141.66 30.0161C142.2 28.1404 143.123 26.3996 144.139 24.6509C144.314 25.471 144.578 26.27 144.827 27.0557C145.306 28.5108 145.75 29.8865 145.687 31.3362C145.605 33.1431 144.726 34.823 143.874 36.4421L143.806 36.577ZM144.351 36.9104L144.419 36.7728C145.311 35.0876 146.226 33.3415 146.314 31.3706C146.382 29.7859 145.893 28.2806 145.417 26.8256C145.091 25.8097 144.747 24.7594 144.607 23.7038L144.031 23.5689C142.827 25.5928 141.697 27.5981 141.065 29.8124C140.269 32.5823 140.232 35.7304 140.951 39.1591C141.16 40.1591 141.449 41.2358 141.811 42.4025V42.4078C141.874 42.6036 141.938 42.802 142.007 43.0057V43.011C142.496 44.5216 143.11 46.1539 143.843 47.8999C143.912 48.0692 143.988 48.2333 144.057 48.4026L144.528 48.1645L144.628 48.1168C144.509 47.8338 144.388 47.556 144.277 47.2782C144.277 47.2571 144.269 47.2439 144.258 47.2227C144.232 47.1618 144.2 47.1089 144.181 47.0481C144.181 47.0402 144.176 47.0348 144.176 47.0269C143.462 45.2994 142.877 43.6962 142.414 42.2253C142.351 40.6273 143.192 39.0638 144.007 37.5532C144.126 37.3363 144.24 37.1194 144.351 36.9104Z" fill="#3B3A64"/>
<path d="M142.121 40.8312C141.954 40.8312 141.816 40.6909 141.808 40.5084C141.665 36.7438 142.306 32.921 143.66 29.45C143.726 29.2781 143.912 29.1987 144.07 29.2702C144.232 29.3442 144.306 29.5426 144.237 29.7146C142.92 33.0929 142.295 36.8152 142.435 40.4793C142.441 40.6671 142.308 40.8232 142.134 40.8312C142.131 40.8312 142.126 40.8312 142.121 40.8312Z" fill="#3B3A64"/>
<path d="M143.822 47.9C143.652 47.9 143.486 47.7968 143.404 47.6222C140.779 42.0587 137.557 36.8179 133.824 32.0427C133.657 31.8284 133.681 31.5083 133.88 31.3284C134.081 31.1458 134.377 31.1749 134.544 31.3892C138.322 36.2226 141.583 41.5269 144.242 47.1593C144.359 47.4106 144.266 47.7175 144.036 47.8445C143.967 47.8815 143.893 47.9 143.822 47.9Z" fill="#3B3A64"/>
<path d="M43.3335 47.6434C43.1722 47.9609 42.9711 48.2466 42.7383 48.4979L41.9975 49.2969C41.3706 49.9054 40.6695 50.3128 39.897 50.5271C39.1192 50.7387 38.3044 50.7784 37.4499 50.6355C36.9869 50.5614 36.7805 50.3392 36.8308 49.9662C36.8811 49.5932 37.0372 49.1937 37.3017 48.7678C37.5636 48.3339 37.8705 47.9291 38.2171 47.5349C38.561 47.1434 38.7991 46.8788 38.9314 46.736C39.5266 46.2016 40.1906 45.7545 40.9314 45.4026C41.6774 45.0428 42.5055 44.8339 43.434 44.7598C43.1721 45.1513 43.0451 45.6116 43.0637 46.146C43.0769 46.6831 43.1722 47.1831 43.3335 47.6434ZM45.2092 44.1698C44.9844 43.9926 44.7515 43.9264 44.5187 43.9582C44.5875 43.601 44.487 43.3153 44.2251 43.1063C43.7912 42.8206 43.315 42.7465 42.7886 42.8894C42.2621 43.0322 41.7859 43.228 41.352 43.4793C40.2674 44.109 39.2753 44.8947 38.3652 45.7889C38.3546 45.7942 38.3467 45.8021 38.3414 45.8074C38.1033 46.0376 37.8705 46.2757 37.6456 46.5191C37.3123 46.8789 36.9684 47.3259 36.6033 47.8524C36.4922 48.0296 36.3784 48.1989 36.2832 48.3815C36.0715 48.7466 35.9022 49.1276 35.7647 49.5138C35.5689 50.0826 35.5266 50.6223 35.6456 51.1382C35.7567 51.6593 36.1456 52.072 36.8043 52.3974C37.3308 52.6408 37.889 52.7361 38.4869 52.662C39.0821 52.5932 39.6456 52.4239 40.1906 52.1541C40.7382 51.8895 41.2568 51.5588 41.7541 51.1646C42.2435 50.7784 42.688 50.3868 43.0822 49.9926L44.1748 48.7678L44.2568 48.646L44.9129 47.6963C44.9341 47.6646 44.9526 47.6355 44.9632 47.6037C45.3018 47.027 45.5293 46.4317 45.6537 45.8285C45.7859 45.1857 45.6405 44.6354 45.2092 44.1698Z" fill="#3B3A64"/>
<path d="M55.2067 49.5931C55.2384 49.1461 55.3072 48.7281 55.3998 48.3339C55.2993 48.7281 55.2385 49.1461 55.1988 49.5931C55.1803 49.8445 55.1882 50.0826 55.2199 50.3048C55.1882 50.0826 55.1882 49.8445 55.2067 49.5931ZM63.9052 33.0638C63.3153 33.8813 62.7385 34.7093 62.175 35.548C61.6168 36.3813 61.0507 37.2147 60.4925 38.0348C60.2306 38.4739 59.9607 38.929 59.6909 39.3814C59.966 38.929 60.2306 38.4739 60.5005 38.0348C61.0587 37.2147 61.6169 36.3813 62.1804 35.548C62.7386 34.7093 63.3153 33.8813 63.9105 33.0638C64.0296 32.8866 64.1566 32.704 64.2862 32.5294C64.1566 32.704 64.0296 32.8866 63.9052 33.0638ZM67.0217 47.6778C66.9979 47.6037 66.9476 47.527 66.8656 47.4476C66.8286 47.4053 66.7783 47.3656 66.728 47.3259C66.6963 47.3048 66.6645 47.2836 66.6328 47.2703C66.601 47.2571 66.5693 47.2439 66.5402 47.236C66.5084 47.2228 66.4688 47.2175 66.4397 47.2095C66.4 47.2042 66.3709 47.2042 66.3312 47.2042C66.2703 47.2042 66.1936 47.2095 66.1249 47.2307C66.1116 47.236 66.1063 47.236 66.0931 47.236C66.0878 47.2439 66.0878 47.2439 66.0799 47.2439L66.0323 47.2703C65.6354 47.482 65.5481 47.7386 65.7624 48.0429C65.9608 48.3286 66.2201 48.4291 66.5508 48.3471C66.6592 48.281 66.7651 48.199 66.8788 48.0984C66.9026 48.0773 66.9264 48.0561 66.9476 48.0217C66.9846 47.9741 67.0164 47.9291 67.027 47.8735C67.0481 47.8127 67.0482 47.7439 67.0217 47.6778ZM67.7625 31.6484C67.6937 31.7834 67.6434 31.9051 67.5931 32.0135C67.6434 31.9051 67.7042 31.7834 67.7677 31.6484C67.8312 31.5135 67.8947 31.376 67.9503 31.2411C67.8947 31.376 67.8312 31.5135 67.7625 31.6484Z" fill="#3B3A64"/>
<path d="M85.5934 31.3574C85.3474 31.2806 85.1225 31.2489 84.9267 31.2489C83.7733 31.0717 82.6012 31.0188 81.416 31.0849C80.9822 31.159 80.5298 31.2542 80.0536 31.3838C79.5774 31.5055 79.1197 31.6749 78.6938 31.8918C78.2679 32.1008 77.879 32.3786 77.5325 32.7172C77.1885 33.0558 76.9319 33.4553 76.7678 33.9156C76.6303 34.3442 76.7493 34.7014 77.1118 34.9871C77.4768 35.2702 77.8207 35.2702 78.1488 34.9871C78.4107 34.7701 78.6118 34.4844 78.744 34.1325C78.8763 33.7754 79.1065 33.4897 79.4346 33.2807C80.2626 32.6696 81.1885 32.3442 82.2309 32.2913C83.2653 32.2357 84.2627 32.3177 85.223 32.5294C85.3844 32.569 85.5352 32.5214 85.6675 32.3997C85.7998 32.2701 85.8818 32.1219 85.9109 31.9394C85.9505 31.6193 85.8421 31.4235 85.5934 31.3574ZM81.8605 47.3735C81.7653 47.183 81.5404 47.1221 81.1833 47.2174C81.1463 47.2227 81.1092 47.2306 81.0695 47.2438C80.6383 47.3655 80.1674 47.5613 79.6594 47.8258C79.1462 48.0983 78.6621 48.3735 78.1991 48.6592C77.7388 48.9423 77.4266 49.1195 77.2573 49.1936C76.699 49.4053 76.0774 49.6195 75.4081 49.8312C74.7308 50.0481 74.1091 50.1142 73.5509 50.0481C73.2546 49.6195 73.1937 49.0666 73.3736 48.3894C73.5561 47.7121 73.744 47.1433 73.9451 46.683C74.0456 46.3629 74.2017 46.0375 74.416 45.72C74.6303 45.4025 74.7678 45.0772 74.8366 44.7597C74.9371 44.1909 74.8181 43.8576 74.4901 43.7703C74.1594 43.683 73.7651 43.6883 73.3074 43.7967C72.8418 43.9052 72.371 44.0665 71.8948 44.2782C71.4186 44.4951 71.1116 44.6353 70.9794 44.7041L66.0931 47.2359C66.0878 47.2439 66.0878 47.2438 66.0799 47.2438L66.0323 47.2703C65.6354 47.4819 65.5481 47.7386 65.7624 48.0428C65.9608 48.3285 66.2201 48.4291 66.5508 48.347C66.5772 48.347 66.6011 48.3418 66.6275 48.3338C67.2228 47.982 67.8127 47.6645 68.4079 47.3735C69.0984 47.019 69.8075 46.7094 70.535 46.4449C71.2625 46.1751 72.0006 45.8814 72.7598 45.5586C72.5588 46.2015 72.371 46.9052 72.1885 47.6698C72.0086 48.437 71.9185 49.146 71.9185 49.8047C71.9185 50.4661 72.0508 51.0084 72.3154 51.4344C72.5773 51.8629 73.0561 52.0244 73.744 51.9159C74.5429 51.7757 75.3075 51.5164 76.0456 51.1381C76.7863 50.7651 77.5219 50.3867 78.2468 49.9926C78.379 49.9185 78.6753 49.7889 79.1383 49.5931C79.6039 49.3973 80.0536 49.1804 80.5007 48.9502C80.7944 48.8021 81.0589 48.6328 81.2837 48.4555C81.4028 48.3682 81.5086 48.273 81.6092 48.1777C81.9108 47.8947 81.9928 47.6221 81.8605 47.3735Z" fill="#3B3A64"/>
<path d="M101.297 47.4C101.096 47.1698 100.863 47.1275 100.602 47.2703C100.305 47.4476 99.9983 47.609 99.6834 47.7518C99.3713 47.8947 99.038 48.0032 98.6756 48.0693C98.3105 48.2122 97.911 48.3471 97.4639 48.4688C97.0194 48.5984 96.5618 48.6989 96.1041 48.7889C95.6385 48.8815 95.1888 48.9158 94.7417 48.8973C94.2972 48.8814 93.8765 48.7809 93.4823 48.6063C93.9083 48.2121 94.3025 47.8047 94.6676 47.3735C95.03 46.9449 95.3448 46.4846 95.6067 45.9899C95.8025 45.5984 95.9215 45.1724 95.9532 44.7041C95.985 44.2438 95.7522 43.9396 95.2628 43.7968C94.8316 43.6539 94.4216 43.7279 94.0274 44.0137C93.6252 44.2967 93.2998 44.5825 93.0379 44.8656C92.5723 45.3682 92.2469 45.9158 92.0458 46.519C91.85 47.1275 91.7813 47.7121 91.8501 48.2862L91.4056 48.6592C91.2733 48.7677 90.9427 48.9979 90.4162 49.3497C89.8871 49.7095 89.35 50.0005 88.8103 50.2307C88.2627 50.4661 87.8182 50.5561 87.4743 50.5006C87.1277 50.4476 87.0669 50.0614 87.2971 49.3497C87.3976 49.1064 87.4981 48.855 87.5933 48.6063C87.6939 48.355 87.805 48.1249 87.9452 47.9079C88.2071 47.4476 88.477 47.0005 88.7601 46.5746C89.0352 46.146 89.3606 45.7412 89.7177 45.347C89.85 45.2386 89.9956 45.0984 90.1384 44.9211C90.2892 44.7439 90.4162 44.5613 90.5141 44.3867C90.6093 44.2094 90.6463 44.0269 90.6092 43.8497C90.5775 43.6751 90.4268 43.4978 90.1649 43.3152C89.9003 43.1406 89.6119 43.1327 89.2997 43.2888C88.9849 43.4502 88.6966 43.601 88.4321 43.7438C87.2178 44.3126 85.9928 44.8999 84.7758 45.511C83.5906 46.093 82.4002 46.6618 81.1833 47.2174C81.1462 47.2359 81.1013 47.2518 81.0642 47.2703C80.7388 47.4476 80.6383 47.7307 80.7705 48.1248C80.9134 48.3735 81.0827 48.4899 81.2837 48.4555C81.3075 48.4555 81.334 48.4502 81.3658 48.4423C81.5906 48.3735 81.8102 48.2994 82.006 48.2333C82.4689 47.9476 82.9266 47.6777 83.3896 47.4264C83.8552 47.183 84.3499 46.9449 84.8764 46.7359C85.3341 46.5587 85.7917 46.3762 86.2388 46.2016C86.6833 46.0243 87.1357 45.8497 87.5933 45.6671C86.7706 47.1275 86.1754 48.5719 85.8182 49.9926C85.5854 50.8127 85.5986 51.3894 85.8632 51.728C86.1251 52.0667 86.4902 52.2625 86.9531 52.3154C87.4108 52.3709 87.9056 52.3101 88.4321 52.1276C88.9612 51.9503 89.4056 51.7413 89.7681 51.4899C90.2337 51.2042 90.7045 50.8947 91.1807 50.5561C91.6569 50.2175 92.1279 49.8312 92.5908 49.4053C92.9877 49.7968 93.5141 50.0137 94.1729 50.0481C94.8316 50.1143 95.5009 50.0878 96.1781 49.9661C96.8501 49.8444 97.5221 49.6884 98.1782 49.5138C98.3739 49.4794 98.6306 49.4238 98.9454 49.3497C99.2576 49.281 99.5724 49.1937 99.8846 49.0852C100.199 48.9767 100.493 48.8418 100.776 48.6857C100.959 48.5772 101.109 48.4555 101.215 48.3285C101.271 48.2597 101.316 48.191 101.348 48.1248C101.509 47.8735 101.49 47.6354 101.297 47.4Z" fill="#3B3A64"/>
<path d="M116.43 47.3735C116.342 47.1909 116.136 47.1274 115.803 47.2041C115.752 47.2094 115.697 47.2227 115.639 47.2438C115.207 47.3655 114.737 47.5613 114.229 47.8258C113.715 48.0983 113.231 48.3735 112.768 48.6592C112.303 48.9423 111.996 49.1195 111.826 49.1936C111.268 49.4053 110.647 49.6195 109.977 49.8312C109.3 50.0481 108.678 50.1142 108.12 50.0481C107.826 49.6195 107.763 49.0666 107.945 48.3894C108.125 47.7121 108.313 47.1433 108.514 46.683C108.615 46.3629 108.771 46.0375 108.985 45.72C109.199 45.4025 109.337 45.0772 109.406 44.7597C109.506 44.1909 109.387 43.8576 109.062 43.7703C108.729 43.683 108.334 43.6883 107.869 43.7967C107.411 43.9052 106.94 44.0665 106.464 44.2782C105.982 44.4951 105.681 44.6353 105.549 44.7041L100.602 47.2703C100.205 47.4819 100.117 47.7386 100.332 48.0428C100.543 48.347 100.832 48.4423 101.197 48.3338C101.202 48.3285 101.207 48.3285 101.215 48.3285C101.797 47.974 102.387 47.6645 102.977 47.3735C103.668 47.019 104.377 46.7094 105.104 46.4449C105.824 46.1751 106.57 45.8814 107.329 45.5586C107.128 46.2015 106.94 46.9052 106.76 47.6698C106.578 48.437 106.49 49.146 106.49 49.8047C106.49 50.4661 106.62 51.0084 106.885 51.4344C107.149 51.8629 107.625 52.0244 108.313 51.9159C109.112 51.7757 109.877 51.5164 110.617 51.1381C111.356 50.7651 112.091 50.3867 112.819 49.9926C112.948 49.9185 113.245 49.7889 113.707 49.5931C114.173 49.3973 114.623 49.1804 115.07 48.9502C115.369 48.7941 115.639 48.6248 115.872 48.4423C115.985 48.3603 116.086 48.2677 116.178 48.1777C116.48 47.8947 116.562 47.6221 116.43 47.3735ZM120.163 31.3574C119.917 31.2806 119.692 31.2489 119.496 31.2489C118.342 31.0717 117.171 31.0188 115.985 31.0849C115.551 31.159 115.099 31.2542 114.623 31.3838C114.147 31.5055 113.689 31.6749 113.263 31.8918C112.837 32.1008 112.448 32.3786 112.102 32.7172C111.752 33.0558 111.501 33.4553 111.332 33.9156C111.199 34.3442 111.319 34.7014 111.681 34.9871C112.041 35.2702 112.39 35.2702 112.718 34.9871C112.98 34.7701 113.181 34.4844 113.313 34.1325C113.446 33.7754 113.676 33.4897 114.004 33.2807C114.832 32.6696 115.758 32.3442 116.8 32.2913C117.834 32.2357 118.832 32.3177 119.792 32.5294C119.954 32.569 120.104 32.5214 120.237 32.3997C120.369 32.2701 120.451 32.1219 120.483 31.9394C120.52 31.6193 120.406 31.4235 120.163 31.3574Z" fill="#3B3A64"/>
<path d="M138.237 47.5906C138.136 47.3736 137.972 47.2704 137.742 47.2704C137.509 47.2704 137.271 47.326 137.025 47.4265C136.777 47.535 136.536 47.6699 136.311 47.826C136.078 47.99 135.898 48.0906 135.766 48.1249C135.24 48.408 134.613 48.7202 133.885 49.0588C133.163 49.3975 132.43 49.6884 131.684 49.9398C130.943 50.1885 130.229 50.3869 129.531 50.5271C128.843 50.67 128.266 50.7044 127.8 50.6356C127.636 50.5959 127.525 50.5218 127.456 50.3922C127.388 50.2705 127.425 50.0826 127.557 49.8313C127.657 49.5456 127.776 49.3234 127.927 49.1673L128.396 48.6593C128.56 48.4768 128.679 48.2678 128.742 48.0165C128.872 47.5562 128.766 47.191 128.422 46.9265C128.075 46.654 127.75 46.7016 127.456 47.0535C126.858 47.7652 126.089 48.4424 125.128 49.0853C124.996 49.1938 124.734 49.3631 124.337 49.5932C123.943 49.8234 123.517 50.0482 123.054 50.2572C122.594 50.4742 122.136 50.6356 121.692 50.7388C121.247 50.8472 120.927 50.8128 120.731 50.6356C120.501 50.4213 120.501 50.0747 120.731 49.5932C120.959 49.1144 121.271 48.6117 121.668 48.0985C122.062 47.5826 122.47 47.1011 122.882 46.654C123.292 46.2069 123.581 45.9159 123.75 45.7731C124.144 45.49 124.496 45.2466 124.808 45.0509C125.123 44.8604 125.512 44.6911 125.97 44.5482L128.195 44.2783C128.56 44.2095 128.866 44.0138 129.112 43.6884C129.361 43.3709 129.287 43.019 128.893 42.6249C128.628 42.4423 128.208 42.3947 127.631 42.4635C127.054 42.5376 126.433 42.6593 125.774 42.8365C125.115 43.019 124.488 43.2069 123.893 43.4238C123.303 43.6408 122.89 43.7968 122.657 43.9053C122.231 44.0826 121.692 44.3127 121.052 44.5958C120.406 44.8868 119.742 45.1857 119.046 45.5111C118.356 45.8286 117.702 46.1593 117.094 46.4927C116.594 46.7705 116.16 47.0059 115.803 47.2043C115.729 47.2519 115.652 47.2837 115.583 47.326C115.39 47.4265 115.282 47.5615 115.263 47.7255C115.25 47.8816 115.282 48.0218 115.364 48.1514C115.446 48.2731 115.57 48.3604 115.734 48.416C115.784 48.4371 115.827 48.4424 115.872 48.4424C115.991 48.4503 116.11 48.408 116.229 48.334C116.824 48.0165 117.472 47.6699 118.181 47.2969C118.888 46.9265 119.565 46.5588 120.213 46.2017C120.85 45.8498 121.43 45.5429 121.943 45.2942C122.451 45.0429 122.821 44.8868 123.054 44.8128C122.626 45.0641 122.163 45.4371 121.668 45.9371C121.178 46.4318 120.721 46.9741 120.311 47.5614C119.898 48.1514 119.559 48.7202 119.298 49.2678C119.033 49.8234 118.901 50.2784 118.901 50.6356C118.932 51.3075 119.176 51.8076 119.641 52.1277C120.104 52.4504 120.631 52.5933 121.221 52.5536C121.888 52.4848 122.52 52.2626 123.128 51.8896C123.737 51.5165 124.327 51.1515 124.885 50.7917L126.221 49.9398C126.089 50.4398 126.07 50.908 126.171 51.3551C126.271 51.8022 126.597 52.1462 127.16 52.3975C127.586 52.5747 128.057 52.6277 128.573 52.5536C129.081 52.4848 129.581 52.3578 130.078 52.1806C130.573 52.006 131.049 51.789 131.515 51.543C131.972 51.2943 132.403 51.0774 132.8 50.9001C133.388 50.6171 133.964 50.3392 134.531 50.0747C135.089 49.8048 135.647 49.5324 136.21 49.2413C136.343 49.1752 136.536 49.0853 136.8 48.9768C137.065 48.8683 137.327 48.7546 137.597 48.6329C137.861 48.5032 138.068 48.3551 138.21 48.1779C138.361 48.0033 138.369 47.8049 138.237 47.5906Z" fill="#3B3A64"/>
<path d="M168.208 31.6484C168.076 31.9182 167.978 32.1352 167.909 32.3177C167.38 33.2807 166.822 34.1326 166.227 34.8786C164.941 36.6934 163.523 38.3866 161.975 39.9501C161.679 40.2358 161.372 40.5321 161.06 40.8311C160.745 41.1353 160.444 41.4131 160.145 41.6644C160.444 41.0956 160.758 40.5321 161.084 39.9765C161.417 39.4289 161.761 38.8681 162.126 38.2966C162.785 37.3363 163.444 36.4024 164.1 35.495C164.759 34.5876 165.467 33.7198 166.227 32.8997C166.491 32.6166 166.83 32.2648 167.243 31.8362C167.658 31.4103 168.089 31.0717 168.555 30.8203C168.454 31.1061 168.341 31.3838 168.208 31.6484ZM170.386 29.4341C170.184 28.8309 169.819 28.5743 169.293 28.6616C168.767 28.7489 168.322 28.897 167.957 29.114C167.2 29.5743 166.534 30.1722 165.957 30.9023C165.38 31.6351 164.841 32.3521 164.351 33.0637C163.756 33.8812 163.179 34.7093 162.621 35.5479C162.057 36.3812 161.499 37.2146 160.941 38.0347C160.407 38.921 159.867 39.8284 159.303 40.757C158.745 41.6776 158.229 42.6379 157.772 43.6406C156.814 44.3523 155.859 45.0083 154.901 45.6115C153.946 46.22 152.957 46.7703 151.933 47.2703C151.539 47.4819 151.451 47.7386 151.663 48.0428C151.877 48.347 152.147 48.4634 152.481 48.3893C153.965 47.6089 155.383 46.7359 156.732 45.7729C156.367 46.6274 156.073 47.4819 155.84 48.3338C155.748 48.728 155.679 49.146 155.647 49.5931C155.61 50.0402 155.653 50.4476 155.766 50.8206C155.885 51.191 156.092 51.4978 156.388 51.728C156.682 51.9582 157.076 52.0376 157.573 51.9714C158.137 51.9291 158.676 51.8021 159.203 51.5719C159.735 51.3339 160.274 51.1169 160.84 50.9L166.573 48.6063C166.661 48.5639 166.748 48.5163 166.835 48.4555C166.991 48.3602 167.15 48.2465 167.319 48.0983C167.581 47.8655 167.531 47.6089 167.169 47.3259C167.018 47.2227 166.854 47.183 166.671 47.2174C166.534 47.2306 166.383 47.2782 166.227 47.3734C165.864 47.5904 165.55 47.7306 165.285 47.8047C164.364 48.2333 163.422 48.6248 162.47 48.9766C161.51 49.3364 160.539 49.6195 159.555 49.8312C159.486 49.8708 159.335 49.892 159.108 49.9132C158.878 49.9317 158.626 49.9581 158.362 49.9925C158.068 50.0269 157.735 50.0825 157.377 50.1566C157.277 49.6883 157.258 49.2015 157.327 48.6856C157.391 48.1724 157.51 47.6433 157.674 47.1089C157.835 46.5745 158.023 46.0666 158.242 45.5851C158.457 45.1036 158.645 44.6512 158.809 44.2226C160.69 42.7279 162.446 41.1009 164.076 39.3416C165.706 37.5744 167.187 35.6828 168.505 33.6511C168.666 33.4024 168.88 33.1113 169.15 32.7727C169.412 32.4341 169.658 32.0743 169.891 31.7013C170.121 31.3282 170.29 30.9579 170.409 30.5769C170.523 30.2039 170.518 29.8256 170.386 29.4341Z" fill="#3B3A64"/>
<path d="M56.8919 49.945C56.9052 50.0138 56.9184 50.0825 56.9316 50.1566H56.9369C56.9184 50.0825 56.9052 50.0138 56.8919 49.945ZM57.7967 45.5851C57.6882 45.8285 57.5903 46.0719 57.4951 46.3285C57.5903 46.0719 57.6962 45.8285 57.802 45.5851C57.8602 45.4634 57.9078 45.3417 57.9581 45.2253C57.9078 45.3417 57.8522 45.4634 57.7967 45.5851ZM61.6777 38.2966C61.4978 38.5824 61.3206 38.8681 61.1513 39.1432C61.3259 38.8681 61.5031 38.5824 61.6856 38.2966C62.3444 37.3363 63.0005 36.4024 63.6592 35.495C63.0005 36.4024 62.3444 37.3363 61.6777 38.2966ZM67.0217 47.6777C66.9979 47.6036 66.9476 47.5269 66.8656 47.4476C66.8286 47.4052 66.7783 47.3656 66.728 47.3259C66.6963 47.3047 66.6645 47.2835 66.6328 47.2703C66.601 47.2571 66.5693 47.2439 66.5402 47.2359C66.5084 47.2227 66.4688 47.2174 66.4397 47.2095C66.4 47.2042 66.3709 47.2042 66.3312 47.2042C66.2994 47.2042 66.2704 47.2094 66.2307 47.2174C66.1989 47.2227 66.1619 47.2227 66.1249 47.2306C66.1116 47.2359 66.1063 47.2359 66.0931 47.2359C66.0878 47.2439 66.0878 47.2438 66.0799 47.2438L66.0323 47.2703C65.6354 47.4819 65.5481 47.7386 65.7624 48.0428C65.9608 48.3285 66.2201 48.4291 66.5508 48.3471C66.6593 48.2809 66.7651 48.1989 66.8788 48.0984C66.9027 48.0772 66.9265 48.056 66.9476 48.0216C66.9847 47.974 67.0164 47.9291 67.027 47.8735C67.0482 47.8126 67.0482 47.7439 67.0217 47.6777ZM68.7016 32.7727C68.6328 32.8521 68.572 32.9421 68.5138 33.0162C68.5773 32.9421 68.6408 32.8521 68.7095 32.7727C68.7281 32.7436 68.7466 32.7251 68.7598 32.704C68.7334 32.7251 68.7228 32.7516 68.7016 32.7727ZM69.4424 31.7013C69.4292 31.7278 69.4106 31.7489 69.4 31.7754C69.4185 31.7569 69.4371 31.7278 69.4503 31.7013C69.5614 31.5135 69.6619 31.3283 69.7492 31.1405C69.6619 31.3283 69.5614 31.5135 69.4424 31.7013ZM69.945 29.4341C69.9001 29.3045 69.8497 29.1828 69.7889 29.0875C69.8444 29.1828 69.8947 29.3045 69.9371 29.4341C69.9503 29.4817 69.9688 29.5346 69.982 29.5822C69.9767 29.5346 69.9636 29.4817 69.945 29.4341ZM69.9635 30.5769C69.9503 30.6246 69.9371 30.6722 69.9186 30.7198C69.9371 30.6722 69.9503 30.6246 69.9688 30.5769C69.9767 30.5426 69.9873 30.5108 69.9953 30.4685C69.9873 30.5108 69.9768 30.5426 69.9635 30.5769Z" fill="#3B3A64"/>
<path d="M172.261 44.7306C172.56 44.3919 172.893 44.1142 173.277 43.9052C173.653 43.6883 174.065 43.5454 174.512 43.4793C174.957 43.4052 175.409 43.4581 175.872 43.6406C175.309 44.2438 174.663 44.7438 173.915 45.1301C173.176 45.5243 172.412 45.7412 171.621 45.7729C171.753 45.4158 171.965 45.0692 172.261 44.7306ZM184.899 47.3735C184.653 47.2359 184.409 47.1962 184.182 47.2703C184.1 47.3179 184.013 47.3655 183.925 47.4132C183.7 47.5428 183.468 47.6645 183.216 47.7783C182.872 47.9344 182.534 48.1036 182.2 48.2862C181.481 48.638 180.732 48.9502 179.975 49.2201C179.216 49.4846 178.444 49.7095 177.653 49.8841C177.089 49.9926 176.475 50.0613 175.798 50.101C175.121 50.1354 174.467 50.0534 173.846 49.8577C173.219 49.6619 172.674 49.3497 172.211 48.9238C171.753 48.4978 171.452 47.8947 171.319 47.1089H171.52C172.248 47.183 172.962 47.1142 173.671 46.9264C174.38 46.728 175.031 46.4317 175.621 46.0375C175.79 45.937 176.05 45.7677 176.393 45.5296C176.737 45.2994 177.052 45.0428 177.333 44.7597C177.61 44.474 177.811 44.1698 177.923 43.8496C178.042 43.5322 177.981 43.2279 177.753 42.9448C177.423 42.4819 176.952 42.2121 176.343 42.1433C175.735 42.0692 175.195 42.0692 174.737 42.1433C173.846 42.3205 173.007 42.6671 172.211 43.1803C171.42 43.7015 170.811 44.3655 170.385 45.1856C169.721 45.4687 169.073 45.8074 168.428 46.2015C167.827 46.5746 167.237 46.9052 166.671 47.2174C166.642 47.2359 166.602 47.2518 166.573 47.2703C166.377 47.3391 166.272 47.5005 166.253 47.7518C166.24 48.0031 166.327 48.191 166.52 48.3338C166.629 48.4079 166.729 48.4502 166.835 48.4555C166.999 48.4767 167.161 48.4291 167.319 48.3074C167.581 48.1169 167.795 47.982 167.957 47.9079C168.221 47.7307 168.528 47.5269 168.875 47.2967C169.219 47.0613 169.576 46.8576 169.941 46.683C169.87 46.9317 169.864 47.1962 169.915 47.4819C169.965 47.765 170.02 48.0508 170.084 48.3338C170.285 49.1196 170.61 49.7624 171.076 50.2571C171.539 50.7598 172.052 51.1381 172.632 51.4079C173.208 51.6725 173.835 51.8365 174.512 51.8894C175.19 51.9424 175.854 51.8973 176.512 51.7545C177.999 51.3286 179.497 50.7915 181.015 50.1566L183.486 48.9767C183.719 48.8682 183.981 48.7677 184.282 48.6592C184.441 48.5984 184.584 48.5163 184.703 48.4079C184.809 48.3126 184.899 48.1989 184.973 48.0693C185.169 47.7518 185.148 47.5216 184.899 47.3735Z" fill="#3B3A64"/>
<path d="M189.822 44.7306C190.116 44.392 190.455 44.1142 190.83 43.9052C191.214 43.6883 191.627 43.5455 192.074 43.4793C192.513 43.4052 192.97 43.4581 193.428 43.6407C192.87 44.2439 192.217 44.7439 191.476 45.1301C190.738 45.5243 189.965 45.7412 189.174 45.773C189.306 45.4158 189.521 45.0693 189.822 44.7306ZM238.508 47.5217C237.204 45.8417 235.479 44.5905 233.648 43.728C231.81 42.8497 229.865 42.3073 227.91 41.9343C223.982 41.2041 219.968 41.2438 216.037 41.8205C212.034 42.3946 208.36 44.2307 204.785 45.9503C202.434 47.1011 199.994 48.1037 197.542 48.9899C196.156 49.4979 194.825 50.0191 193.351 50.1011C192.682 50.1355 192.029 50.0535 191.402 49.8577C190.775 49.6619 190.23 49.3497 189.772 48.9238C189.306 48.4979 189.013 47.8947 188.881 47.109H189.074C189.801 47.183 190.518 47.1143 191.227 46.9264C191.933 46.728 192.587 46.4317 193.182 46.0375C193.346 45.937 193.603 45.7677 193.947 45.5296C194.293 45.2994 194.606 45.0428 194.889 44.7598C195.172 44.474 195.365 44.1698 195.484 43.8497C195.598 43.5322 195.542 43.228 195.309 42.9449C194.976 42.4819 194.505 42.2121 193.897 42.1433C193.288 42.0692 192.751 42.0692 192.293 42.1433C191.402 42.3206 190.56 42.6671 189.772 43.1803C188.981 43.7015 188.367 44.3656 187.939 45.1857C187.28 45.4688 186.629 45.8074 185.984 46.2016C185.343 46.5931 184.722 46.9449 184.132 47.2703C184.044 47.2968 183.976 47.3444 183.925 47.4132C183.857 47.4952 183.82 47.609 183.812 47.7519C183.793 48.0032 183.88 48.191 184.082 48.3339C184.291 48.4767 184.497 48.5032 184.703 48.4079C184.759 48.3815 184.817 48.3471 184.873 48.3074C185.137 48.1169 185.349 47.982 185.518 47.908C185.783 47.7307 186.084 47.527 186.428 47.2968C186.78 47.0613 187.132 46.8577 187.494 46.6831C187.426 46.9317 187.42 47.1963 187.47 47.482C187.518 47.7651 187.576 48.0508 187.645 48.3339C187.838 49.1196 188.172 49.7624 188.629 50.2572C189.095 50.7598 189.613 51.1381 190.19 51.408C190.769 51.6725 191.396 51.8366 192.074 51.8895C193.439 51.998 194.664 51.572 195.918 51.0508C196.92 50.6355 197.912 50.1963 198.91 49.7571C200.1 49.228 201.285 48.6937 202.471 48.1513C203.381 47.7386 204.278 47.318 205.169 46.8709C208.743 45.1116 212.312 43.2968 216.151 42.7121C220.005 42.1116 223.944 42.0348 227.788 42.7121C229.704 43.0587 231.603 43.5745 233.371 44.3999C235.146 45.2121 236.783 46.3841 238.024 47.9555C238.138 48.0984 238.334 48.1169 238.463 48.0032C238.595 47.8815 238.614 47.6645 238.508 47.5217Z" fill="#3B3A64"/>
<path d="M0.123895 50.5667C3.21388 48.7863 6.415 47.2386 9.76425 46.0693C10.6082 45.7862 11.4653 45.5481 12.341 45.3788C13.2246 45.2095 14.1215 45.1513 15.013 45.1777C16.7987 45.2306 18.5501 45.6275 20.2432 46.146C21.9443 46.6513 23.5846 47.3709 25.2116 47.9794C26.8386 48.5852 28.5026 49.0641 30.1719 49.0323C33.5371 48.9159 36.8096 47.3153 39.3493 44.9264C39.5636 44.7227 39.889 44.7465 40.0769 44.9767C40.2647 45.2095 40.2435 45.5613 40.0292 45.7624C40.0292 45.765 40.0239 45.7677 40.0239 45.7703C37.2885 48.2677 33.8201 49.9185 30.1799 49.9952C28.3465 50.0005 26.5899 49.4556 24.939 48.8153C23.2803 48.1672 21.693 47.4423 20.0342 46.9238C18.3807 46.392 16.6929 45.9873 14.9892 45.9106C13.2855 45.81 11.6002 46.1672 9.94148 46.6989C6.63985 47.7968 3.42555 49.2942 0.343495 51.0138C0.227092 51.0799 0.0868782 51.0297 0.0260308 50.908C-0.0321711 50.7836 0.0101369 50.6302 0.123895 50.5667Z" fill="#3B3A64"/>
</svg>
