<svg width="245" height="60" viewBox="0 0 245 60" fill="none" xmlns="http://www.w3.org/2000/svg">
<path d="M148.73 21.9657C148.465 22.3711 148.231 22.808 147.996 23.2477C147.52 24.15 147.066 25.0038 146.286 25.6091C144.91 26.6828 138.428 26.2373 135.221 25.8947C135.321 25.8433 135.401 25.789 135.458 25.7348C137.68 25.7148 140.084 25.435 142.071 24.9638C142.209 24.9324 142.288 24.7982 142.26 24.664C142.226 24.5298 142.089 24.447 141.957 24.4784C139.967 24.9496 137.554 25.2265 135.338 25.2379C135.236 25.2379 135.156 25.2779 135.119 25.3721C135.062 25.4407 134.839 25.5349 134.576 25.6291C134.827 25.4978 135.084 25.3664 135.338 25.2351C138.394 24.4813 141.552 23.5847 145.17 22.4254C145.301 22.3854 145.375 22.2455 145.332 22.1141C145.292 21.9799 145.15 21.9086 145.021 21.9514C142.229 22.8451 139.722 23.5761 137.314 24.2157C142.091 21.8001 147.268 18.9846 149.347 13.7165C150.412 16.9459 150.515 19.2616 148.73 21.9657ZM139.33 12.106C139.202 12.0575 139.059 12.1232 139.011 12.2517C137.84 15.3983 136.244 18.7048 134.208 22.2769C134.236 22.1256 134.273 21.9771 134.305 21.8258L134.371 21.486C134.847 19.0931 135.673 16.7175 136.469 14.4218C137.189 12.3488 137.931 10.2072 138.434 8.0257C138.465 7.8915 138.388 7.7573 138.248 7.72589C138.114 7.69448 137.98 7.78013 137.948 7.91433C137.451 10.0673 136.712 12.1974 135.998 14.259C135.321 16.2092 134.639 18.2166 134.145 20.2553C134.465 17.4827 134.887 14.6644 135.31 11.9062C135.461 10.9096 135.615 9.92168 135.758 8.94514C135.778 8.80808 135.687 8.67672 135.547 8.66245C135.413 8.6396 135.284 8.73383 135.264 8.87088C135.121 9.85028 134.97 10.8354 134.816 11.8319C134.208 15.8095 133.582 19.9241 133.3 23.8331C133.223 23.9644 133.151 24.0929 133.074 24.2243C132.066 18.899 131.841 14.2875 132.437 10.2272L132.557 9.37345C132.857 7.16624 133.197 4.66205 134.659 3.13157C135.815 1.92374 137.58 1.38123 139.385 1.68104C139.759 1.74386 140.121 1.84093 140.464 1.96943C141.715 2.43485 142.717 3.32003 143.239 4.45648C144.41 6.9892 143.299 11.1609 139.936 16.8574C138.354 19.5357 136.107 21.9942 133.508 24.8182C133.58 24.6326 133.628 24.447 133.688 24.2614C133.739 24.2186 133.774 24.1586 133.777 24.0901C133.779 24.0558 133.785 24.0244 133.788 23.993C136.258 19.8241 138.14 16.0236 139.476 12.4287C139.524 12.2974 139.459 12.1546 139.33 12.106ZM131.918 24.053C130.896 20.5037 129.653 16.8717 128.326 13.608C128.274 13.4795 128.129 13.4167 128.003 13.4709C127.875 13.5223 127.812 13.6679 127.866 13.7936C128.98 16.5319 130.03 19.5357 130.947 22.5253C129.645 20.4752 128.417 18.4564 127.369 16.1493C127.312 16.0265 127.164 15.9694 127.038 16.0265C126.912 16.0836 126.858 16.2321 126.915 16.3577C128.18 19.1417 129.691 21.4974 131.287 23.993C131.344 24.0815 131.401 24.17 131.458 24.2585C131.509 24.4441 131.561 24.6269 131.612 24.8125C128.026 21.8172 122.626 16.9002 124.228 12.1946C124.928 10.133 129.199 7.72587 131.781 7.7944C131.701 8.28838 131.632 8.77667 131.569 9.23924L131.449 10.0816C130.844 14.2162 131.038 18.8704 132.043 24.2471C132.001 24.1843 131.958 24.1158 131.918 24.053ZM144.65 6.15256C146.112 6.7836 147.517 7.99999 148.282 9.41341C148.702 10.1872 149.124 11.3608 148.756 12.5543C147.026 18.1337 141.729 20.872 136.552 23.4847C138.945 21.0205 141.646 18.4307 144.638 15.7381C144.741 15.6467 144.75 15.4897 144.658 15.3869C144.57 15.2869 144.407 15.2755 144.304 15.3697C141.909 17.5227 139.716 19.61 137.694 21.623C138.879 20.2182 139.93 18.8305 140.795 17.3656C143.602 12.6114 144.861 8.92228 144.65 6.15256ZM128.526 39.2236C128.954 39.1322 129.385 39.0637 129.813 38.9923C130.587 38.8638 131.384 38.7125 132.16 38.4612C131.447 38.7439 130.761 39.0751 130.027 39.3064L129.742 39.3978C128.171 39.9003 126.598 40.5285 125.093 41.1995C126.07 40.1744 126.947 39.5577 128.526 39.2236ZM134.967 37.5846C134.536 38.1271 134.074 38.6439 133.531 39.0751C132.632 39.7918 131.512 40.3286 129.908 40.8083C128.694 41.171 127.732 41.3822 126.781 41.4879C126.278 41.545 125.776 41.5593 125.288 41.5707C125.262 41.5707 125.236 41.5736 125.21 41.5736C126.715 40.9025 128.289 40.2744 129.862 39.7718L130.145 39.6804C131.755 39.1693 133.522 38.5983 134.967 37.5846ZM129.117 42.5644C127.255 42.7871 126.007 42.6243 124.688 41.9876C124.894 41.979 125.096 41.9676 125.299 41.9619C125.793 41.9505 126.307 41.9362 126.824 41.8791C127.797 41.7677 128.783 41.5536 130.019 41.1852C131.675 40.6884 132.834 40.1316 133.774 39.3806C134.134 39.0951 134.453 38.7724 134.756 38.4355C133.494 40.5142 131.798 42.2474 129.117 42.5644ZM109.774 18.4735L109.557 17.9795C108.992 16.6975 108.349 15.247 108.629 13.9449C108.849 12.917 109.617 12.0461 110.679 11.612C110.902 11.5207 111.128 11.455 111.353 11.4093C112.176 11.2494 113.004 11.3922 113.66 11.8262C115.12 12.797 115.899 15.3983 115.973 19.5557C116.008 21.5088 115.614 23.5647 115.154 25.9347C115.131 25.8119 115.097 25.6977 115.065 25.5777C115.08 25.5378 115.08 25.4949 115.057 25.4549L115.031 25.4007C114.982 22.3569 114.737 19.7014 114.269 17.3342C114.251 17.2486 114.169 17.1943 114.086 17.2115C114 17.2286 113.946 17.3114 113.96 17.3942C114.371 19.4643 114.606 21.7601 114.691 24.3442C114.657 24.2528 114.628 24.1614 114.594 24.0701L114.52 23.8674C113.986 22.4282 113.646 20.8863 113.315 19.393C113.018 18.0452 112.71 16.6547 112.261 15.3212C112.233 15.2384 112.15 15.1927 112.061 15.2213C111.981 15.2498 111.936 15.3383 111.964 15.4211C112.407 16.7375 112.712 18.1223 113.009 19.4615C113.289 20.7293 113.583 22.0285 113.992 23.282C113.249 21.6916 112.55 20.044 111.867 18.4278C111.619 17.8454 111.376 17.2657 111.131 16.6946C111.096 16.6147 111.005 16.5747 110.925 16.6118C110.845 16.6461 110.808 16.7375 110.842 16.8174C111.088 17.3885 111.33 17.9681 111.576 18.5506C112.561 20.8806 113.58 23.2906 114.72 25.4749C114.72 25.572 114.723 25.6634 114.725 25.7605C112.433 23.2392 110.794 20.8463 109.774 18.4735ZM114.049 26.0489C112.333 24.487 110.474 22.9479 108.686 21.6373C108.618 21.5859 108.521 21.603 108.469 21.6716C108.418 21.7429 108.432 21.84 108.501 21.8914C110 22.9907 111.553 24.2528 113.027 25.552C111.653 24.881 110.331 24.2043 109.012 23.3163C108.94 23.2677 108.843 23.2849 108.795 23.3591C108.746 23.4305 108.766 23.5276 108.838 23.5761C110.431 24.6497 112.016 25.415 113.692 26.223C113.752 26.2516 113.812 26.283 113.872 26.3115C113.96 26.3915 114.049 26.4743 114.137 26.5543C111.231 26.1345 106.719 25.2779 106.028 22.2312C105.722 20.8978 107.216 18.2023 108.624 17.3885C108.743 17.6797 108.866 17.9653 108.986 18.2337L109.197 18.7219C110.237 21.1376 111.873 23.5647 114.18 26.1117C114.137 26.0917 114.094 26.0689 114.049 26.0489ZM117.989 12.8199C118.469 13.0968 119.083 13.5851 119.277 14.3475C120.188 17.9053 118.255 21.1148 116.344 24.2186C116.816 22.1113 117.407 19.8355 118.123 17.4085C118.149 17.3257 118.101 17.2372 118.018 17.2143C117.938 17.1886 117.849 17.2372 117.824 17.32C117.25 19.2616 116.761 21.1005 116.344 22.8451C116.513 21.703 116.619 20.6122 116.601 19.5443C116.539 16.075 115.999 13.6851 114.971 12.2717C115.965 12.1289 117.115 12.3173 117.989 12.8199ZM119.979 14.7758C121.613 16.155 122.429 17.3599 122.367 19.3958C122.355 19.6985 122.375 20.0097 122.395 20.321C122.435 20.9634 122.472 21.5688 122.255 22.1513C121.873 23.1764 118.255 25.0723 116.427 25.9461C116.462 25.8861 116.487 25.8318 116.499 25.7833C117.681 25.0409 118.877 24.0986 119.788 23.1935C119.848 23.1307 119.848 23.0307 119.788 22.9707C119.725 22.9079 119.625 22.9108 119.565 22.9707C118.654 23.8759 117.455 24.8211 116.27 25.5577C116.216 25.592 116.187 25.6377 116.199 25.7005C116.19 25.7576 116.102 25.8804 115.993 26.0174C116.085 25.8633 116.176 25.7091 116.27 25.5549C117.658 24.1443 119.054 22.6253 120.61 20.8121C120.668 20.7464 120.659 20.6493 120.593 20.5922C120.528 20.5351 120.431 20.5437 120.373 20.6094C119.174 22.0057 118.072 23.2249 116.993 24.3585C118.754 21.4917 120.599 18.2794 119.979 14.7758ZM149.844 12.1346C149.969 11.1181 149.752 10.0273 149.159 8.93655C148.179 7.1291 146.36 5.63004 144.47 5.00471C144.384 4.66778 144.287 4.3394 144.144 4.03673C143.339 2.29209 141.623 1.04142 139.547 0.69878C137.42 0.341858 135.321 0.995754 133.939 2.44343C132.829 3.60272 132.289 5.20742 131.961 6.8093C128.942 6.64368 124.134 9.37059 123.283 11.8719C121.379 17.4656 127.766 22.9279 131.504 26.0146C129.688 30.1035 127.446 33.8954 124.776 37.3904C121.267 41.9733 117.044 45.8909 112.427 49.3174C112.604 48.9376 112.815 48.5721 112.981 48.1866C113.246 47.5784 113.495 46.9645 113.726 46.342C114.885 43.2611 115.594 40.0203 115.979 36.7566C115.988 36.688 115.996 36.6166 116.005 36.5481C116.37 33.41 116.607 30.0749 115.985 26.9597C115.976 26.9169 115.95 26.8912 115.939 26.8541C117.435 26.2459 122.312 23.7874 122.843 22.3683C123.106 21.663 123.063 20.9606 123.02 20.281C123 19.9898 122.983 19.7013 122.992 19.4158C123.072 16.8774 121.91 15.4725 119.722 13.765C119.457 13.1768 118.98 12.6657 118.303 12.2773C117.184 11.6349 115.716 11.4293 114.497 11.7149C114.34 11.5664 114.18 11.4207 114.006 11.3065C113.001 10.6355 111.667 10.5327 110.445 11.0324C109.186 11.5435 108.281 12.5829 108.015 13.8136C107.804 14.7987 108.044 15.8352 108.395 16.8003C106.725 17.7083 105.049 20.7521 105.417 22.3711C106.239 25.9917 111.456 26.8141 114.474 27.2367C114.848 30.0207 114.897 32.7904 114.617 35.5401C114.046 41.1281 112.044 46.4334 109.429 51.3875C109.414 51.4161 109.394 51.4418 109.38 51.4703C107.795 52.5382 106.182 53.5662 104.537 54.537C103.364 55.228 102.116 55.5364 101.105 56.5215C100.84 56.7813 100.586 57.0783 100.506 57.4438C100.406 57.8949 100.571 58.5773 100.957 58.8629C101.205 59.0456 101.542 59.0656 101.845 59.0085C102.67 58.8543 103.333 58.249 104.075 57.8949C104.957 57.478 105.811 57.0212 106.662 56.5415C108.501 55.505 110.288 54.3771 112.019 53.1636C112.884 52.5582 113.732 51.93 114.566 51.2847C116.287 49.9484 117.941 48.5264 119.52 47.0273C119.877 46.6875 123.826 42.4159 123.843 42.4245C124.834 42.9784 125.77 43.3097 126.841 43.4096C127.549 43.4753 128.32 43.4495 129.208 43.3439C133.482 42.8356 135.441 39.2322 136.94 35.8942C137.015 35.7315 136.969 35.543 136.832 35.4316C136.698 35.3174 136.503 35.3117 136.361 35.4117C134.91 36.4282 133.48 37.1905 132.109 37.676C131.332 37.9501 130.533 38.0814 129.688 38.2185C129.245 38.2927 128.803 38.3641 128.363 38.4583C127.58 38.624 126.975 38.8838 126.418 39.1865C126.704 38.8038 127.004 38.4955 127.283 38.1014C130.224 33.9783 132.389 30.2434 133.779 26.8998C133.802 26.837 133.791 26.7798 133.805 26.717C136.341 27.1425 144.998 27.8763 146.9 26.3972C147.845 25.6577 148.37 24.6697 148.879 23.7132C149.099 23.302 149.313 22.8937 149.564 22.5139C151.788 19.1445 151.383 16.272 149.844 12.1346Z" fill="#3B3A64"/>
<path d="M8.71633 26.7856C8.71633 25.8518 8.48874 25.1894 8.03388 24.7953C7.57959 24.4013 6.78151 24.2043 5.64021 24.2043H4.07488V29.4496H5.69531C6.78721 29.4496 7.56388 29.2469 8.02446 28.8386C8.48531 28.4359 8.71633 27.7507 8.71633 26.7856ZM4.07488 30.2748V34.9234L5.93261 35.1718V35.6572H0.852012V35.1718L2.3077 34.9234V24.1015L0.732666 23.8645V23.3791H6.03397C7.57159 23.3791 8.70716 23.6389 9.43957 24.1586C10.1714 24.6754 10.5378 25.5092 10.5378 26.6571C10.5378 27.4737 10.3148 28.1818 9.86961 28.7758C9.42388 29.3725 8.80768 29.7866 8.02016 30.0178L11.3438 34.9234L12.671 35.1718V35.6572H9.73197L6.28067 30.2748H4.07488Z" fill="#3B3A64"/>
<path d="M27.9571 34.9234L29.5318 35.1718V35.6572H24.6251V35.1718L26.1999 34.9234V24.1015L24.6251 23.8645V23.3791H29.5318V23.8645L27.9571 24.1015V34.9234Z" fill="#3B3A64"/>
<path d="M52.0128 24.1015L50.3653 23.8645V23.3791H54.5484V23.8645L52.9751 24.1015V35.6572H52.0871L44.5174 24.6155V34.9234L46.165 35.1718V35.6572H41.979V35.1718L43.5552 34.9234V24.1015L41.979 23.8645V23.3791H45.6967L52.0128 32.4706V24.1015Z" fill="#3B3A64"/>
<path d="M72.4173 24.5983L70.3129 30.5575H74.5874L72.4173 24.5983ZM70.45 35.1718V35.6572H66.4125V35.1718L67.8031 34.9234L71.989 23.2792H73.728L78.0767 34.9234L79.6329 35.1718V35.6572H74.4418V35.1718L76.0894 34.9234L74.8701 31.3798H70.0388L68.8024 34.9234L70.45 35.1718Z" fill="#3B3A64"/>
<path d="M49.0917 55.6078V56.533H44.6316V50.5881H48.9718V51.5132H45.7366V53.058H48.6063V53.966H45.7366V55.6078H49.0917Z" fill="#3B3A64"/>
<path d="M55.9303 56.4216C55.502 56.2931 55.165 56.119 54.9166 55.9048L55.2992 55.0453C55.5419 55.2395 55.8389 55.3966 56.193 55.5165C56.5471 55.6393 56.904 55.6992 57.2609 55.6992C57.7006 55.6992 58.0319 55.6278 58.2489 55.4879C58.4659 55.348 58.5744 55.1595 58.5744 54.9283C58.5744 54.7569 58.5144 54.617 58.3916 54.5057C58.2717 54.3972 58.1175 54.3115 57.9319 54.2487C57.7434 54.1859 57.4893 54.1145 57.1667 54.0374C56.7127 53.9289 56.3472 53.8204 56.0673 53.7147C55.7875 53.6062 55.5448 53.4377 55.3449 53.2093C55.1422 52.978 55.0422 52.6697 55.0422 52.2785C55.0422 51.9501 55.1308 51.6503 55.3107 51.3819C55.4877 51.1135 55.759 50.8993 56.1187 50.7394C56.4757 50.5824 56.9182 50.5024 57.4379 50.5024C57.8006 50.5024 58.1575 50.5481 58.5087 50.6395C58.8599 50.728 59.1626 50.8593 59.4167 51.0307L59.0683 51.8873C58.8085 51.7359 58.5372 51.6189 58.2517 51.5389C57.969 51.459 57.6949 51.419 57.4294 51.419C56.9925 51.419 56.6698 51.4932 56.4585 51.6417C56.2444 51.7874 56.1387 51.9844 56.1387 52.2271C56.1387 52.3955 56.1987 52.5355 56.3215 52.644C56.4443 52.7496 56.5984 52.8353 56.784 52.8981C56.9696 52.9609 57.2266 53.0323 57.5493 53.1094C57.989 53.2122 58.3517 53.3178 58.6343 53.4292C58.9199 53.5405 59.1597 53.709 59.3625 53.9346C59.5623 54.1602 59.6623 54.4657 59.6623 54.8512C59.6623 55.1795 59.5737 55.4765 59.3939 55.742C59.2168 56.0076 58.9456 56.2217 58.5829 56.3788C58.2203 56.5387 57.7806 56.6187 57.2609 56.6187C56.8012 56.6187 56.3586 56.553 55.9303 56.4216Z" fill="#3B3A64"/>
<path d="M66.9749 51.5218H65.0046V50.5881H70.0472V51.5218H68.077V56.533H66.9749V51.5218Z" fill="#3B3A64"/>
<path d="M78.5221 55.5964C78.959 55.5964 79.3416 55.5136 79.6728 55.348C80.004 55.1824 80.261 54.9425 80.4381 54.6341C80.6151 54.3257 80.7065 53.966 80.7065 53.5605C80.7065 53.1522 80.6151 52.7953 80.4381 52.4869C80.261 52.1785 80.004 51.9415 79.6728 51.773C79.3416 51.6046 78.959 51.5218 78.5221 51.5218H77.0801V55.5964H78.5221ZM75.9751 50.5881H78.5735C79.2074 50.5881 79.7699 50.7108 80.2639 50.9564C80.7579 51.2048 81.1376 51.5532 81.4089 52.0015C81.683 52.4526 81.8172 52.9723 81.8172 53.5605C81.8172 54.1487 81.683 54.6684 81.4089 55.1195C81.1376 55.5678 80.7579 55.9162 80.2639 56.1618C79.7699 56.4102 79.2074 56.533 78.5735 56.533H75.9751V50.5881Z" fill="#3B3A64"/>
<path d="M162.804 55.5964V56.533H158.421V55.7934L160.783 53.5519C161.048 53.2978 161.228 53.0751 161.323 52.8838C161.414 52.6953 161.462 52.5069 161.462 52.3184C161.462 52.0443 161.368 51.8302 161.18 51.6845C160.994 51.536 160.72 51.4618 160.357 51.4618C159.752 51.4618 159.287 51.6703 158.964 52.0843L158.193 51.4875C158.424 51.1763 158.736 50.9336 159.13 50.7622C159.524 50.5909 159.963 50.5024 160.452 50.5024C161.097 50.5024 161.611 50.6566 161.996 50.9621C162.382 51.2676 162.573 51.6845 162.573 52.2099C162.573 52.5326 162.505 52.8353 162.37 53.1179C162.233 53.4035 161.974 53.7261 161.588 54.0859L160 55.5964H162.804Z" fill="#3B3A64"/>
<path d="M171.996 55.131C172.241 54.7798 172.364 54.2573 172.364 53.5606C172.364 52.8638 172.241 52.3384 171.996 51.9901C171.747 51.6389 171.413 51.4618 170.988 51.4618C170.568 51.4618 170.237 51.6389 169.991 51.9901C169.743 52.3384 169.62 52.8638 169.62 53.5606C169.62 54.2573 169.743 54.7798 169.991 55.131C170.237 55.4822 170.568 55.6564 170.988 55.6564C171.413 55.6564 171.747 55.4822 171.996 55.131ZM169.714 56.256C169.34 56.0162 169.046 55.665 168.832 55.2052C168.618 54.7427 168.509 54.1944 168.509 53.5606C168.509 52.9267 168.618 52.3784 168.832 51.9187C169.046 51.4561 169.34 51.1049 169.714 50.8622C170.088 50.6252 170.514 50.5024 170.988 50.5024C171.465 50.5024 171.89 50.6252 172.267 50.8622C172.644 51.1049 172.938 51.4561 173.155 51.9187C173.369 52.3784 173.475 52.9267 173.475 53.5606C173.475 54.1944 173.369 54.7427 173.155 55.2052C172.938 55.665 172.644 56.0162 172.267 56.256C171.89 56.4987 171.465 56.6187 170.988 56.6187C170.514 56.6187 170.088 56.4987 169.714 56.256Z" fill="#3B3A64"/>
<path d="M183.583 55.5964V56.533H179.2V55.7934L181.561 53.5519C181.827 53.2978 182.007 53.0751 182.101 52.8838C182.192 52.6953 182.241 52.5069 182.241 52.3184C182.241 52.0443 182.147 51.8302 181.961 51.6845C181.773 51.536 181.499 51.4618 181.136 51.4618C180.531 51.4618 180.065 51.6703 179.745 52.0843L178.972 51.4875C179.203 51.1763 179.517 50.9336 179.908 50.7622C180.302 50.5909 180.742 50.5024 181.23 50.5024C181.875 50.5024 182.389 50.6566 182.775 50.9621C183.16 51.2676 183.352 51.6845 183.352 52.2099C183.352 52.5326 183.286 52.8353 183.149 53.1179C183.012 53.4035 182.752 53.7261 182.367 54.0859L180.779 55.5964H183.583Z" fill="#3B3A64"/>
<path d="M193.62 55.5964V56.533H189.237V55.7934L191.598 53.5519C191.864 53.2978 192.043 53.0751 192.138 52.8838C192.232 52.6953 192.278 52.5069 192.278 52.3184C192.278 52.0443 192.183 51.8302 191.998 51.6845C191.809 51.536 191.535 51.4618 191.173 51.4618C190.567 51.4618 190.102 51.6703 189.782 52.0843L189.008 51.4875C189.239 51.1763 189.554 50.9336 189.948 50.7622C190.339 50.5909 190.781 50.5024 191.267 50.5024C191.912 50.5024 192.426 50.6566 192.812 50.9621C193.197 51.2676 193.388 51.6845 193.388 52.2099C193.388 52.5326 193.323 52.8353 193.186 53.1179C193.051 53.4035 192.789 53.7261 192.403 54.0859L190.816 55.5964H193.62Z" fill="#3B3A64"/>
<path d="M171.468 24.5983L169.36 30.5575H173.635L171.468 24.5983ZM169.497 35.1718V35.6572H165.463V35.1718L166.853 34.9234L171.036 23.2792H172.775L177.124 34.9234L178.68 35.1718V35.6572H173.489V35.1718L175.137 34.9234L173.92 31.3798H169.086L167.85 34.9234L169.497 35.1718Z" fill="#3B3A64"/>
<path d="M198.591 26.7856C198.591 25.8518 198.362 25.1894 197.908 24.7953C197.454 24.4013 196.655 24.2043 195.516 24.2043H193.951V29.4496H195.57C196.661 29.4496 197.437 29.2469 197.9 28.8386C198.36 28.4359 198.591 27.7507 198.591 26.7856ZM193.951 30.2748V34.9234L195.807 35.1718V35.6572H190.727V35.1718L192.183 34.9234V24.1015L190.607 23.8645V23.3791H195.91C197.446 23.3791 198.582 23.6389 199.313 24.1586C200.047 24.6754 200.413 25.5092 200.413 26.6571C200.413 27.4737 200.19 28.1818 199.744 28.7758C199.299 29.3725 198.682 29.7866 197.894 30.0178L201.218 34.9234L202.546 35.1718V35.6572H199.607L196.155 30.2748H193.951Z" fill="#3B3A64"/>
<path d="M217.83 34.9234L219.407 35.1718V35.6572H214.501V35.1718L216.074 34.9234V24.1015L214.501 23.8645V23.3791H219.407V23.8645L217.83 24.1015V34.9234Z" fill="#3B3A64"/>
<path d="M237.504 24.5983L235.397 30.5575H239.674L237.504 24.5983ZM235.534 35.1718V35.6572H231.499V35.1718L232.89 34.9234L237.073 23.2792H238.812L243.161 34.9234L244.717 35.1718V35.6572H239.526V35.1718L241.176 34.9234L239.957 31.3798H235.123L233.886 34.9234L235.534 35.1718Z" fill="#3B3A64"/>
</svg>
