<svg width="131" height="80" viewBox="0 0 131 80" fill="none" xmlns="http://www.w3.org/2000/svg">
<path d="M18.2624 46.1208C15.9716 46.1208 14.1871 45.4971 12.9084 44.2496C11.63 43.0021 10.9902 41.254 10.9902 39.0054C10.9902 36.5759 11.6053 34.7361 12.8347 33.4886C14.0642 32.2437 15.8874 31.62 18.3043 31.62C19.7725 31.62 21.35 31.7982 23.0359 32.1573L23.0988 35.2446H22.4035L22.0875 33.41C21.5953 33.1086 21.0247 32.8753 20.375 32.7102C19.7251 32.5451 19.0628 32.4613 18.3882 32.4613C16.583 32.4613 15.2653 32.9933 14.4368 34.0521C13.6076 35.1135 13.193 36.7594 13.193 38.9844C13.193 41.0365 13.6268 42.6038 14.4942 43.6861C15.362 44.7685 16.6249 45.3084 18.2834 45.3084C19.0843 45.3084 19.8391 45.2114 20.5491 45.0175C21.2582 44.8262 21.8204 44.5667 22.235 44.2444L22.625 42.1372H23.3101L23.2466 45.4552C21.7009 45.8981 20.0396 46.1208 18.2624 46.1208Z" fill="#3B3A64"/>
<path d="M35.9415 33.1794L33.518 40.038H38.4391L35.9415 33.1794ZM33.6758 45.3503V45.9086H29.0281V45.3503L30.6302 45.0673L35.4464 31.6619H37.4487L42.4544 45.0673L44.246 45.3503V45.9086H38.2706V45.3503L40.1672 45.0673L38.7656 40.9867H33.2017L31.7786 45.0673L33.6758 45.3503Z" fill="#3B3A64"/>
<path d="M55.37 32.3355L53.1885 32.6106V45.0018H55.9707C57.4672 45.0018 58.5669 44.9336 59.2695 44.7921L59.9229 41.8516H60.6077L60.4179 45.9086H49.3419V45.3503L51.1545 45.0673V32.6106L49.3419 32.3355V31.7772H55.37V32.3355Z" fill="#3B3A64"/>
<path d="M73.3444 33.1794L70.921 40.038H75.8423L73.3444 33.1794ZM71.0787 45.3503V45.9086H66.431V45.3503L68.0331 45.0673L72.8494 31.6619H74.8516L79.8574 45.0673L81.6489 45.3503V45.9086H75.6735V45.3503L77.5702 45.0673L76.1686 40.9867H70.6046L69.1816 45.0673L71.0787 45.3503Z" fill="#3B3A64"/>
<path d="M95.9344 35.6979C95.9344 34.6234 95.6729 33.8581 95.1498 33.4047C94.6259 32.9513 93.7073 32.726 92.394 32.726H90.5914V38.7643H92.4569C93.7146 38.7643 94.6086 38.531 95.139 38.0619C95.6695 37.5954 95.9344 36.8065 95.9344 35.6979ZM90.5914 39.713V45.0673L92.731 45.3503V45.9086H86.8822V45.3503L88.5574 45.0673V32.6106L86.7449 32.3355V31.7772H92.8469C94.6175 31.7772 95.9237 32.076 96.7673 32.6736C97.6104 33.2711 98.0316 34.2303 98.0316 35.5486C98.0316 36.4921 97.7753 37.3045 97.2624 37.9885C96.7492 38.6752 96.04 39.1495 95.1335 39.4169L98.9591 45.0673L100.487 45.3503V45.9086H97.1046L93.1312 39.713H90.5914Z" fill="#3B3A64"/>
<path d="M111.96 33.1794L109.536 40.038H114.457L111.96 33.1794ZM109.694 45.3503V45.9086H105.046V45.3503L106.648 45.0673L111.464 31.6619H113.466L118.472 45.0673L120.264 45.3503V45.9086H114.289V45.3503L116.185 45.0673L114.784 40.9867H109.22L107.797 45.0673L109.694 45.3503Z" fill="#3B3A64"/>
<path d="M67.8636 21.3675C67.5999 21.6637 67.271 21.7947 67.0145 22.0096C65.5308 22.1983 64.0139 22.3032 62.454 22.2979L60.3511 22.2141C63.3687 22.2874 66.006 21.7397 67.8636 21.3675ZM68.9947 21.1474C71.8291 20.5158 74.5396 19.4753 76.9682 18.0156C76.6912 18.4663 76.4278 18.7625 76.0853 19.0508C73.677 20.2747 71.1378 21.171 68.3888 21.7318C68.5602 21.5851 68.8168 21.3702 68.9947 21.1474ZM78.2254 17.2477C79.4035 16.4745 80.5883 15.6228 81.6222 14.6793C82.735 13.741 83.7755 12.7189 84.7439 11.6103C84.7169 11.9248 84.6901 12.2419 84.5845 12.5486C83.7081 13.5078 82.7534 14.4591 81.7263 15.324C80.4421 16.4038 79.1718 17.3289 77.7503 18.1597C77.9348 17.8583 78.1195 17.5569 78.2254 17.2477ZM84.741 6.05164L84.2996 2.83591L84.221 2.83067L84.3466 6.01754C83.645 4.92467 82.6098 3.09011 83.2762 1.79807C83.8368 0.812645 84.8487 1.05639 85.3338 1.89243C86.0218 3.14255 85.3938 4.91683 84.741 6.05164ZM81.9721 3.11634L81.8932 3.10846C82.187 4.32451 82.7306 5.40428 83.6164 6.19314C82.7036 5.71878 81.9889 4.78316 81.6752 3.80561C81.5442 3.47539 81.4202 3.06916 81.4535 2.67342C81.5997 1.89242 82.2106 2.18333 82.6635 2.45851C82.6569 2.53713 82.6501 2.61839 82.6436 2.69702C82.6147 3.96286 83.3027 5.21296 84.0108 6.22721C83.0461 5.43048 82.2659 4.33239 81.9721 3.11634ZM85.9463 1.22937C85.7817 1.29489 85.6963 1.36827 85.5319 1.43379C84.5937 0.31995 83.1337 0.673748 82.697 2.06539C82.5461 1.97366 82.3951 1.88194 82.2373 1.86622C82.7728 0.243946 85.0149 0.0395317 85.9463 1.22937ZM87.1461 3.00102C87.0654 3.94712 86.5905 4.85917 85.9777 5.52223C86.5116 4.85131 86.8222 4.00478 86.975 3.14516L86.9818 3.06654C86.7299 4.15679 86.0836 5.21297 85.2997 6.02018C85.8808 4.79889 86.4228 3.09799 85.7416 1.76925C86.9063 1.15336 87.2268 2.05491 87.1461 3.00102ZM92.8201 2.61051C93.0838 2.31436 93.354 1.94221 93.7686 1.73779C94.5121 1.40495 94.6091 2.12829 94.641 2.68652C94.5622 2.67866 94.4767 2.75205 94.391 2.82281C93.2984 3.52518 92.6186 4.97448 92.117 6.20364C92.3098 4.86965 92.7462 3.47801 93.708 2.44804L93.6292 2.44016C92.753 3.39937 92.1002 4.53419 91.907 5.86818C91.7645 4.74386 92.1875 3.50944 92.8201 2.61051ZM95.6598 2.85163C96.863 2.71535 97.2555 3.7034 96.853 4.70192C96.1797 6.0726 94.2264 6.62033 92.8584 6.82213L95.3743 4.33762L92.5766 6.4002C93.0853 5.09504 94.0621 2.95384 95.6598 2.85163ZM97.7928 4.85917C97.6416 4.76744 97.4906 4.67572 97.3394 4.58399C97.7826 3.11372 96.5291 1.97367 95.0556 2.48211C95.069 2.32486 95.0038 2.15975 94.9382 1.99726C96.6551 1.42855 98.3282 3.23952 97.7928 4.85917ZM96.9667 7.09207C96.0521 7.57167 95.0067 7.72108 93.9879 7.55334C94.9411 7.55597 95.8356 7.31484 96.8226 6.92172L96.8294 6.84309C95.7502 7.3856 94.3168 7.42231 93.1404 7.24409C94.5871 7.04753 96.4683 6.41592 97.2204 5.05048C98.4422 5.62968 97.8882 6.53646 96.9667 7.09207ZM81.1364 25.0393C81.509 26.2632 80.6211 26.4257 79.6881 26.1872C78.7616 25.8701 78.02 25.2516 77.4494 24.4889C78.0268 25.173 78.7818 25.6342 79.6294 25.9435L79.7015 26.0299L79.7083 25.9513C78.6309 25.5425 77.7516 24.6724 77.1155 23.7446C78.238 24.5544 79.7484 25.477 81.1364 25.0393ZM77.2565 22.0909C77.8826 21.2706 78.9616 20.7255 79.9284 20.5708C80.3297 20.5237 80.8027 20.5656 81.1115 20.6704C81.8867 20.8958 81.4456 21.4147 81.0897 21.8602C81.0108 21.8524 80.9387 21.7685 80.8596 21.7607C79.6899 21.5038 78.3022 21.9389 77.1506 22.3975C78.1712 21.6113 79.3225 21.1526 80.598 21.1029L80.6046 21.0242C79.3293 21.074 78.2702 21.3807 77.2565 22.0909ZM81.6684 25.3249C81.6028 25.1598 81.6162 25.0026 81.551 24.8375C82.8013 24.1508 82.7712 22.6386 81.4773 21.973C81.563 21.8996 81.6553 21.7502 81.7475 21.5982C83.1858 22.4368 82.9976 24.6435 81.6684 25.3249ZM77.2749 22.8064C78.5053 22.3556 80.5509 21.6558 81.6602 22.6229C82.4743 23.3279 82.078 24.2478 81.0978 24.5597C79.7887 25.0052 78.1995 24.0748 77.2348 23.2781L80.4819 23.396L80.4888 23.3174L77.2749 22.8064ZM39.375 56.5963H1.75037V23.0658H63.7948L63.7078 23.016C65.7135 22.9479 67.6888 22.6544 69.6174 22.2324C70.0048 22.3451 70.3927 22.4578 70.7803 22.5705C72.8628 23.3043 75.0917 23.2545 76.3738 23.1261C76.7981 24.6698 78.0249 26.1243 79.5757 26.5751C80.3509 26.8005 81.383 26.8083 81.628 25.7967C83.444 25 83.7647 22.1669 81.9388 21.2182C81.9792 20.7438 81.6904 20.4031 81.2307 20.2039C80.8431 20.0912 80.3632 20.1305 79.8831 20.1698C78.4364 20.3638 77.0081 21.2732 76.4928 22.6596C75.2962 22.7173 73.0745 22.6858 70.9983 21.8734C74.9054 20.7779 78.4851 18.8594 81.639 16.3487C83.6193 15.4839 85.7353 15.8246 87.0496 16.2544C88.2712 16.8336 89.2427 17.5517 90.0819 18.8935C89.2092 17.9474 87.5345 17.0878 86.6937 16.6999C86.7708 17.6591 86.9335 18.5476 87.4388 19.1451C88.088 19.9156 89.2375 20.411 91.3084 20.3481C91.2497 20.1043 91.191 19.8632 91.0603 19.533C90.7733 18.2383 90.3689 16.4562 88.246 16.1967C87.5562 15.9006 85.3427 14.8365 82.8372 15.3397C83.9634 14.2442 85.0896 13.1487 86.0648 11.9615L86.1436 11.9667C88.9395 10.8555 91.212 8.42868 92.1015 7.31484C93.6119 8.23736 95.6694 8.33172 97.2487 7.51403C98.0056 7.02132 98.7963 6.1381 98.1534 5.28897C98.9659 3.2133 96.9455 0.817905 94.742 1.50455C94.46 1.08261 93.9801 1.12191 93.4866 1.31585C93.0722 1.52028 92.7161 1.9658 92.4461 2.34057C91.543 3.61428 91.0663 5.47767 91.8129 6.97152C90.9436 7.84949 89.2836 9.61328 87.1319 10.6223C87.1621 10.5804 85.4153 11.191 85.4153 11.191C85.4287 11.0338 85.4515 10.8084 85.4103 10.3156C85.3737 8.88469 85.0799 7.66866 84.8317 6.85359C86.3185 6.18528 87.4784 4.69667 87.6194 3.04033C87.6351 2.85688 87.6323 2.66031 87.6097 2.46637C87.5329 2.27767 87.4737 2.08636 87.4587 1.88718C87.2868 1.49406 86.9702 1.19529 86.4262 1.19267C85.2987 -0.4925 82.4121 -0.183235 81.8497 1.75353C81.3696 1.79284 81.0994 2.16761 80.9802 2.63411C80.9466 3.02723 81.064 3.51468 81.1882 3.92091C81.7051 5.31517 82.8663 6.60724 84.3515 6.89029C84.5932 7.7866 84.8532 9.39577 84.7842 11.136C83.7301 12.318 82.604 13.4134 81.4778 14.5089C80.5362 15.3004 79.5159 16.0866 78.509 16.7156C78.9973 15.6464 79.3615 14.1682 79.4239 12.5066L79.5025 12.5145C79.5112 11.4819 79.6071 9.42459 79.0046 8.10371C79.9947 9.53728 80.196 10.9053 80.1473 12.4097C82.2232 9.49011 80.2935 7.89666 78.9611 6.74876C78.7446 6.49192 78.4492 6.22985 78.2262 6.05164C77.0982 8.1011 76.9774 9.51892 77.4486 10.5122C77.7104 11.17 78.2223 11.689 78.8987 12.145C78.8615 14.4434 78.1549 16.2098 77.4164 17.418C74.9023 18.9512 72.1853 20.0676 69.3438 20.7805C69.9631 20.0388 70.6026 19.0613 71.1045 17.8321C71.4082 17.0642 72.0294 15.3712 71.979 14.0948C72.3315 15.5546 72.0729 16.7235 71.6499 17.9579C74.1907 16.1102 73.0766 14.2678 72.3166 12.9338C72.179 12.6822 72.0414 12.4333 71.9038 12.1843C70.4351 13.5681 69.9466 14.6373 70.0239 15.5965C70.0488 16.2334 70.3174 16.8126 70.7436 17.4049C70.1293 19.0193 69.233 20.2144 68.3705 21.0137C66.2114 21.4724 63.984 21.8812 61.7134 21.8734L61.6492 21.8367H0.521484V57.8254H39.375V56.5963Z" fill="#3B3A64"/>
<path d="M63.3906 58.2709C63.6543 57.9774 63.9832 57.8464 64.24 57.6289C65.6073 57.4559 69.5757 57.351 71.0069 57.3379L68.4328 57.5476C66.7161 57.6367 65.0294 57.9433 63.3906 58.2709ZM62.2597 58.4937C59.4251 59.1253 56.7147 60.1658 54.286 61.6256C54.563 61.1722 54.8266 60.876 55.1689 60.5877C57.5774 59.3638 60.1165 58.4701 62.8654 57.9093C62.6943 58.0534 62.4374 58.2709 62.2597 58.4937ZM53.0288 62.3908C51.851 63.164 50.6659 64.0157 49.632 64.9618C48.5194 65.8975 47.4787 66.9222 46.5103 68.0308C46.5373 67.7137 46.5641 67.3992 46.6697 67.0899C47.5461 66.1333 48.5008 65.182 49.5282 64.3171C50.8121 63.2347 52.0827 62.3122 53.5039 61.4788C53.3194 61.7802 53.1347 62.0842 53.0288 62.3908ZM46.5132 73.5895L46.9546 76.8026L47.0332 76.8104L46.9077 73.6236C47.6092 74.7138 48.6445 76.551 47.978 77.843C47.4177 78.8285 46.4055 78.5821 45.9207 77.7461C45.2324 76.4986 45.8604 74.7243 46.5132 73.5895ZM49.2824 76.5248L49.361 76.5326C49.0675 75.3166 48.5236 74.2368 47.6378 73.448C48.5506 73.9223 49.2656 74.8553 49.5793 75.8355C49.7101 76.1631 49.8343 76.572 49.8008 76.9651C49.6548 77.7487 49.0439 77.4578 48.5907 77.18C48.5975 77.1014 48.6041 77.0227 48.6109 76.9441C48.6395 75.6756 47.9515 74.4255 47.2434 73.4139C48.2084 74.2106 48.9886 75.3087 49.2824 76.5248ZM45.3079 78.4091C45.4725 78.3436 45.5579 78.2728 45.7225 78.2073C46.6608 79.3185 48.1206 78.9674 48.5572 77.5757C48.7081 77.6674 48.8591 77.7592 49.0169 77.7723C48.4814 79.3945 46.2394 79.6016 45.3079 78.4091ZM44.1081 76.6401C44.1888 75.694 44.6637 74.7819 45.2765 74.1189C44.7426 74.7872 44.4321 75.6363 44.2795 76.4959L44.2727 76.5746C44.5243 75.4843 45.1706 74.4281 45.9545 73.6209C45.3737 74.8422 44.8315 76.5431 45.5126 77.8719C44.3479 78.4877 44.0277 77.5862 44.1081 76.6401ZM38.4341 77.0306C38.1705 77.3241 37.9002 77.6989 37.4859 77.9033C36.7424 78.2362 36.6451 77.5128 36.6132 76.9546C36.6921 76.9598 36.7778 76.8891 36.8632 76.8157C37.9558 76.1159 38.6356 74.664 39.1373 73.4375C38.9444 74.7715 38.508 76.1631 37.5462 77.1931L37.6251 77.1983C38.5012 76.2417 39.154 75.1069 39.3472 73.773C39.4898 74.8973 39.0668 76.1317 38.4341 77.0306ZM35.5945 76.7869C34.3913 76.9231 33.9987 75.9377 34.4015 74.9392C35.0745 73.5659 37.028 73.0182 38.3958 72.819L35.8799 75.3035L38.6776 73.2383C38.1689 74.5461 37.1921 76.6847 35.5945 76.7869ZM33.4617 74.7793C33.6126 74.871 33.7636 74.9654 33.9148 75.0571C33.4716 76.5274 34.7252 77.6674 36.1986 77.1564C36.1852 77.3136 36.2507 77.4787 36.316 77.6438C34.5991 78.2126 32.926 76.4016 33.4617 74.7793ZM34.2875 72.5464C35.2021 72.0694 36.2476 71.92 37.2665 72.0851C36.3131 72.0851 35.4186 72.3263 34.4319 72.7194L34.4251 72.798C35.5041 72.2529 36.9374 72.2162 38.1138 72.397C36.6672 72.591 34.786 73.2252 34.0341 74.5906C32.8122 74.0088 33.366 73.1046 34.2875 72.5464ZM50.1179 54.5992C49.7455 53.3753 50.6331 53.2128 51.5661 53.4539C52.4926 53.7684 53.2345 54.3896 53.8048 55.1522C53.2277 54.4682 52.4724 54.0069 51.6248 53.695L51.5527 53.6112L51.5462 53.6898C52.6233 54.0986 53.5029 54.9661 54.139 55.8939C53.0162 55.0841 51.5058 54.1615 50.1179 54.5992ZM53.9977 57.5502C53.3716 58.3705 52.2926 58.913 51.3258 59.0703C50.9248 59.1148 50.4515 59.0755 50.1428 58.9707C49.3675 58.7453 49.8086 58.2264 50.1645 57.7809C50.2437 57.7861 50.3155 57.8726 50.3946 57.8778C51.5643 58.1373 52.9523 57.6996 54.1036 57.241C53.083 58.0298 51.9317 58.4858 50.6564 58.5356L50.6496 58.6143C51.9252 58.5645 52.984 58.2578 53.9977 57.5502ZM49.5858 54.3162C49.6514 54.4813 49.638 54.6385 49.7033 54.8036C48.4531 55.4903 48.483 57.0025 49.7769 57.6682C49.6915 57.7389 49.5992 57.8909 49.5067 58.0403C48.0687 57.2043 48.2568 54.9976 49.5858 54.3162ZM53.9794 56.8347C52.7492 57.2855 50.7034 57.9853 49.594 57.0156C48.7802 56.3132 49.1762 55.3933 50.1564 55.0788C51.4655 54.6359 53.0547 55.5636 54.0197 56.363L50.7723 56.2451L50.7655 56.3237L53.9794 56.8347ZM93.1332 21.8367V23.0658H129.504V56.5963H68.4328V56.6015C66.1212 56.5989 63.8493 56.9238 61.6371 57.4087C61.2494 57.296 60.8618 57.1833 60.4739 57.0706C58.3915 56.3368 56.1627 56.384 54.8804 56.515C54.4561 54.9687 53.2293 53.5142 51.6788 53.066C50.9033 52.8406 49.8713 52.8328 49.6262 53.8418C47.8103 54.6411 47.4897 57.4716 49.3154 58.4229C49.275 58.8947 49.5638 59.238 50.0235 59.4346C50.4111 59.5473 50.8913 59.5106 51.3711 59.4713C52.8178 59.2773 54.2461 58.3653 54.7614 56.9815C55.958 56.9239 58.18 56.9553 60.2559 57.7651C56.3488 58.8632 52.7691 60.7817 49.6155 63.2924C47.6349 64.1546 45.5189 63.8165 44.2048 63.3867C42.983 62.8049 42.0115 62.0868 41.1726 60.745C42.045 61.6937 43.72 62.5507 44.5605 62.9412C44.4834 61.982 44.3209 61.0935 43.8156 60.496C43.1662 59.7255 42.0167 59.2301 39.9458 59.2904C40.0045 59.5342 40.0632 59.7779 40.194 60.1055C40.4812 61.4028 40.8853 63.1823 43.0082 63.4444C43.698 63.7405 45.9115 64.802 48.417 64.3014C47.2908 65.3969 46.1649 66.4924 45.1897 67.6796L45.1108 67.6717C42.3147 68.7856 40.0422 71.2124 39.1527 72.3263C37.6424 71.4037 35.5848 71.3068 34.0055 72.1271C33.2486 72.6172 32.4582 73.503 33.1008 74.3521C32.2883 76.4278 34.3087 78.8232 36.5125 78.1366C36.7943 78.5585 37.2744 78.5192 37.7676 78.3226C38.1822 78.1208 38.5381 77.6753 38.8084 77.3005C39.7112 76.0268 40.1879 74.1608 39.4413 72.6696C40.3106 71.789 41.9706 70.0252 44.1223 69.0188C44.0921 69.0608 45.8392 68.4501 45.8392 68.4501C45.8255 68.6073 45.8027 68.8301 45.8439 69.3228C45.8808 70.7564 46.1746 71.9725 46.4228 72.7875C44.9358 73.4558 43.7761 74.9444 43.6348 76.6008C43.6193 76.7816 43.622 76.9782 43.6445 77.1747C43.7216 77.3608 43.7805 77.5547 43.7957 77.7539C43.9674 78.147 44.284 78.4432 44.8281 78.4484C45.9555 80.1336 48.8423 79.8217 49.4045 77.885C49.8846 77.8457 50.1548 77.4735 50.2741 77.007C50.3076 76.6113 50.1902 76.1264 50.066 75.7176C49.5492 74.3233 48.3879 73.0339 46.9027 72.7482C46.661 71.8545 46.4011 70.2453 46.47 68.5025C47.5241 67.3232 48.6502 66.2277 49.7764 65.1322C50.718 64.3381 51.7386 63.5519 52.7452 62.9229C52.257 63.9948 51.8927 65.4703 51.8303 67.1345L51.7517 67.1266C51.743 68.1592 51.6474 70.2139 52.2496 71.5374C51.2595 70.1038 51.0582 68.7358 51.107 67.2314C49.031 70.151 50.9607 71.7445 52.2931 72.8897C52.5099 73.1466 52.8052 73.4113 53.028 73.5895C54.1562 71.54 54.2771 70.1222 53.8056 69.1289C53.5438 68.4711 53.0319 67.9495 52.3558 67.4961C52.3927 65.1951 53.0993 63.4313 53.8378 62.2231C56.352 60.6899 59.0692 59.5709 61.9104 58.8606C61.2911 59.6023 60.6516 60.5799 60.1497 61.8064C59.846 62.5769 59.2249 64.2699 59.2752 65.5437C58.9227 64.0839 59.1814 62.915 59.6044 61.6806C57.0635 63.5309 58.1776 65.3707 58.9376 66.7073C59.0755 66.9562 59.2128 67.2079 59.3504 67.4568C60.8191 66.0731 61.3076 65.0038 61.2306 64.0446C61.2054 63.4051 60.9368 62.8285 60.5106 62.2362C61.1249 60.6192 62.0213 59.4267 62.8838 58.6248C64.6903 58.2421 66.5453 57.8962 68.4328 57.7966V57.8254H130.733V21.8367H93.1332Z" fill="#3B3A64"/>
</svg>
