<svg width="70" height="94" viewBox="0 0 70 94" fill="none" xmlns="http://www.w3.org/2000/svg">
<path d="M42.2033 25.4022L41.689 25.093C46.6445 16.8701 45.9597 9.13985 45.9522 9.06303L46.549 9.00495C46.5565 9.08364 47.26 17.0106 42.2033 25.4022Z" fill="#3B3A64"/>
<path d="M46.223 10.9328C45.5017 11.9398 43.5841 15.4752 43.2712 17.6269L42.9967 19.478C42.7466 21.1586 42.3953 23.5155 42.2717 24.6096C43.3827 23.6654 46.1996 20.9853 46.9078 17.5707C47.5907 14.2808 46.6473 11.819 46.223 10.9328ZM41.912 25.5951L41.7611 25.4883C41.5447 25.3272 41.5223 25.3103 42.4038 19.389L42.6773 17.5408C43.0333 15.0949 45.5307 10.4728 46.1508 10.1506L46.3982 10.0222L46.5443 10.2583C46.6202 10.381 48.4019 13.3206 47.4942 17.6925C46.5452 22.2696 42.1162 25.4986 42.074 25.5183L41.912 25.5951Z" fill="#3B3A64"/>
<path d="M61.6179 19.4068C54.4029 19.018 49.9926 15.419 49.808 15.2653L50.1912 14.8044C50.2352 14.841 54.6427 18.4307 61.6507 18.8082L61.6179 19.4068Z" fill="#3B3A64"/>
<path d="M51.3068 15.8808C51.7293 16.56 52.8291 18.0073 54.9499 18.8832C57.1579 19.7956 59.7387 19.316 60.8928 19.0181C60.119 18.6209 58.6914 17.9342 57.6525 17.4349L56.4197 16.8401C55.067 16.1843 52.3288 15.8874 51.3068 15.8808ZM57.9092 20.0101C56.8741 20.0101 55.7555 19.8649 54.7214 19.4377C51.66 18.1731 50.5949 15.849 50.5508 15.7516L50.4375 15.4977L50.682 15.3656C51.1419 15.1174 55.0333 15.5014 56.6811 16.3014L57.9129 16.8944C61.9251 18.8251 61.9261 18.8345 61.9364 19.0911L61.9439 19.271L61.7865 19.3656C61.6263 19.4602 59.9242 20.0101 57.9092 20.0101Z" fill="#3B3A64"/>
<path d="M16.9886 25.8097C19.0088 25.8097 21.1535 26.056 23.4739 26.5516C25.0616 26.8907 26.5807 27.1773 27.8573 27.4134C28.0584 27.4509 28.2785 27.4827 28.5076 27.5165C29.4205 27.6514 30.4548 27.8041 31.1589 28.3427C31.2163 28.3867 31.2768 28.4476 31.3392 28.5225C31.2152 28.2499 31.084 28.0026 30.945 27.7834C29.6793 25.79 27.0795 24.945 24.4586 24.3286C21.2699 23.5792 17.9995 23.2439 14.7311 23.3272C12.3143 23.39 10.7902 24.6874 9.1771 26.0617C8.76726 26.4101 8.34927 26.7661 7.90749 27.1108C7.99836 27.0893 8.0808 27.0706 8.14628 27.0556C8.31921 27.0143 8.46009 26.9816 8.5355 26.9666C10.1474 26.6378 12.0255 26.2659 13.9185 26.0111C14.9126 25.8771 15.9336 25.8097 16.9886 25.8097ZM20.8315 34.9535C20.9548 34.9535 21.0786 34.9554 21.2027 34.9591C23.6741 35.034 25.8734 35.8125 27.7391 37.2729C27.8496 37.3591 27.9569 37.4434 28.0618 37.524C27.9382 37.2373 27.8133 36.9788 27.711 36.7783C24.9352 32.9113 19.7937 31.3029 15.7771 33.0715C15.2334 33.3104 14.7018 33.6111 14.1874 33.9015C13.6164 34.2237 13.0263 34.5572 12.403 34.8195C11.3148 35.2767 10.1065 35.3703 8.59864 35.1118L8.43443 35.0884C8.41607 35.0856 8.39808 35.0837 8.3801 35.0809C8.83911 35.7703 9.42891 36.4289 10.2762 36.7661C11.6067 37.2945 13.0938 37.0181 14.1074 36.6931C14.6366 36.5226 15.1663 36.3099 15.6784 36.1038C16.2493 35.8743 16.8395 35.6364 17.4433 35.4518C18.5241 35.1202 19.6622 34.9535 20.8315 34.9535ZM13.908 37.3769C14.4607 38.0027 17.1232 40.5863 22.3123 39.2392C25.8228 38.3277 27.7512 38.8486 28.5748 39.1156C28.5419 38.9216 28.492 38.7193 28.4304 38.5151C28.0733 38.2959 27.7266 38.0242 27.3741 37.7488C25.6066 36.3643 23.5258 35.6289 21.1847 35.5586C19.9475 35.5202 18.7504 35.6785 17.6189 36.0242C17.0393 36.2022 16.4613 36.4345 15.9025 36.6593C15.3802 36.8692 14.8404 37.0865 14.2908 37.2636C14.1695 37.302 14.0415 37.3404 13.908 37.3769ZM5.87049 53.021C7.47808 55.2533 9.65832 57.1043 12.3116 58.4486C14.2565 59.435 16.5518 60.0683 18.7746 60.2332C21.1395 60.413 23.3482 59.7648 24.6807 58.5067C25.6978 57.5465 26.2006 56.2809 26.1752 54.7465C26.1369 52.4505 25.1846 50.5329 23.5625 49.4875C21.6851 48.2772 19.2813 47.627 16.7654 47.6617C11.2098 47.7357 7.81569 49.0612 6.38843 51.716C6.16754 52.1273 5.99695 52.5629 5.87049 53.021ZM38.4646 60.7999C38.5799 60.7999 38.7017 60.799 38.83 60.7943C40.5696 60.7334 40.7035 59.9334 40.7035 58.8093C40.7035 57.4275 42.5668 57.362 43.4633 57.3292C44.0056 57.3104 44.2333 57.5465 44.3176 57.7488C44.6005 58.4299 43.6291 59.4369 43.1982 59.8397C42.9471 60.0739 42.9434 60.1835 42.9434 60.1844C43.0464 60.3128 43.8932 60.3362 44.5686 59.9184C45.2338 59.5053 46.6192 58.6453 45.1494 55.0903C44.1574 52.6856 39.5447 50.1957 37.9916 50.8214C37.2131 51.1343 37.467 52.2715 37.8183 53.1708C38.8159 55.7338 38.6351 58.3474 38.474 60.6538C38.4712 60.7025 38.4675 60.7512 38.4646 60.7999ZM38.8515 65.7863C39.1344 66.3821 39.5663 66.9011 40.2117 67.3329C42.8094 69.0734 47.008 70.4112 49.2768 71.0191C48.786 70.6369 48.2605 70.1901 47.7658 69.7704C47.3443 69.4126 46.9621 69.0875 46.6773 68.8674L46.5752 68.7887C45.5607 68.0074 42.474 65.6308 40.7963 65.5287C40.015 65.4828 39.3743 65.6196 38.8515 65.7863ZM25.5913 72.0599C26.4171 72.0721 27.9799 72.0102 29.3604 71.6899C30.0867 71.5203 30.8861 71.2702 31.6589 71.0294C32.7779 70.68 33.8349 70.3503 34.5038 70.3231C34.7036 70.3156 35.0588 70.3184 35.4678 70.3156C36.3972 70.3081 37.7574 70.3156 39.0173 70.2322C40.7916 70.1161 42.4853 70.6163 44.119 71.1025L44.4553 71.2027C45.4455 71.495 47.6525 71.6552 49.1129 71.761C49.5054 71.7892 49.8136 71.8126 50.0562 71.8322C47.9223 71.3845 42.7288 69.7404 39.8782 67.8313C39.1073 67.3151 38.6042 66.695 38.282 65.9915C38.2529 66.0018 38.223 66.014 38.1949 66.0252C37.8464 66.1601 37.57 66.2669 37.3255 66.2669C37.3246 66.2669 37.3237 66.2669 37.3237 66.2669C36.9611 66.266 36.548 66.1329 36.1096 65.9934C35.6618 65.851 35.154 65.688 34.6483 65.6514C33.4598 65.5334 31.7549 66.5105 29.9696 68.324C28.8409 69.4716 27.5127 70.5236 26.5429 71.2908C26.1939 71.5662 25.8383 71.8482 25.5913 72.0599ZM28.9521 72.3868C29.7484 72.3943 30.6953 72.413 31.8204 72.4402C33.8387 72.487 35.926 72.5348 37.6103 72.4842C39.8567 72.4159 41.9597 72.3531 43.6169 72.3044C45.4417 72.251 46.7242 72.2135 47.0586 72.1995C45.9775 72.0983 44.9265 71.9671 44.2848 71.777L43.9476 71.6767C42.3644 71.2065 40.726 70.7175 39.0576 70.8299C37.778 70.9151 36.4131 70.9264 35.4678 70.9151C35.0448 70.9123 34.722 70.9142 34.5272 70.9226C33.9379 70.9461 32.9176 71.2646 31.8377 71.6018C31.0543 71.8463 30.2444 72.0992 29.4962 72.2735C29.3167 72.3156 29.1348 72.3531 28.9521 72.3868ZM49.5588 74.088C47.9466 75.2346 45.3799 76.4533 43.7433 77.1831C43.1476 77.4482 42.6248 77.9091 42.2211 78.473C46.1705 77.6636 48.4778 75.51 49.5588 74.088ZM25.6237 73.1287C26.3328 73.9821 28.777 75.8173 30.0407 76.7175L30.2597 76.8786C31.333 77.6786 33.5659 79.3386 40.4684 78.7287C40.801 78.6988 41.1232 78.6594 41.4352 78.6126C41.9251 77.7405 42.6473 77.0145 43.4989 76.6351C47.0314 75.0613 49.5513 73.5915 50.2408 72.7063C50.2595 72.6819 50.2923 72.6407 50.3354 72.5995C49.5644 72.6978 48.1621 72.754 47.4324 72.7831L47.112 72.7971C46.8235 72.8093 45.5167 72.8477 43.6347 72.903C41.9785 72.9526 39.8745 73.0145 37.6291 73.0838C35.9269 73.1362 33.8325 73.0866 31.8065 73.0397C29.371 72.9835 26.3847 72.9133 25.6237 73.1287ZM39.4595 93.14C24.3052 93.141 13.5246 79.9409 8.86834 68.5367C8.68689 68.0927 8.48707 67.6168 8.27668 67.1165C6.614 63.1624 4.2066 57.4341 5.22103 53.1427C3.93812 51.2982 3.02598 49.2102 2.53493 46.9432C0.221295 36.249 -0.0351905 27.893 1.72744 20.6462C2.78205 16.3117 4.70814 12.5338 7.6155 9.09768C13.3643 2.30423 24.824 -0.460183 32.5804 0.793216C42.933 2.46441 50.1855 10.574 53.556 24.2462L52.9734 24.3895C49.6188 10.7783 42.7251 3.03865 32.4852 1.38525C24.8942 0.159015 13.6851 2.85318 8.07293 9.48551C5.2273 12.8485 3.34214 16.5459 2.30973 20.7886C0.569398 27.9436 0.827386 36.2144 3.12116 46.8167C3.55873 48.8392 4.3444 50.7137 5.4392 52.3924C5.55508 52.0617 5.69484 51.7404 5.86028 51.4322C7.40004 48.5685 10.9647 47.138 16.7575 47.0622C19.375 47.0444 21.9116 47.7104 23.8872 48.9835C25.6803 50.1395 26.7329 52.236 26.7747 54.7371C26.8028 56.4224 26.2209 57.8772 25.0924 58.9423C23.6179 60.3343 21.2991 61.02 18.7302 60.8317C16.4305 60.6603 14.0548 60.0037 12.0408 58.9844C9.46984 57.6805 7.32745 55.9156 5.69953 53.7975C5.02665 57.8388 7.26543 63.1643 8.82937 66.8842C9.04052 67.3873 9.24108 67.8641 9.42338 68.31C14.0575 79.6599 24.8465 92.8477 39.9326 92.5358C40.2998 92.5293 40.6651 92.5077 41.0286 92.4721C44.4412 92.1452 47.8024 90.7775 50.7485 88.5171C52.0207 87.5409 53.764 86.2014 54.3757 84.6622C54.5649 84.1892 54.5705 83.7292 54.3935 83.332C54.194 82.8861 53.7687 82.5245 53.1963 82.3138C51.8483 81.8182 50.2071 81.7592 48.4497 82.1405C48.0366 82.2304 47.6047 82.3456 47.1288 82.4936C46.8319 82.5864 46.4797 82.7269 46.0965 82.8805C44.7176 83.4304 43.0014 84.117 41.852 83.4782C41.3106 83.1765 40.964 82.6173 40.8197 81.8135C40.6717 80.9798 40.7972 80.0824 41.126 79.2608C40.9274 79.2861 40.727 79.3067 40.5218 79.3245C33.3949 79.9643 31.0344 78.2042 29.9014 77.3592L29.6925 77.2065C29.2863 76.9161 25.7033 74.3493 25.0136 73.3152C24.9173 73.1709 24.9063 73.006 24.9843 72.8646C25.0319 72.7774 25.1135 72.7044 25.2416 72.6435C25.1475 72.6369 25.0699 72.6304 25.0117 72.6219L24.8165 72.5938L24.7076 72.3671C24.6237 72.0561 24.8669 71.8519 26.1709 70.8205C27.1283 70.0627 28.4397 69.0257 29.5419 67.9044C30.6659 66.7606 32.8193 64.8636 34.699 65.0547C35.2684 65.095 35.8127 65.2692 36.2923 65.4229C36.6848 65.5475 37.0558 65.6664 37.3246 65.6674C37.4567 65.6674 37.6993 65.5737 37.9775 65.466C38.0075 65.4538 38.0375 65.4425 38.0684 65.4304C37.6984 64.2482 37.7302 62.8674 37.8248 61.3657C36.4084 61.2205 35.8192 60.6069 35.4226 59.7451C35.0381 58.9076 33.8547 58.0458 32.9004 58.1835C32.5386 58.2369 32.3626 58.3549 32.3486 58.4495C32.3345 58.5432 32.4543 58.7418 32.7642 58.8889C33.162 59.0772 34.4523 59.7413 34.3551 60.354C34.3282 60.5254 34.1997 60.7428 33.7431 60.8018C32.5554 60.9507 30.4193 60.1826 29.6266 58.5732C28.8229 56.9395 29.465 54.7381 31.4345 52.3746C32.7085 50.8458 33.3712 42.9638 32.8774 36.3221C32.6132 37.3863 32.0672 38.1675 31.2702 38.6116C30.4478 39.0696 29.7601 39.0799 29.1317 38.857C29.1754 39.0715 29.2035 39.2804 29.2117 39.4799L29.2187 39.6495L29.0677 39.761C28.9163 39.8612 28.7691 39.8116 28.5255 39.7301C27.8394 39.5024 26.0163 38.8973 22.463 39.82C18.1018 40.9535 14.9329 39.4865 13.424 37.7347L13.8076 37.4041C12.739 37.6842 11.3456 37.8359 10.0545 37.3235C8.80286 36.8251 8.04173 35.7272 7.51836 34.8261L7.77747 34.6753L7.88089 34.397C7.97026 34.4214 8.30675 34.4654 8.51593 34.4945L8.69981 34.5207C10.0896 34.7577 11.1922 34.6781 12.1704 34.2668C12.7616 34.0186 13.3365 33.6935 13.8923 33.3797C14.4196 33.0818 14.9645 32.7736 15.5351 32.5226C19.8065 30.6406 25.2607 32.3361 28.2219 36.4673C28.4678 36.9469 28.734 37.5268 28.9287 38.1123C29.5571 38.4523 30.1777 38.5347 30.9782 38.0879C31.8467 37.6045 32.3392 36.6406 32.4426 35.2251C32.6366 32.5656 31.3431 29.2392 30.7944 28.8195C30.2136 28.3745 29.2609 28.234 28.4202 28.1104C28.1832 28.0757 27.9562 28.042 27.7481 28.0026C26.4674 27.7666 24.9433 27.478 23.3489 27.138C19.8854 26.3989 16.8267 26.2237 13.9985 26.605C12.1239 26.8579 10.2575 27.227 8.65523 27.5539C8.58347 27.5689 8.44838 27.5998 8.28295 27.6392C6.75686 27.9961 6.5562 28.0307 6.43798 27.7272C6.40716 27.6495 6.36576 27.4481 6.64604 27.2888C7.41101 26.7773 8.11124 26.1816 8.78834 25.6054C10.4846 24.1609 12.0872 22.7961 14.7155 22.7277C18.0311 22.6406 21.356 22.9834 24.596 23.745C27.3402 24.3905 30.0703 25.2869 31.4509 27.4621C34.3816 32.0776 34.2306 49.9558 31.895 52.7587C30.0864 54.9292 29.4717 56.9001 30.1644 58.3081C30.8798 59.761 32.8247 60.3231 33.6659 60.2069C33.674 60.206 33.6819 60.2051 33.6893 60.2041C33.505 60.0083 33.0253 59.6758 32.5071 59.4303C31.9903 59.184 31.6952 58.7652 31.7557 58.3605C31.7908 58.1264 31.9746 57.7142 32.813 57.5905C34.0628 57.3994 35.4851 58.4449 35.9672 59.495C36.2408 60.0908 36.607 60.6322 37.8651 60.7681C37.8689 60.7156 37.8726 60.6631 37.8764 60.6116C38.0319 58.369 38.2089 55.8257 37.259 53.3872C36.4459 51.302 37.0876 50.5385 37.7686 50.265C39.7546 49.4725 44.6473 52.3043 45.704 54.8608C47.1776 58.4289 46.0403 59.7095 44.8843 60.4271C44.1152 60.9048 42.8647 61.0613 42.4618 60.5339C42.3241 60.354 42.1827 59.9662 42.7897 59.4004C43.5869 58.6566 43.8174 58.1067 43.764 57.9784C43.7602 57.969 43.7003 57.9212 43.4839 57.9287C42.4056 57.9671 41.3031 58.102 41.3031 58.8093C41.3031 59.7432 41.3031 61.3067 38.8515 61.3938C38.7026 61.3994 38.5593 61.4013 38.4244 61.3985C38.3307 62.8599 38.2998 64.1488 38.6342 65.2271C39.2094 65.0416 39.9419 64.8795 40.8319 64.9311C42.5012 65.0313 45.1185 66.9105 46.9406 68.3147L47.0427 68.3934C47.333 68.6163 47.7246 68.9479 48.1537 69.3123C49.0623 70.0852 50.3064 71.1428 50.8778 71.3564C50.9509 71.3845 51.1242 71.4491 51.142 71.6477L51.1588 71.836L50.9939 71.9343C50.9687 71.9493 50.9143 71.9578 50.8356 71.9531C50.9555 72.0055 50.9612 72.0795 50.9696 72.2032L50.9883 72.4617L50.7495 72.5245L50.9331 72.6041L50.905 72.8964C50.8028 73.5203 48.3213 78.0646 41.8145 79.1597C41.4277 79.9597 41.2609 80.8702 41.4099 81.7077C41.5223 82.3344 41.7621 82.7419 42.1424 82.9536C43.0445 83.4548 44.6136 82.8271 45.8745 82.3241C46.2726 82.1648 46.6398 82.0187 46.9499 81.9222C47.4427 81.7676 47.8923 81.6477 48.3232 81.555C50.1911 81.1494 51.9485 81.2159 53.4033 81.7517C54.1293 82.0177 54.6755 82.4927 54.9406 83.0875C55.1851 83.6365 55.1832 84.2576 54.9331 84.8843C54.2595 86.577 52.4413 87.9728 51.1139 88.9929C48.0778 91.3217 44.6108 92.7316 41.0867 93.0688C40.7063 93.1054 40.3251 93.1288 39.9438 93.1353C39.7827 93.1381 39.6197 93.14 39.4595 93.14Z" fill="#3B3A64"/>
<path d="M54.207 34.4486C54.1218 34.4486 54.0384 34.4457 53.956 34.4401C53.4792 34.4092 51.8764 34.2144 51.2703 33.0134C50.83 32.1413 51.0539 31.0022 51.9363 29.6279L52.4412 29.9521C51.6815 31.1352 51.4679 32.0738 51.8052 32.7427C52.1724 33.4724 53.1775 33.7881 53.9953 33.8425C54.9443 33.9005 56.3073 33.523 56.8572 32.7989C57.1241 32.4485 57.1766 32.0588 57.0183 31.6055C56.4375 29.9455 55.3508 29.6785 55.3049 29.6673L55.4314 29.0818C55.4904 29.094 56.8862 29.4115 57.5841 31.4078C57.808 32.0467 57.7209 32.6537 57.3349 33.1624C56.6811 34.0223 55.2918 34.4486 54.207 34.4486Z" fill="#3B3A64"/>
<path d="M50.3813 28.7952C51.0295 28.7952 51.6497 29.1155 52.1949 29.4303C52.756 29.7544 53.3921 30.1198 54.0113 30.0167C54.2295 29.9802 54.4459 29.8828 54.6539 29.7263C54.7822 29.6298 54.904 29.5146 55.0164 29.3816C55.2 29.1661 55.3471 28.9479 55.4914 28.7343C55.7359 28.3727 55.9897 27.9989 56.3888 27.6617C56.7288 27.3732 57.0501 27.1905 57.3078 27.0434C57.8511 26.7324 57.8614 26.7268 57.6459 26.3436C57.2235 25.5895 54.1902 23.9052 51.5916 24.7736C50.534 25.1259 49.6113 25.9024 48.993 26.9591C48.6642 27.5221 48.1977 28.591 48.3466 29.0622C48.3728 29.1455 48.4141 29.1952 48.4843 29.228C48.6698 29.3132 48.9209 29.2486 49.0988 29.1811C49.1906 29.1455 49.2806 29.1043 49.3705 29.0631C49.5504 28.9816 49.7368 28.8963 49.9466 28.8458C50.0928 28.8111 50.238 28.7952 50.3813 28.7952ZM53.7911 30.635C53.0829 30.635 52.4319 30.2593 51.8951 29.9493C51.3031 29.6083 50.6745 29.286 50.0862 29.4294C49.9326 29.4659 49.7799 29.5352 49.6187 29.6092C49.5185 29.6551 49.4183 29.7001 49.3152 29.7404C48.8993 29.9006 48.5349 29.9118 48.2342 29.7722C48.0103 29.6701 47.8511 29.4865 47.7743 29.242C47.5045 28.3849 48.312 26.9376 48.4759 26.6565C49.1672 25.4743 50.2061 24.6031 51.4024 24.2041C54.1443 23.2907 57.5232 24.8973 58.1696 26.0504C58.6754 26.9525 58.1312 27.2626 57.6047 27.5633C57.3565 27.7057 57.0745 27.8668 56.7757 28.1188C56.4394 28.4036 56.2202 28.7277 55.9879 29.0706C55.8314 29.301 55.6722 29.5362 55.4736 29.7694C55.3321 29.9362 55.1775 30.0832 55.0136 30.2059C54.7279 30.4195 54.4244 30.5554 54.1115 30.6078C54.0038 30.6266 53.897 30.635 53.7911 30.635Z" fill="#3B3A64"/>
<path d="M63.3443 28.96C62.9481 28.96 62.4338 28.8036 61.7996 28.3052C61.4717 28.0476 61.1841 27.8069 60.9209 27.5867C59.7743 26.6265 59.1982 26.1432 57.8464 26.3408L57.7593 25.7478C59.3743 25.5127 60.1434 26.1553 61.3059 27.1277C61.5645 27.3441 61.8474 27.5811 62.1696 27.834C62.5874 28.1619 63.186 28.5094 63.6582 28.2959C64.0647 28.1132 64.239 27.5951 64.2568 27.2907C64.2858 26.7811 64.5518 26.4289 64.7645 26.145C64.89 25.9773 65.009 25.82 65.0005 25.7216C64.8956 25.034 64.4591 24.3689 63.8034 23.9136C63.2272 23.5127 62.2315 23.1005 60.7626 23.4115C58.2521 23.9399 56.9649 25.3872 56.9528 25.4022L56.5012 25.0078C56.5584 24.9422 57.9336 23.3947 60.6399 22.8242C61.9495 22.5488 63.1945 22.7605 64.1453 23.4209C64.9369 23.9699 65.4652 24.782 65.5954 25.6495C65.6273 25.9942 65.4333 26.2537 65.2441 26.5048C65.0624 26.7474 64.8741 26.9975 64.8544 27.3263C64.8235 27.8649 64.5125 28.5685 63.9045 28.8429C63.7556 28.9094 63.5692 28.96 63.3443 28.96Z" fill="#3B3A64"/>
<path d="M65.2235 32.9759L65.1382 32.3829C66.564 32.1768 67.4548 31.8368 67.7846 31.3703C68.0132 31.049 67.9429 30.6902 67.8745 30.3436C67.8174 30.0532 67.7584 29.7525 67.9167 29.5061C68.1021 29.2166 68.3579 28.8195 68.2455 28.501C68.1537 28.2387 67.8061 28.0007 67.2413 27.8124C65.6291 27.2757 64.4057 28.4607 64.3935 28.4719L63.9719 28.0457C64.0328 27.9857 65.4736 26.5918 67.4305 27.2438C68.1986 27.4995 68.6502 27.8462 68.8104 28.3014C69.0202 28.8972 68.6455 29.4818 68.4207 29.8302C68.3944 29.8808 68.4375 30.0981 68.4628 30.2274C68.5424 30.6321 68.6511 31.1857 68.2745 31.7169C67.8389 32.3314 66.8413 32.7427 65.2235 32.9759Z" fill="#3B3A64"/>
<path d="M66.9312 40.8055C66.6146 40.8055 66.2474 40.6838 65.8212 40.4383C65.0277 39.9812 64.1312 39.747 63.1813 39.4987C61.4052 39.035 59.5682 38.5554 58.4094 36.5339L58.9293 36.236C59.9635 38.0393 61.5991 38.4664 63.3322 38.9189C64.2792 39.1662 65.2572 39.421 66.1219 39.9193C66.565 40.1742 66.9097 40.2613 67.1167 40.1704C67.4258 40.0355 67.5551 39.4566 67.6703 38.946C67.8024 38.3512 67.9289 37.7901 68.3607 37.5858C68.6605 37.4453 68.8985 37.3348 68.92 37.2177C68.9556 37.0257 68.7214 36.5048 67.4006 35.1184C65.2141 32.8233 64.1743 32.1994 62.3448 32.0851C60.5284 31.9727 57.4717 32.6659 57.4418 32.6725L57.3069 32.088C57.4352 32.0589 60.4806 31.3657 62.3823 31.4865C64.3748 31.6111 65.5467 32.3034 67.8352 34.7053C69.1542 36.0898 69.6076 36.8008 69.5083 37.3282C69.4305 37.747 69.0408 37.9296 68.6643 38.1058C68.4497 38.2069 68.3411 38.6894 68.2549 39.0772C68.1088 39.7264 67.9439 40.4617 67.3575 40.7193C67.2263 40.7765 67.0849 40.8055 66.9312 40.8055Z" fill="#3B3A64"/>
<path d="M56.3813 46.0074C56.0497 46.0074 55.705 45.8603 55.4314 45.5952C55.1598 45.3329 54.9893 45.0022 54.8516 44.7128C54.0413 43.0125 53.5991 41.1034 53.5738 39.1914C53.5429 36.9254 53.9719 35.139 54.8469 33.8828L55.3387 34.2256C54.5368 35.3769 54.1443 37.0453 54.1733 39.183C54.1977 41.0097 54.6192 42.8327 55.3921 44.4551C55.5082 44.6968 55.6478 44.9713 55.8483 45.1643C56.031 45.3413 56.2623 45.4284 56.4562 45.4031C56.6118 45.3779 56.7719 45.2758 56.9415 45.1671C57.1832 45.0135 57.4558 44.8392 57.7986 44.8392C57.8005 44.8392 57.8024 44.8392 57.8043 44.8392C58.0637 44.8411 58.2839 44.9441 58.4787 45.035C58.548 45.0678 58.6174 45.1006 58.6886 45.1268C59.2385 45.3348 59.9551 45.1015 60.3551 44.5882C60.9078 43.879 60.7785 42.9919 60.5837 42.0682C60.0385 39.4921 58.7082 36.6865 56.5153 33.4912L57.0089 33.1511C59.2478 36.413 60.609 39.2898 61.1701 41.9446C61.3874 42.9685 61.5382 44.0448 60.8282 44.9563C60.2642 45.6804 59.2759 45.9886 58.4778 45.6889C58.3926 45.6561 58.3082 45.6177 58.2249 45.5783C58.0722 45.5071 57.9288 45.4397 57.8014 45.4388C57.8005 45.4388 57.7996 45.4388 57.7986 45.4388C57.631 45.4388 57.4614 45.5474 57.2647 45.6729C57.0605 45.8032 56.8291 45.9502 56.5509 45.9943C56.4947 46.0036 56.4384 46.0074 56.3813 46.0074Z" fill="#3B3A64"/>
<path d="M50.0281 44.5648C50.001 44.5648 49.9729 44.5638 49.9448 44.562C49.5579 44.5367 49.2281 44.3371 48.9649 43.9709C48.9087 43.8931 48.86 43.8069 48.8113 43.7217C48.7307 43.5783 48.6614 43.4547 48.5705 43.4116C48.4872 43.3713 48.3504 43.3891 48.2052 43.4079C48.1471 43.4154 48.089 43.4219 48.0309 43.4266C47.423 43.4716 46.8019 43.2046 46.4234 42.7193C45.7508 41.8584 46.089 40.6566 46.3363 39.7788L46.415 39.495C46.6127 38.7568 46.8694 38.0261 47.1794 37.3235C48.0862 35.2654 49.274 33.6177 50.6155 32.5582C50.8263 32.3914 51.0249 32.2547 51.2206 32.1432L51.5176 32.664C51.348 32.7605 51.1747 32.8795 50.9865 33.0284C49.7218 34.028 48.5949 35.5971 47.7284 37.5652C47.4314 38.2397 47.1841 38.9413 46.9939 39.6505L46.9134 39.9418C46.6886 40.7371 46.4103 41.7282 46.8956 42.3502C47.1485 42.6734 47.5738 42.8645 47.9841 42.8289L48.1312 42.813C48.3316 42.7858 48.5836 42.7559 48.8253 42.8692C49.0895 42.9938 49.2253 43.2336 49.334 43.4266C49.3715 43.4931 49.4089 43.5606 49.452 43.6214C49.6075 43.8378 49.7818 43.9503 49.9841 43.9634C50.4047 43.9943 50.9996 43.6121 51.7321 42.8336C52.0928 42.4505 52.4366 41.9858 52.7532 41.4528C53.1354 40.8102 53.4211 40.1854 53.6028 39.5933L54.1762 39.7694C53.9804 40.4064 53.675 41.0753 53.2684 41.7591C52.9293 42.3296 52.5593 42.8299 52.1687 43.2439C51.63 43.8163 50.8309 44.5648 50.0281 44.5648Z" fill="#3B3A64"/>
<path d="M43.2431 39.0406C43.0783 39.0406 42.964 38.9535 42.9181 38.9123C41.9738 38.0448 43.5757 31.4087 45.2993 29.0518C46.7045 27.1277 48.2183 27.7938 48.282 27.8228L48.0319 28.368C47.9888 28.3483 46.8881 27.893 45.7827 29.405C43.9897 31.8593 42.9696 37.5081 43.2872 38.3961C43.289 38.3952 43.29 38.3942 43.2918 38.3933C44.6773 37.1896 47.6909 36.2537 47.8192 36.2153L47.9954 36.7877C47.9654 36.7971 44.9752 37.7254 43.6853 38.8458C43.5148 38.9928 43.3649 39.0406 43.2431 39.0406Z" fill="#3B3A64"/>
<path d="M56.6258 32.8364C57.0118 32.8364 57.0118 32.2368 56.6258 32.2368C56.2399 32.2368 56.2389 32.8364 56.6258 32.8364Z" fill="#3B3A64"/>
<path d="M55.8343 33.493C56.2202 33.493 56.2212 32.8935 55.8343 32.8935C55.4483 32.8935 55.4483 33.493 55.8343 33.493Z" fill="#3B3A64"/>
<path d="M54.8675 33.7788C55.2534 33.7788 55.2544 33.1792 54.8675 33.1792C54.4825 33.1792 54.4815 33.7788 54.8675 33.7788Z" fill="#3B3A64"/>
<path d="M53.778 33.6785C54.163 33.6785 54.164 33.079 53.778 33.079C53.3921 33.079 53.3911 33.6785 53.778 33.6785Z" fill="#3B3A64"/>
<path d="M52.9096 33.4097C53.2956 33.4097 53.2965 32.8101 52.9096 32.8101C52.5246 32.8101 52.5237 33.4097 52.9096 33.4097Z" fill="#3B3A64"/>
<path d="M52.0084 32.8692C52.3944 32.8692 52.3953 32.2697 52.0084 32.2697C51.6225 32.2697 51.6225 32.8692 52.0084 32.8692Z" fill="#3B3A64"/>
<path d="M52.2858 32.0035C52.6717 32.0035 52.6726 31.404 52.2858 31.404C51.8998 31.404 51.8998 32.0035 52.2858 32.0035Z" fill="#3B3A64"/>
<path d="M52.3842 31.0649C52.7701 31.0649 52.771 30.4654 52.3842 30.4654C51.9991 30.4654 51.9982 31.0649 52.3842 31.0649Z" fill="#3B3A64"/>
<path d="M55.4914 30.4017C55.8773 30.4017 55.8773 29.8022 55.4914 29.8022C55.1054 29.8022 55.1054 30.4017 55.4914 30.4017Z" fill="#3B3A64"/>
<path d="M56.1565 30.901C56.5425 30.901 56.5434 30.3015 56.1565 30.3015C55.7706 30.3015 55.7706 30.901 56.1565 30.901Z" fill="#3B3A64"/>
<path d="M56.6033 31.745C56.9893 31.745 56.9893 31.1455 56.6033 31.1455C56.2174 31.1455 56.2164 31.745 56.6033 31.745Z" fill="#3B3A64"/>
<path d="M55.9157 32.3708C56.3017 32.3708 56.3017 31.7713 55.9157 31.7713C55.5298 31.7713 55.5289 32.3708 55.9157 32.3708Z" fill="#3B3A64"/>
<path d="M55.0951 32.8007C55.4811 32.8007 55.4811 32.2012 55.0951 32.2012C54.7092 32.2012 54.7083 32.8007 55.0951 32.8007Z" fill="#3B3A64"/>
<path d="M54.1396 32.9038C54.5256 32.9038 54.5265 32.3043 54.1396 32.3043C53.7546 32.3043 53.7537 32.9038 54.1396 32.9038Z" fill="#3B3A64"/>
<path d="M53.141 32.5666C53.527 32.5666 53.5279 31.9671 53.141 31.9671C52.7551 31.9671 52.7551 32.5666 53.141 32.5666Z" fill="#3B3A64"/>
<path d="M53.1523 31.493C53.5382 31.493 53.5392 30.8935 53.1523 30.8935C52.7673 30.8935 52.7663 31.493 53.1523 31.493Z" fill="#3B3A64"/>
<path d="M54.0375 31.1998C54.4235 31.1998 54.4235 30.6003 54.0375 30.6003C53.6516 30.6003 53.6516 31.1998 54.0375 31.1998Z" fill="#3B3A64"/>
<path d="M54.8797 31.094C55.2656 31.094 55.2656 30.4944 54.8797 30.4944C54.4938 30.4944 54.4928 31.094 54.8797 31.094Z" fill="#3B3A64"/>
<path d="M55.5916 31.5708C55.9776 31.5708 55.9776 30.9713 55.5916 30.9713C55.2057 30.9713 55.2047 31.5708 55.5916 31.5708Z" fill="#3B3A64"/>
<path d="M54.7429 31.9886C55.1289 31.9886 55.1289 31.389 54.7429 31.389C54.357 31.389 54.356 31.9886 54.7429 31.9886Z" fill="#3B3A64"/>
<path d="M53.8324 32.0626C54.2174 32.0626 54.2183 31.4631 53.8324 31.4631C53.4464 31.4631 53.4455 32.0626 53.8324 32.0626Z" fill="#3B3A64"/>
<path d="M42.2033 25.4022L41.689 25.093C46.6445 16.8701 45.9597 9.13985 45.9522 9.06303L46.549 9.00495C46.5565 9.08364 47.26 17.0106 42.2033 25.4022Z" stroke="#3B3A64" stroke-width="0.3"/>
<path d="M46.223 10.9328C45.5017 11.9398 43.5841 15.4752 43.2712 17.6269L42.9967 19.478C42.7466 21.1586 42.3953 23.5155 42.2717 24.6096C43.3827 23.6654 46.1996 20.9853 46.9078 17.5707C47.5907 14.2808 46.6473 11.819 46.223 10.9328ZM41.912 25.5951L41.7611 25.4883C41.5447 25.3272 41.5223 25.3103 42.4038 19.389L42.6773 17.5408C43.0333 15.0949 45.5307 10.4728 46.1508 10.1506L46.3982 10.0222L46.5443 10.2583C46.6202 10.381 48.4019 13.3206 47.4942 17.6925C46.5452 22.2696 42.1162 25.4986 42.074 25.5183L41.912 25.5951Z" stroke="#3B3A64" stroke-width="0.3"/>
<path d="M61.6179 19.4068C54.4029 19.018 49.9926 15.419 49.808 15.2653L50.1912 14.8044C50.2352 14.841 54.6427 18.4307 61.6507 18.8082L61.6179 19.4068Z" stroke="#3B3A64" stroke-width="0.3"/>
<path d="M51.3068 15.8808C51.7293 16.56 52.8291 18.0073 54.9499 18.8832C57.1579 19.7956 59.7387 19.316 60.8928 19.0181C60.119 18.6209 58.6914 17.9342 57.6525 17.4349L56.4197 16.8401C55.067 16.1843 52.3288 15.8874 51.3068 15.8808ZM57.9092 20.0101C56.8741 20.0101 55.7555 19.8649 54.7214 19.4377C51.66 18.1731 50.5949 15.849 50.5508 15.7516L50.4375 15.4977L50.682 15.3656C51.1419 15.1174 55.0333 15.5014 56.6811 16.3014L57.9129 16.8944C61.9251 18.8251 61.9261 18.8345 61.9364 19.0911L61.9439 19.271L61.7865 19.3656C61.6263 19.4602 59.9242 20.0101 57.9092 20.0101Z" stroke="#3B3A64" stroke-width="0.3"/>
<path d="M16.9886 25.8097C19.0088 25.8097 21.1535 26.056 23.4739 26.5516C25.0616 26.8907 26.5807 27.1773 27.8573 27.4134C28.0584 27.4509 28.2785 27.4827 28.5076 27.5165C29.4205 27.6514 30.4548 27.8041 31.1589 28.3427C31.2163 28.3867 31.2768 28.4476 31.3392 28.5225C31.2152 28.2499 31.084 28.0026 30.945 27.7834C29.6793 25.79 27.0795 24.945 24.4586 24.3286C21.2699 23.5792 17.9995 23.2439 14.7311 23.3272C12.3143 23.39 10.7902 24.6874 9.1771 26.0617C8.76726 26.4101 8.34927 26.7661 7.90749 27.1108C7.99836 27.0893 8.0808 27.0706 8.14628 27.0556C8.31921 27.0143 8.46009 26.9816 8.5355 26.9666C10.1474 26.6378 12.0255 26.2659 13.9185 26.0111C14.9126 25.8771 15.9336 25.8097 16.9886 25.8097ZM20.8315 34.9535C20.9548 34.9535 21.0786 34.9554 21.2027 34.9591C23.6741 35.034 25.8734 35.8125 27.7391 37.2729C27.8496 37.3591 27.9569 37.4434 28.0618 37.524C27.9382 37.2373 27.8133 36.9788 27.711 36.7783C24.9352 32.9113 19.7937 31.3029 15.7771 33.0715C15.2334 33.3104 14.7018 33.6111 14.1874 33.9015C13.6164 34.2237 13.0263 34.5572 12.403 34.8195C11.3148 35.2767 10.1065 35.3703 8.59864 35.1118L8.43443 35.0884C8.41607 35.0856 8.39808 35.0837 8.3801 35.0809C8.83911 35.7703 9.42891 36.4289 10.2762 36.7661C11.6067 37.2945 13.0938 37.0181 14.1074 36.6931C14.6366 36.5226 15.1663 36.3099 15.6784 36.1038C16.2493 35.8743 16.8395 35.6364 17.4433 35.4518C18.5241 35.1202 19.6622 34.9535 20.8315 34.9535ZM13.908 37.3769C14.4607 38.0027 17.1232 40.5863 22.3123 39.2392C25.8228 38.3277 27.7512 38.8486 28.5748 39.1156C28.5419 38.9216 28.492 38.7193 28.4304 38.5151C28.0733 38.2959 27.7266 38.0242 27.3741 37.7488C25.6066 36.3643 23.5258 35.6289 21.1847 35.5586C19.9475 35.5202 18.7504 35.6785 17.6189 36.0242C17.0393 36.2022 16.4613 36.4345 15.9025 36.6593C15.3802 36.8692 14.8404 37.0865 14.2908 37.2636C14.1695 37.302 14.0415 37.3404 13.908 37.3769ZM5.87049 53.021C7.47808 55.2533 9.65832 57.1043 12.3116 58.4486C14.2565 59.435 16.5518 60.0683 18.7746 60.2332C21.1395 60.413 23.3482 59.7648 24.6807 58.5067C25.6978 57.5465 26.2006 56.2809 26.1752 54.7465C26.1369 52.4505 25.1846 50.5329 23.5625 49.4875C21.6851 48.2772 19.2813 47.627 16.7654 47.6617C11.2098 47.7357 7.81569 49.0612 6.38843 51.716C6.16754 52.1273 5.99695 52.5629 5.87049 53.021ZM38.4646 60.7999C38.5799 60.7999 38.7017 60.799 38.83 60.7943C40.5696 60.7334 40.7035 59.9334 40.7035 58.8093C40.7035 57.4275 42.5668 57.362 43.4633 57.3292C44.0056 57.3104 44.2333 57.5465 44.3176 57.7488C44.6005 58.4299 43.6291 59.4369 43.1982 59.8397C42.9471 60.0739 42.9434 60.1835 42.9434 60.1844C43.0464 60.3128 43.8932 60.3362 44.5686 59.9184C45.2338 59.5053 46.6192 58.6453 45.1494 55.0903C44.1574 52.6856 39.5447 50.1957 37.9916 50.8214C37.2131 51.1343 37.467 52.2715 37.8183 53.1708C38.8159 55.7338 38.6351 58.3474 38.474 60.6538C38.4712 60.7025 38.4675 60.7512 38.4646 60.7999ZM38.8515 65.7863C39.1344 66.3821 39.5663 66.9011 40.2117 67.3329C42.8094 69.0734 47.008 70.4112 49.2768 71.0191C48.786 70.6369 48.2605 70.1901 47.7658 69.7704C47.3443 69.4126 46.9621 69.0875 46.6773 68.8674L46.5752 68.7887C45.5607 68.0074 42.474 65.6308 40.7963 65.5287C40.015 65.4828 39.3743 65.6196 38.8515 65.7863ZM25.5913 72.0599C26.4171 72.0721 27.9799 72.0102 29.3604 71.6899C30.0867 71.5203 30.8861 71.2702 31.6589 71.0294C32.7779 70.68 33.8349 70.3503 34.5038 70.3231C34.7036 70.3156 35.0588 70.3184 35.4678 70.3156C36.3972 70.3081 37.7574 70.3156 39.0173 70.2322C40.7916 70.1161 42.4853 70.6163 44.119 71.1025L44.4553 71.2027C45.4455 71.495 47.6525 71.6552 49.1129 71.761C49.5054 71.7892 49.8136 71.8126 50.0562 71.8322C47.9223 71.3845 42.7288 69.7404 39.8782 67.8313C39.1073 67.3151 38.6042 66.695 38.282 65.9915C38.2529 66.0018 38.223 66.014 38.1949 66.0252C37.8464 66.1601 37.57 66.2669 37.3255 66.2669C37.3246 66.2669 37.3237 66.2669 37.3237 66.2669C36.9611 66.266 36.548 66.1329 36.1096 65.9934C35.6618 65.851 35.154 65.688 34.6483 65.6514C33.4598 65.5334 31.7549 66.5105 29.9696 68.324C28.8409 69.4716 27.5127 70.5236 26.5429 71.2908C26.1939 71.5662 25.8383 71.8482 25.5913 72.0599ZM28.9521 72.3868C29.7484 72.3943 30.6953 72.413 31.8204 72.4402C33.8387 72.487 35.926 72.5348 37.6103 72.4842C39.8567 72.4159 41.9597 72.3531 43.6169 72.3044C45.4417 72.251 46.7242 72.2135 47.0586 72.1995C45.9775 72.0983 44.9265 71.9671 44.2848 71.777L43.9476 71.6767C42.3644 71.2065 40.726 70.7175 39.0576 70.8299C37.778 70.9151 36.4131 70.9264 35.4678 70.9151C35.0448 70.9123 34.722 70.9142 34.5272 70.9226C33.9379 70.9461 32.9176 71.2646 31.8377 71.6018C31.0543 71.8463 30.2444 72.0992 29.4962 72.2735C29.3167 72.3156 29.1348 72.3531 28.9521 72.3868ZM49.5588 74.088C47.9466 75.2346 45.3799 76.4533 43.7433 77.1831C43.1476 77.4482 42.6248 77.9091 42.2211 78.473C46.1705 77.6636 48.4778 75.51 49.5588 74.088ZM25.6237 73.1287C26.3328 73.9821 28.777 75.8173 30.0407 76.7175L30.2597 76.8786C31.333 77.6786 33.5659 79.3386 40.4684 78.7287C40.801 78.6988 41.1232 78.6594 41.4352 78.6126C41.9251 77.7405 42.6473 77.0145 43.4989 76.6351C47.0314 75.0613 49.5513 73.5915 50.2408 72.7063C50.2595 72.6819 50.2923 72.6407 50.3354 72.5995C49.5644 72.6978 48.1621 72.754 47.4324 72.7831L47.112 72.7971C46.8235 72.8093 45.5167 72.8477 43.6347 72.903C41.9785 72.9526 39.8745 73.0145 37.6291 73.0838C35.9269 73.1362 33.8325 73.0866 31.8065 73.0397C29.371 72.9835 26.3847 72.9133 25.6237 73.1287ZM39.4595 93.14C24.3052 93.141 13.5246 79.9409 8.86834 68.5367C8.68689 68.0927 8.48707 67.6168 8.27668 67.1165C6.614 63.1624 4.2066 57.4341 5.22103 53.1427C3.93812 51.2982 3.02598 49.2102 2.53493 46.9432C0.221295 36.249 -0.0351905 27.893 1.72744 20.6462C2.78205 16.3117 4.70814 12.5338 7.6155 9.09768C13.3643 2.30423 24.824 -0.460183 32.5804 0.793216C42.933 2.46441 50.1855 10.574 53.556 24.2462L52.9734 24.3895C49.6188 10.7783 42.7251 3.03865 32.4852 1.38525C24.8942 0.159015 13.6851 2.85318 8.07293 9.48551C5.2273 12.8485 3.34214 16.5459 2.30973 20.7886C0.569398 27.9436 0.827386 36.2144 3.12116 46.8167C3.55873 48.8392 4.3444 50.7137 5.4392 52.3924C5.55508 52.0617 5.69484 51.7404 5.86028 51.4322C7.40004 48.5685 10.9647 47.138 16.7575 47.0622C19.375 47.0444 21.9116 47.7104 23.8872 48.9835C25.6803 50.1395 26.7329 52.236 26.7747 54.7371C26.8028 56.4224 26.2209 57.8772 25.0924 58.9423C23.6179 60.3343 21.2991 61.02 18.7302 60.8317C16.4305 60.6603 14.0548 60.0037 12.0408 58.9844C9.46984 57.6805 7.32745 55.9156 5.69953 53.7975C5.02665 57.8388 7.26543 63.1643 8.82937 66.8842C9.04052 67.3873 9.24108 67.8641 9.42338 68.31C14.0575 79.6599 24.8465 92.8477 39.9326 92.5358C40.2998 92.5293 40.6651 92.5077 41.0286 92.4721C44.4412 92.1452 47.8024 90.7775 50.7485 88.5171C52.0207 87.5409 53.764 86.2014 54.3757 84.6622C54.5649 84.1892 54.5705 83.7292 54.3935 83.332C54.194 82.8861 53.7687 82.5245 53.1963 82.3138C51.8483 81.8182 50.2071 81.7592 48.4497 82.1405C48.0366 82.2304 47.6047 82.3456 47.1288 82.4936C46.8319 82.5864 46.4797 82.7269 46.0965 82.8805C44.7176 83.4304 43.0014 84.117 41.852 83.4782C41.3106 83.1765 40.964 82.6173 40.8197 81.8135C40.6717 80.9798 40.7972 80.0824 41.126 79.2608C40.9274 79.2861 40.727 79.3067 40.5218 79.3245C33.3949 79.9643 31.0344 78.2042 29.9014 77.3592L29.6925 77.2065C29.2863 76.9161 25.7033 74.3493 25.0136 73.3152C24.9173 73.1709 24.9063 73.006 24.9843 72.8646C25.0319 72.7774 25.1135 72.7044 25.2416 72.6435C25.1475 72.6369 25.0699 72.6304 25.0117 72.6219L24.8165 72.5938L24.7076 72.3671C24.6237 72.0561 24.8669 71.8519 26.1709 70.8205C27.1283 70.0627 28.4397 69.0257 29.5419 67.9044C30.6659 66.7606 32.8193 64.8636 34.699 65.0547C35.2684 65.095 35.8127 65.2692 36.2923 65.4229C36.6848 65.5475 37.0558 65.6664 37.3246 65.6674C37.4567 65.6674 37.6993 65.5737 37.9775 65.466C38.0075 65.4538 38.0375 65.4425 38.0684 65.4304C37.6984 64.2482 37.7302 62.8674 37.8248 61.3657C36.4084 61.2205 35.8192 60.6069 35.4226 59.7451C35.0381 58.9076 33.8547 58.0458 32.9004 58.1835C32.5386 58.2369 32.3626 58.3549 32.3486 58.4495C32.3345 58.5432 32.4543 58.7418 32.7642 58.8889C33.162 59.0772 34.4523 59.7413 34.3551 60.354C34.3282 60.5254 34.1997 60.7428 33.7431 60.8018C32.5554 60.9507 30.4193 60.1826 29.6266 58.5732C28.8229 56.9395 29.465 54.7381 31.4345 52.3746C32.7085 50.8458 33.3712 42.9638 32.8774 36.3221C32.6132 37.3863 32.0672 38.1675 31.2702 38.6116C30.4478 39.0696 29.7601 39.0799 29.1317 38.857C29.1754 39.0715 29.2035 39.2804 29.2117 39.4799L29.2187 39.6495L29.0677 39.761C28.9163 39.8612 28.7691 39.8116 28.5255 39.7301C27.8394 39.5024 26.0163 38.8973 22.463 39.82C18.1018 40.9535 14.9329 39.4865 13.424 37.7347L13.8076 37.4041C12.739 37.6842 11.3456 37.8359 10.0545 37.3235C8.80286 36.8251 8.04173 35.7272 7.51836 34.8261L7.77747 34.6753L7.88089 34.397C7.97026 34.4214 8.30675 34.4654 8.51593 34.4945L8.69981 34.5207C10.0896 34.7577 11.1922 34.6781 12.1704 34.2668C12.7616 34.0186 13.3365 33.6935 13.8923 33.3797C14.4196 33.0818 14.9645 32.7736 15.5351 32.5226C19.8065 30.6406 25.2607 32.3361 28.2219 36.4673C28.4678 36.9469 28.734 37.5268 28.9287 38.1123C29.5571 38.4523 30.1777 38.5347 30.9782 38.0879C31.8467 37.6045 32.3392 36.6406 32.4426 35.2251C32.6366 32.5656 31.3431 29.2392 30.7944 28.8195C30.2136 28.3745 29.2609 28.234 28.4202 28.1104C28.1832 28.0757 27.9562 28.042 27.7481 28.0026C26.4674 27.7666 24.9433 27.478 23.3489 27.138C19.8854 26.3989 16.8267 26.2237 13.9985 26.605C12.1239 26.8579 10.2575 27.227 8.65523 27.5539C8.58347 27.5689 8.44838 27.5998 8.28295 27.6392C6.75686 27.9961 6.5562 28.0307 6.43798 27.7272C6.40716 27.6495 6.36576 27.4481 6.64604 27.2888C7.41101 26.7773 8.11124 26.1816 8.78834 25.6054C10.4846 24.1609 12.0872 22.7961 14.7155 22.7277C18.0311 22.6406 21.356 22.9834 24.596 23.745C27.3402 24.3905 30.0703 25.2869 31.4509 27.4621C34.3816 32.0776 34.2306 49.9558 31.895 52.7587C30.0864 54.9292 29.4717 56.9001 30.1644 58.3081C30.8798 59.761 32.8247 60.3231 33.6659 60.2069C33.674 60.206 33.6819 60.2051 33.6893 60.2041C33.505 60.0083 33.0253 59.6758 32.5071 59.4303C31.9903 59.184 31.6952 58.7652 31.7557 58.3605C31.7908 58.1264 31.9746 57.7142 32.813 57.5905C34.0628 57.3994 35.4851 58.4449 35.9672 59.495C36.2408 60.0908 36.607 60.6322 37.8651 60.7681C37.8689 60.7156 37.8726 60.6631 37.8764 60.6116C38.0319 58.369 38.2089 55.8257 37.259 53.3872C36.4459 51.302 37.0876 50.5385 37.7686 50.265C39.7546 49.4725 44.6473 52.3043 45.704 54.8608C47.1776 58.4289 46.0403 59.7095 44.8843 60.4271C44.1152 60.9048 42.8647 61.0613 42.4618 60.5339C42.3241 60.354 42.1827 59.9662 42.7897 59.4004C43.5869 58.6566 43.8174 58.1067 43.764 57.9784C43.7602 57.969 43.7003 57.9212 43.4839 57.9287C42.4056 57.9671 41.3031 58.102 41.3031 58.8093C41.3031 59.7432 41.3031 61.3067 38.8515 61.3938C38.7026 61.3994 38.5593 61.4013 38.4244 61.3985C38.3307 62.8599 38.2998 64.1488 38.6342 65.2271C39.2094 65.0416 39.9419 64.8795 40.8319 64.9311C42.5012 65.0313 45.1185 66.9105 46.9406 68.3147L47.0427 68.3934C47.333 68.6163 47.7246 68.9479 48.1537 69.3123C49.0623 70.0852 50.3064 71.1428 50.8778 71.3564C50.9509 71.3845 51.1242 71.4491 51.142 71.6477L51.1588 71.836L50.9939 71.9343C50.9687 71.9493 50.9143 71.9578 50.8356 71.9531C50.9555 72.0055 50.9612 72.0795 50.9696 72.2032L50.9883 72.4617L50.7495 72.5245L50.9331 72.6041L50.905 72.8964C50.8028 73.5203 48.3213 78.0646 41.8145 79.1597C41.4277 79.9597 41.2609 80.8702 41.4099 81.7077C41.5223 82.3344 41.7621 82.7419 42.1424 82.9536C43.0445 83.4548 44.6136 82.8271 45.8745 82.3241C46.2726 82.1648 46.6398 82.0187 46.9499 81.9222C47.4427 81.7676 47.8923 81.6477 48.3232 81.555C50.1911 81.1494 51.9485 81.2159 53.4033 81.7517C54.1293 82.0177 54.6755 82.4927 54.9406 83.0875C55.1851 83.6365 55.1832 84.2576 54.9331 84.8843C54.2595 86.577 52.4413 87.9728 51.1139 88.9929C48.0778 91.3217 44.6108 92.7316 41.0867 93.0688C40.7063 93.1054 40.3251 93.1288 39.9438 93.1353C39.7827 93.1381 39.6197 93.14 39.4595 93.14Z" stroke="#3B3A64" stroke-width="0.3"/>
<path d="M54.207 34.4486C54.1218 34.4486 54.0384 34.4457 53.956 34.4401C53.4792 34.4092 51.8764 34.2144 51.2703 33.0134C50.83 32.1413 51.0539 31.0022 51.9363 29.6279L52.4412 29.9521C51.6815 31.1352 51.4679 32.0738 51.8052 32.7427C52.1724 33.4724 53.1775 33.7881 53.9953 33.8425C54.9443 33.9005 56.3073 33.523 56.8572 32.7989C57.1241 32.4485 57.1766 32.0588 57.0183 31.6055C56.4375 29.9455 55.3508 29.6785 55.3049 29.6673L55.4314 29.0818C55.4904 29.094 56.8862 29.4115 57.5841 31.4078C57.808 32.0467 57.7209 32.6537 57.3349 33.1624C56.6811 34.0223 55.2918 34.4486 54.207 34.4486Z" stroke="#3B3A64" stroke-width="0.3"/>
<path d="M50.3813 28.7952C51.0295 28.7952 51.6497 29.1155 52.1949 29.4303C52.756 29.7544 53.3921 30.1198 54.0113 30.0167C54.2295 29.9802 54.4459 29.8828 54.6539 29.7263C54.7822 29.6298 54.904 29.5146 55.0164 29.3816C55.2 29.1661 55.3471 28.9479 55.4914 28.7343C55.7359 28.3727 55.9897 27.9989 56.3888 27.6617C56.7288 27.3732 57.0501 27.1905 57.3078 27.0434C57.8511 26.7324 57.8614 26.7268 57.6459 26.3436C57.2235 25.5895 54.1902 23.9052 51.5916 24.7736C50.534 25.1259 49.6113 25.9024 48.993 26.9591C48.6642 27.5221 48.1977 28.591 48.3466 29.0622C48.3728 29.1455 48.4141 29.1952 48.4843 29.228C48.6698 29.3132 48.9209 29.2486 49.0988 29.1811C49.1906 29.1455 49.2806 29.1043 49.3705 29.0631C49.5504 28.9816 49.7368 28.8963 49.9466 28.8458C50.0928 28.8111 50.238 28.7952 50.3813 28.7952ZM53.7911 30.635C53.0829 30.635 52.4319 30.2593 51.8951 29.9493C51.3031 29.6083 50.6745 29.286 50.0862 29.4294C49.9326 29.4659 49.7799 29.5352 49.6187 29.6092C49.5185 29.6551 49.4183 29.7001 49.3152 29.7404C48.8993 29.9006 48.5349 29.9118 48.2342 29.7722C48.0103 29.6701 47.8511 29.4865 47.7743 29.242C47.5045 28.3849 48.312 26.9376 48.4759 26.6565C49.1672 25.4743 50.2061 24.6031 51.4024 24.2041C54.1443 23.2907 57.5232 24.8973 58.1696 26.0504C58.6754 26.9525 58.1312 27.2626 57.6047 27.5633C57.3565 27.7057 57.0745 27.8668 56.7757 28.1188C56.4394 28.4036 56.2202 28.7277 55.9879 29.0706C55.8314 29.301 55.6722 29.5362 55.4736 29.7694C55.3321 29.9362 55.1775 30.0832 55.0136 30.2059C54.7279 30.4195 54.4244 30.5554 54.1115 30.6078C54.0038 30.6266 53.897 30.635 53.7911 30.635Z" stroke="#3B3A64" stroke-width="0.3"/>
<path d="M63.3443 28.96C62.9481 28.96 62.4338 28.8036 61.7996 28.3052C61.4717 28.0476 61.1841 27.8069 60.9209 27.5867C59.7743 26.6265 59.1982 26.1432 57.8464 26.3408L57.7593 25.7478C59.3743 25.5127 60.1434 26.1553 61.3059 27.1277C61.5645 27.3441 61.8474 27.5811 62.1696 27.834C62.5874 28.1619 63.186 28.5094 63.6582 28.2959C64.0647 28.1132 64.239 27.5951 64.2568 27.2907C64.2858 26.7811 64.5518 26.4289 64.7645 26.145C64.89 25.9773 65.009 25.82 65.0005 25.7216C64.8956 25.034 64.4591 24.3689 63.8034 23.9136C63.2272 23.5127 62.2315 23.1005 60.7626 23.4115C58.2521 23.9399 56.9649 25.3872 56.9528 25.4022L56.5012 25.0078C56.5584 24.9422 57.9336 23.3947 60.6399 22.8242C61.9495 22.5488 63.1945 22.7605 64.1453 23.4209C64.9369 23.9699 65.4652 24.782 65.5954 25.6495C65.6273 25.9942 65.4333 26.2537 65.2441 26.5048C65.0624 26.7474 64.8741 26.9975 64.8544 27.3263C64.8235 27.8649 64.5125 28.5685 63.9045 28.8429C63.7556 28.9094 63.5692 28.96 63.3443 28.96Z" stroke="#3B3A64" stroke-width="0.3"/>
<path d="M65.2235 32.9759L65.1382 32.3829C66.564 32.1768 67.4548 31.8368 67.7846 31.3703C68.0132 31.049 67.9429 30.6902 67.8745 30.3436C67.8174 30.0532 67.7584 29.7525 67.9167 29.5061C68.1021 29.2166 68.3579 28.8195 68.2455 28.501C68.1537 28.2387 67.8061 28.0007 67.2413 27.8124C65.6291 27.2757 64.4057 28.4607 64.3935 28.4719L63.9719 28.0457C64.0328 27.9857 65.4736 26.5918 67.4305 27.2438C68.1986 27.4995 68.6502 27.8462 68.8104 28.3014C69.0202 28.8972 68.6455 29.4818 68.4207 29.8302C68.3944 29.8808 68.4375 30.0981 68.4628 30.2274C68.5424 30.6321 68.6511 31.1857 68.2745 31.7169C67.8389 32.3314 66.8413 32.7427 65.2235 32.9759Z" stroke="#3B3A64" stroke-width="0.3"/>
<path d="M66.9312 40.8055C66.6146 40.8055 66.2474 40.6838 65.8212 40.4383C65.0277 39.9812 64.1312 39.747 63.1813 39.4987C61.4052 39.035 59.5682 38.5554 58.4094 36.5339L58.9293 36.236C59.9635 38.0393 61.5991 38.4664 63.3322 38.9189C64.2792 39.1662 65.2572 39.421 66.1219 39.9193C66.565 40.1742 66.9097 40.2613 67.1167 40.1704C67.4258 40.0355 67.5551 39.4566 67.6703 38.946C67.8024 38.3512 67.9289 37.7901 68.3607 37.5858C68.6605 37.4453 68.8985 37.3348 68.92 37.2177C68.9556 37.0257 68.7214 36.5048 67.4006 35.1184C65.2141 32.8233 64.1743 32.1994 62.3448 32.0851C60.5284 31.9727 57.4717 32.6659 57.4418 32.6725L57.3069 32.088C57.4352 32.0589 60.4806 31.3657 62.3823 31.4865C64.3748 31.6111 65.5467 32.3034 67.8352 34.7053C69.1542 36.0898 69.6076 36.8008 69.5083 37.3282C69.4305 37.747 69.0408 37.9296 68.6643 38.1058C68.4497 38.2069 68.3411 38.6894 68.2549 39.0772C68.1088 39.7264 67.9439 40.4617 67.3575 40.7193C67.2263 40.7765 67.0849 40.8055 66.9312 40.8055Z" stroke="#3B3A64" stroke-width="0.3"/>
<path d="M56.3813 46.0074C56.0497 46.0074 55.705 45.8603 55.4314 45.5952C55.1598 45.3329 54.9893 45.0022 54.8516 44.7128C54.0413 43.0125 53.5991 41.1034 53.5738 39.1914C53.5429 36.9254 53.9719 35.139 54.8469 33.8828L55.3387 34.2256C54.5368 35.3769 54.1443 37.0453 54.1733 39.183C54.1977 41.0097 54.6192 42.8327 55.3921 44.4551C55.5082 44.6968 55.6478 44.9713 55.8483 45.1643C56.031 45.3413 56.2623 45.4284 56.4562 45.4031C56.6118 45.3779 56.7719 45.2758 56.9415 45.1671C57.1832 45.0135 57.4558 44.8392 57.7986 44.8392C57.8005 44.8392 57.8024 44.8392 57.8043 44.8392C58.0637 44.8411 58.2839 44.9441 58.4787 45.035C58.548 45.0678 58.6174 45.1006 58.6886 45.1268C59.2385 45.3348 59.9551 45.1015 60.3551 44.5882C60.9078 43.879 60.7785 42.9919 60.5837 42.0682C60.0385 39.4921 58.7082 36.6865 56.5153 33.4912L57.0089 33.1511C59.2478 36.413 60.609 39.2898 61.1701 41.9446C61.3874 42.9685 61.5382 44.0448 60.8282 44.9563C60.2642 45.6804 59.2759 45.9886 58.4778 45.6889C58.3926 45.6561 58.3082 45.6177 58.2249 45.5783C58.0722 45.5071 57.9288 45.4397 57.8014 45.4388C57.8005 45.4388 57.7996 45.4388 57.7986 45.4388C57.631 45.4388 57.4614 45.5474 57.2647 45.6729C57.0605 45.8032 56.8291 45.9502 56.5509 45.9943C56.4947 46.0036 56.4384 46.0074 56.3813 46.0074Z" stroke="#3B3A64" stroke-width="0.3"/>
<path d="M50.0281 44.5648C50.001 44.5648 49.9729 44.5638 49.9448 44.562C49.5579 44.5367 49.2281 44.3371 48.9649 43.9709C48.9087 43.8931 48.86 43.8069 48.8113 43.7217C48.7307 43.5783 48.6614 43.4547 48.5705 43.4116C48.4872 43.3713 48.3504 43.3891 48.2052 43.4079C48.1471 43.4154 48.089 43.4219 48.0309 43.4266C47.423 43.4716 46.8019 43.2046 46.4234 42.7193C45.7508 41.8584 46.089 40.6566 46.3363 39.7788L46.415 39.495C46.6127 38.7568 46.8694 38.0261 47.1794 37.3235C48.0862 35.2654 49.274 33.6177 50.6155 32.5582C50.8263 32.3914 51.0249 32.2547 51.2206 32.1432L51.5176 32.664C51.348 32.7605 51.1747 32.8795 50.9865 33.0284C49.7218 34.028 48.5949 35.5971 47.7284 37.5652C47.4314 38.2397 47.1841 38.9413 46.9939 39.6505L46.9134 39.9418C46.6886 40.7371 46.4103 41.7282 46.8956 42.3502C47.1485 42.6734 47.5738 42.8645 47.9841 42.8289L48.1312 42.813C48.3316 42.7858 48.5836 42.7559 48.8253 42.8692C49.0895 42.9938 49.2253 43.2336 49.334 43.4266C49.3715 43.4931 49.4089 43.5606 49.452 43.6214C49.6075 43.8378 49.7818 43.9503 49.9841 43.9634C50.4047 43.9943 50.9996 43.6121 51.7321 42.8336C52.0928 42.4505 52.4366 41.9858 52.7532 41.4528C53.1354 40.8102 53.4211 40.1854 53.6028 39.5933L54.1762 39.7694C53.9804 40.4064 53.675 41.0753 53.2684 41.7591C52.9293 42.3296 52.5593 42.8299 52.1687 43.2439C51.63 43.8163 50.8309 44.5648 50.0281 44.5648Z" stroke="#3B3A64" stroke-width="0.3"/>
<path d="M43.2431 39.0406C43.0783 39.0406 42.964 38.9535 42.9181 38.9123C41.9738 38.0448 43.5757 31.4087 45.2993 29.0518C46.7045 27.1277 48.2183 27.7938 48.282 27.8228L48.0319 28.368C47.9888 28.3483 46.8881 27.893 45.7827 29.405C43.9897 31.8593 42.9696 37.5081 43.2872 38.3961C43.289 38.3952 43.29 38.3942 43.2918 38.3933C44.6773 37.1896 47.6909 36.2537 47.8192 36.2153L47.9954 36.7877C47.9654 36.7971 44.9752 37.7254 43.6853 38.8458C43.5148 38.9928 43.3649 39.0406 43.2431 39.0406Z" stroke="#3B3A64" stroke-width="0.3"/>
<path d="M56.6258 32.8364C57.0118 32.8364 57.0118 32.2368 56.6258 32.2368C56.2399 32.2368 56.2389 32.8364 56.6258 32.8364Z" stroke="#3B3A64" stroke-width="0.3"/>
<path d="M55.8343 33.493C56.2202 33.493 56.2212 32.8935 55.8343 32.8935C55.4483 32.8935 55.4483 33.493 55.8343 33.493Z" stroke="#3B3A64" stroke-width="0.3"/>
<path d="M54.8675 33.7788C55.2534 33.7788 55.2544 33.1792 54.8675 33.1792C54.4825 33.1792 54.4815 33.7788 54.8675 33.7788Z" stroke="#3B3A64" stroke-width="0.3"/>
<path d="M53.778 33.6785C54.163 33.6785 54.164 33.079 53.778 33.079C53.3921 33.079 53.3911 33.6785 53.778 33.6785Z" stroke="#3B3A64" stroke-width="0.3"/>
<path d="M52.9096 33.4097C53.2956 33.4097 53.2965 32.8101 52.9096 32.8101C52.5246 32.8101 52.5237 33.4097 52.9096 33.4097Z" stroke="#3B3A64" stroke-width="0.3"/>
<path d="M52.0084 32.8692C52.3944 32.8692 52.3953 32.2697 52.0084 32.2697C51.6225 32.2697 51.6225 32.8692 52.0084 32.8692Z" stroke="#3B3A64" stroke-width="0.3"/>
<path d="M52.2858 32.0035C52.6717 32.0035 52.6726 31.404 52.2858 31.404C51.8998 31.404 51.8998 32.0035 52.2858 32.0035Z" stroke="#3B3A64" stroke-width="0.3"/>
<path d="M52.3842 31.0649C52.7701 31.0649 52.771 30.4654 52.3842 30.4654C51.9991 30.4654 51.9982 31.0649 52.3842 31.0649Z" stroke="#3B3A64" stroke-width="0.3"/>
<path d="M55.4914 30.4017C55.8773 30.4017 55.8773 29.8022 55.4914 29.8022C55.1054 29.8022 55.1054 30.4017 55.4914 30.4017Z" stroke="#3B3A64" stroke-width="0.3"/>
<path d="M56.1565 30.901C56.5425 30.901 56.5434 30.3015 56.1565 30.3015C55.7706 30.3015 55.7706 30.901 56.1565 30.901Z" stroke="#3B3A64" stroke-width="0.3"/>
<path d="M56.6033 31.745C56.9893 31.745 56.9893 31.1455 56.6033 31.1455C56.2174 31.1455 56.2164 31.745 56.6033 31.745Z" stroke="#3B3A64" stroke-width="0.3"/>
<path d="M55.9157 32.3708C56.3017 32.3708 56.3017 31.7713 55.9157 31.7713C55.5298 31.7713 55.5289 32.3708 55.9157 32.3708Z" stroke="#3B3A64" stroke-width="0.3"/>
<path d="M55.0951 32.8007C55.4811 32.8007 55.4811 32.2012 55.0951 32.2012C54.7092 32.2012 54.7083 32.8007 55.0951 32.8007Z" stroke="#3B3A64" stroke-width="0.3"/>
<path d="M54.1396 32.9038C54.5256 32.9038 54.5265 32.3043 54.1396 32.3043C53.7546 32.3043 53.7537 32.9038 54.1396 32.9038Z" stroke="#3B3A64" stroke-width="0.3"/>
<path d="M53.141 32.5666C53.527 32.5666 53.5279 31.9671 53.141 31.9671C52.7551 31.9671 52.7551 32.5666 53.141 32.5666Z" stroke="#3B3A64" stroke-width="0.3"/>
<path d="M53.1523 31.493C53.5382 31.493 53.5392 30.8935 53.1523 30.8935C52.7673 30.8935 52.7663 31.493 53.1523 31.493Z" stroke="#3B3A64" stroke-width="0.3"/>
<path d="M54.0375 31.1998C54.4235 31.1998 54.4235 30.6003 54.0375 30.6003C53.6516 30.6003 53.6516 31.1998 54.0375 31.1998Z" stroke="#3B3A64" stroke-width="0.3"/>
<path d="M54.8797 31.094C55.2656 31.094 55.2656 30.4944 54.8797 30.4944C54.4938 30.4944 54.4928 31.094 54.8797 31.094Z" stroke="#3B3A64" stroke-width="0.3"/>
<path d="M55.5916 31.5708C55.9776 31.5708 55.9776 30.9713 55.5916 30.9713C55.2057 30.9713 55.2047 31.5708 55.5916 31.5708Z" stroke="#3B3A64" stroke-width="0.3"/>
<path d="M54.7429 31.9886C55.1289 31.9886 55.1289 31.389 54.7429 31.389C54.357 31.389 54.356 31.9886 54.7429 31.9886Z" stroke="#3B3A64" stroke-width="0.3"/>
<path d="M53.8324 32.0626C54.2174 32.0626 54.2183 31.4631 53.8324 31.4631C53.4464 31.4631 53.4455 32.0626 53.8324 32.0626Z" stroke="#3B3A64" stroke-width="0.3"/>
</svg>
