<svg width="374" height="387" viewBox="0 0 374 387" fill="none" xmlns="http://www.w3.org/2000/svg">
<g clip-path="url(#clip0_32_751)">
<path d="M172.393 307.216C180.853 306.037 191.108 295.833 197.254 290.307C203.779 284.444 207.878 272.114 195.871 269.138C185.724 266.62 172.317 281.194 166.144 287.844C159.8 294.676 159.178 309.05 172.393 307.216Z" fill="#D95F2E"/>
<path d="M184.258 342.77C189.985 337.486 207.568 326.522 198.012 317.453C191.259 309.662 180.44 321.602 175.681 325.712C169.397 331.133 152.075 340.373 158.452 350.616C165.852 362.494 178.319 348.246 184.258 342.77Z" fill="#D95F2E"/>
<path d="M105.44 352.886C115.982 355.756 143.983 327.673 127.566 323.591C115.29 322.208 84.7755 347.26 105.44 352.886Z" fill="#D95F2E"/>
<path d="M204.019 354.065C195.331 364.594 207.906 373.96 218.019 368.792C222.94 366.274 227.535 362.561 232.174 359.563C237.64 356.026 245.567 352.808 249.756 347.795C256.926 339.222 247.042 325.447 236.828 332.087C226.959 338.494 211.607 344.869 204.019 354.065Z" fill="#D95F2E"/>
<path d="M166.12 388.831C156.677 383.718 134.245 398.649 132.036 407.476C130.293 414.44 135.896 421.343 143.009 421.2C147.845 421.106 151.542 417.508 155.232 414.825C156.092 414.197 163.163 408.721 164.241 407.971C169.73 402.869 174.864 393.646 166.12 388.831Z" fill="#D95F2E"/>
<path d="M11.9354 389.211C4.23669 399.542 15.3492 409.216 25.5933 403.52C33.0744 399.365 42.7995 392.467 48.1075 386.357C51.2552 382.726 54.4993 380.208 52.864 374.671C51.6899 370.693 47.7389 367.387 43.4552 367.696C37.0143 368.164 30.9884 374.528 25.957 378.175C21.6286 381.316 15.1662 384.875 11.9354 389.211Z" fill="#D95F2E"/>
<path d="M48.01 337.701C57.3621 338.808 67.4261 327.376 74.8967 322.737C82.067 318.279 87.7332 306.064 77.7441 300.588C67.4267 294.99 53.3098 308.086 46.21 314.114C38.6491 320.533 32.9041 335.91 48.01 337.701Z" fill="#D95F2E"/>
<path d="M247.077 378.357C239.751 382.963 228.252 387.734 222.634 394.539C215.706 402.935 222.932 414.765 233.566 412.346C238.332 411.266 243.784 407.167 247.729 404.379C252.033 401.338 259.343 396.754 261.783 392.125C266.6 382.99 255.97 372.781 247.077 378.357Z" fill="#D95F2E"/>
<path d="M118.921 282.312C124.643 282.202 129.193 276.935 133.523 273.805C138.492 270.218 144.579 267.414 149.18 263.408C156.523 257.017 154.795 243.353 142.901 244.097C133.568 243.039 121.115 255.987 114.513 261.48C107.062 267.673 105.21 282.588 118.921 282.312Z" fill="#D95F2E"/>
<path d="M268.02 217.937C273.7 217.788 279.228 212.267 283.598 209.16C288.317 205.805 293.413 203.672 297.957 200.554C306.58 194.631 308.716 177.165 294.55 177.479C288.689 177.611 285.166 182.631 280.608 185.496C274.737 189.182 269.096 192.813 263.657 197.386C256.395 203.49 254.311 218.295 268.02 217.937Z" fill="#D95F2E"/>
<path d="M393.737 291.987C395.753 283.326 385.764 275.563 378.007 280.681C370.912 285.348 356.382 291.458 357.942 301.899C357.988 302.207 358.064 302.466 358.123 302.758C360.246 313.298 370.081 310.18 376.778 307.089C380.74 305.26 385.55 303.017 389.098 299.667C391.296 297.59 393.01 295.089 393.737 291.987Z" fill="#D95F2E"/>
<path d="M260.838 275.717C267.514 271.48 279.11 263.309 269.428 254.901C262.454 245.309 249.848 257.293 244.058 261.893C237.806 266.863 226.217 273.601 233.713 282.83C241.54 292.466 253.852 280.152 260.838 275.717Z" fill="#D95F2E"/>
<path d="M194.424 222.273C202.18 221.237 214.813 213.981 216.833 206.163C218.454 199.893 216.466 191.964 208.631 191.716C201.274 191.49 189.541 199.193 185.03 204.615C178.766 212.135 184.386 223.617 194.424 222.273Z" fill="#D95F2E"/>
<path d="M302.141 376.043C307.859 375.922 312.966 370.528 317.285 367.343C322.088 363.8 327.508 360.836 332.053 357.012C338.443 351.635 339.659 340.412 329.538 337.899C318.716 336.693 307.044 348.351 298.907 354.527C294.578 357.817 290.635 361.1 291.582 367.117C292.387 372.23 296.878 376.153 302.141 376.043Z" fill="#D95F2E"/>
<path d="M337.046 242.036C343.308 237.458 355.472 233.133 357.517 224.703C359.668 215.843 350.144 207.474 341.756 212.824C333.863 217.562 316.001 224.802 316.17 235.623C316.362 247.932 329.789 247.342 337.046 242.036Z" fill="#D95F2E"/>
<path d="M291.002 315.69C295.589 314.814 300.381 310.241 304.035 307.646C309.649 303.668 315.514 300.334 321.355 296.742C325.703 294.07 329.313 291.083 328.41 285.436C327.522 279.882 321.669 275.695 316.071 277.552C304.913 281.249 293.353 289.783 284.904 297.915C278.025 304.533 278.034 318.164 291.002 315.69Z" fill="#D95F2E"/>
</g>
<defs>
<clipPath id="clip0_32_751">
<rect width="374" height="387" fill="white"/>
</clipPath>
</defs>
</svg>
